# H&M Relaxed Fit Heavyweight Graphic T-shirt #1361995002
# 100% Cotton Jersey - Parametric CAD & PBD Physics Sim

g front_panel
v -0.01032 0.60986 0.13315
v 0.03891 0.60419 0.10865
v 0.08347 0.60351 0.09866
v 0.12147 0.60388 0.07419
v 0.15178 0.60428 0.04128
v 0.17413 0.60409 0.00330
v 0.18560 0.59999 -0.03914
v 0.19322 0.73020 -0.06469
v 0.18165 0.80599 -0.06421
v 0.17440 0.88061 -0.06526
v 0.17640 0.95726 -0.06431
v 0.18764 1.03471 -0.06713
v 0.18421 1.09487 -0.06500
v 0.21725 1.11392 -0.06947
v 0.21760 1.13237 -0.04641
v 0.21681 1.16526 -0.02256
v 0.20215 1.18527 -0.00958
v 0.21001 1.21935 -0.00585
v 0.19057 1.22639 -0.02338
v 0.21966 1.23183 -0.03573
v 0.21686 1.16098 -0.01412
v 0.23061 1.29002 -0.07062
v 0.21018 1.32536 -0.08102
v 0.15840 1.35493 -0.07816
v 0.09909 1.36312 -0.08181
v 0.08018 1.36097 -0.07983
v 0.07427 1.33557 -0.04722
v 0.05879 1.30989 -0.01999
v 0.04106 1.28623 -0.00462
v 0.02085 1.27554 0.01184
v -0.00230 1.27281 0.01647
v -0.02552 1.27834 0.00913
v -0.04805 1.29432 -0.00812
v -0.07663 1.31205 -0.02688
v -0.10445 1.33593 -0.05708
v -0.10999 1.35929 -0.08959
v -0.09186 1.35132 -0.14528
v -0.16183 1.36124 -0.08388
v -0.22451 1.30589 -0.06150
v -0.21369 1.32379 -0.08098
v -0.23672 1.22688 -0.05160
v -0.20186 1.22490 -0.02157
v -0.17517 1.21130 -0.01474
v -0.20032 1.21846 -0.00872
v -0.18243 1.19279 -0.00767
v -0.18790 1.16826 -0.01505
v -0.18099 1.14121 -0.02120
v -0.19919 1.12212 -0.02154
v -0.18092 1.05493 -0.06224
v -0.17464 0.97578 -0.06012
v -0.17425 0.89642 -0.06061
v -0.18235 0.82228 -0.05856
v -0.18901 0.75077 -0.06156
v -0.21996 0.67627 -0.02481
v -0.19239 0.69113 -0.02878
v -0.19313 0.71315 -0.03539
v -0.19061 0.73832 -0.02586
v -0.18639 0.76824 -0.01891
v -0.18625 0.79160 -0.02691
v -0.17955 0.81783 -0.02175
v -0.17432 0.85002 -0.02179
v -0.17070 0.87302 -0.03246
v -0.17386 0.90141 -0.02404
v -0.17308 0.93581 -0.02485
v -0.17239 0.96226 -0.02960
v -0.17543 0.99436 -0.02588
v -0.17452 1.01997 -0.03291
v -0.17627 1.04565 -0.02791
v -0.18615 1.07113 -0.01571
v -0.18365 1.09880 -0.01308
v -0.19069 0.67126 -0.00856
v -0.18690 0.69731 -0.00465
v -0.18274 0.72415 0.00226
v -0.18109 0.75182 0.00481
v -0.18013 0.77895 0.00073
v -0.17159 0.80691 0.00056
v -0.16634 0.83435 -0.00318
v -0.16704 0.86293 -0.00416
v -0.16769 0.89364 -0.00099
v -0.16707 0.92322 -0.00253
v -0.16794 0.95276 -0.00357
v -0.16796 0.98142 -0.00394
v -0.16830 1.00891 -0.00491
v -0.17046 1.03637 -0.00009
v -0.17195 1.06460 0.00621
v -0.17107 1.09378 0.00943
v -0.17299 1.12374 0.01457
v -0.16967 1.15451 0.01232
v -0.18217 1.17953 0.01355
v -0.17978 0.65721 0.01490
v -0.17313 0.68463 0.02140
v -0.16891 0.71278 0.02477
v -0.16581 0.74048 0.02457
v -0.16196 0.76833 0.02261
v -0.15878 0.79703 0.02240
v -0.15777 0.82602 0.02142
v -0.15816 0.85564 0.02161
v -0.15802 0.88567 0.02258
v -0.15796 0.91542 0.02182
v -0.15809 0.94473 0.02126
v -0.15823 0.97363 0.02129
v -0.15865 1.00205 0.02217
v -0.15895 1.03068 0.02540
v -0.15831 1.05988 0.02858
v -0.15798 1.08930 0.03100
v -0.15680 1.11905 0.03188
v -0.16294 1.14782 0.03426
v -0.16389 1.17719 0.03174
v -0.16884 1.20673 0.03448
v -0.18375 1.23596 0.01708
v -0.17561 1.24363 -0.01620
v -0.20928 1.25901 -0.03414
v -0.16559 0.64772 0.03660
v -0.15368 0.67601 0.04095
v -0.14890 0.70432 0.04414
v -0.14654 0.73283 0.04487
v -0.14522 0.76165 0.04501
v -0.14453 0.79105 0.04547
v -0.14452 0.82066 0.04536
v -0.14456 0.85049 0.04556
v -0.14440 0.88048 0.04584
v -0.14439 0.91022 0.04544
v -0.14444 0.93970 0.04531
v -0.14446 0.96895 0.04570
v -0.14432 0.99801 0.04671
v -0.14381 1.02725 0.04850
v -0.14313 1.05668 0.05019
v -0.14256 1.08617 0.05140
v -0.14314 1.11577 0.05255
v -0.14560 1.14527 0.05224
v -0.14854 1.17474 0.05243
v -0.15358 1.20383 0.05625
v -0.15951 1.23686 0.02971
v -0.16162 1.25776 -0.00995
v -0.18904 1.28131 -0.03124
v -0.14538 0.64127 0.05410
v -0.13246 0.67003 0.06191
v -0.12914 0.69926 0.06525
v -0.12770 0.72854 0.06634
v -0.12717 0.75802 0.06681
v -0.12693 0.78776 0.06708
v -0.12692 0.81758 0.06709
v -0.12687 0.84752 0.06720
v -0.12678 0.87749 0.06725
v -0.12681 0.90730 0.06708
v -0.12678 0.93696 0.06714
v -0.12660 0.96649 0.06754
v -0.12623 0.99595 0.06823
v -0.12567 1.02547 0.06914
v -0.12514 1.05505 0.06992
v -0.12472 1.08466 0.07055
v -0.12519 1.11438 0.07105
v -0.12762 1.14406 0.07113
v -0.12988 1.17392 0.07155
v -0.13221 1.20430 0.07229
v -0.13519 1.23638 0.03644
v -0.14468 1.26806 0.00033
v -0.16650 1.30550 -0.02690
v -0.11322 0.63750 0.07566
v -0.11002 0.66684 0.08194
v -0.10734 0.69663 0.08443
v -0.10630 0.72638 0.08519
v -0.10598 0.75617 0.08546
v -0.10586 0.78604 0.08556
v -0.10584 0.81595 0.08558
v -0.10579 0.84592 0.08561
v -0.10578 0.87589 0.08560
v -0.10580 0.90578 0.08554
v -0.10572 0.93558 0.08563
v -0.10550 0.96531 0.08588
v -0.10516 0.99501 0.08624
v -0.10477 1.02472 0.08663
v -0.10442 1.05444 0.08697
v -0.10414 1.08420 0.08726
v -0.10451 1.11407 0.08752
v -0.10614 1.14405 0.08775
v -0.10762 1.17440 0.08804
v -0.10768 1.20513 0.08445
v -0.11082 1.23871 0.04561
v -0.11987 1.27107 0.00601
v -0.13497 1.30582 -0.03041
v -0.09024 0.63540 0.09662
v -0.08547 0.66532 0.09838
v -0.08321 0.69539 0.09971
v -0.08249 0.72530 0.10008
v -0.08232 0.75517 0.10018
v -0.08226 0.78508 0.10021
v -0.08225 0.81502 0.10022
v -0.08224 0.84500 0.10021
v -0.08226 0.87498 0.10019
v -0.08227 0.90493 0.10018
v -0.08219 0.93484 0.10022
v -0.08204 0.96471 0.10033
v -0.08184 0.99456 0.10046
v -0.08162 1.02440 0.10060
v -0.08143 1.05425 0.10072
v -0.08128 1.08415 0.10084
v -0.08150 1.11418 0.10099
v -0.08239 1.14441 0.10117
v -0.08327 1.17499 0.10106
v -0.08279 1.20542 0.09531
v -0.08581 1.23896 0.05426
v -0.09301 1.27055 0.01202
v -0.10714 1.30350 -0.02580
v -0.06358 0.63454 0.11065
v -0.05924 0.66462 0.11001
v -0.05756 0.69474 0.11061
v -0.05713 0.72467 0.11075
v -0.05707 0.75456 0.11078
v -0.05706 0.78449 0.11079
v -0.05706 0.81445 0.11078
v -0.05708 0.84444 0.11077
v -0.05710 0.87443 0.11076
v -0.05710 0.90442 0.11076
v -0.05706 0.93439 0.11077
v -0.05700 0.96435 0.11079
v -0.05692 0.99428 0.11082
v -0.05684 1.02421 0.11085
v -0.05676 1.05416 0.11089
v -0.05669 1.08418 0.11093
v -0.05677 1.11432 0.11100
v -0.05719 1.14463 0.11105
v -0.05774 1.17517 0.11066
v -0.05752 1.20535 0.10475
v -0.05994 1.23807 0.06208
v -0.06545 1.26943 0.01863
v -0.03546 0.63377 0.11735
v -0.03244 0.66408 0.11702
v -0.03123 0.69426 0.11726
v -0.03098 0.72424 0.11731
v -0.03096 0.75417 0.11732
v -0.03097 0.78413 0.11732
v -0.03098 0.81411 0.11732
v -0.03099 0.84411 0.11731
v -0.03100 0.87412 0.11731
v -0.03100 0.90412 0.11730
v -0.03100 0.93412 0.11730
v -0.03099 0.96411 0.11730
v -0.03098 0.99409 0.11730
v -0.03096 1.02407 0.11730
v -0.03094 1.05409 0.11731
v -0.03091 1.08417 0.11732
v -0.03094 1.11433 0.11732
v -0.03114 1.14461 0.11728
v -0.03151 1.17497 0.11691
v -0.03175 1.20503 0.11234
v -0.03337 1.23647 0.06884
v -0.00794 0.63291 0.11774
v -0.00571 0.66362 0.11992
v -0.00472 0.69389 0.11991
v -0.00454 0.72395 0.11992
v -0.00452 0.75395 0.11992
v -0.00451 0.78395 0.11992
v -0.00450 0.81395 0.11992
v -0.00450 0.84394 0.11991
v -0.00449 0.87394 0.11991
v -0.00449 0.90394 0.11991
v -0.00449 0.93394 0.11990
v -0.00450 0.96394 0.11990
v -0.00451 0.99394 0.11990
v -0.00451 1.02395 0.11990
v -0.00451 1.05399 0.11990
v -0.00452 1.08408 0.11989
v -0.00457 1.11423 0.11987
v -0.00469 1.14440 0.11982
v -0.00495 1.17459 0.11961
v -0.00535 1.20460 0.11693
v -0.00572 1.23508 0.07286
v 0.01860 0.63325 0.11612
v 0.02100 0.66355 0.11874
v 0.02170 0.69378 0.11872
v 0.02184 0.72384 0.11870
v 0.02188 0.75386 0.11869
v 0.02192 0.78386 0.11868
v 0.02197 0.81386 0.11866
v 0.02201 0.84384 0.11865
v 0.02204 0.87382 0.11864
v 0.02206 0.90380 0.11863
v 0.02206 0.93379 0.11863
v 0.02206 0.96379 0.11863
v 0.02204 0.99379 0.11863
v 0.02203 1.02381 0.11863
v 0.02202 1.05386 0.11863
v 0.02200 1.08393 0.11862
v 0.02198 1.11402 0.11860
v 0.02195 1.14410 0.11857
v 0.02186 1.17416 0.11850
v 0.02174 1.20414 0.11726
v 0.02176 1.23438 0.07308
v 0.04571 0.63327 0.11389
v 0.04714 0.66364 0.11389
v 0.04762 0.69378 0.11375
v 0.04776 0.72383 0.11371
v 0.04785 0.75383 0.11367
v 0.04796 0.78381 0.11362
v 0.04807 0.81377 0.11357
v 0.04817 0.84371 0.11352
v 0.04823 0.87366 0.11349
v 0.04826 0.90361 0.11348
v 0.04827 0.93359 0.11347
v 0.04825 0.96358 0.11348
v 0.04823 0.99358 0.11349
v 0.04823 1.02361 0.11349
v 0.04824 1.05365 0.11347
v 0.04826 1.08369 0.11345
v 0.04837 1.11371 0.11343
v 0.04866 1.14372 0.11341
v 0.04894 1.17371 0.11340
v 0.04933 1.20368 0.11277
v 0.04945 1.23412 0.06957
v 0.05032 1.26443 0.02573
v 0.07086 0.63321 0.10541
v 0.07219 0.66362 0.10533
v 0.07258 0.69378 0.10515
v 0.07278 0.72382 0.10502
v 0.07299 0.75379 0.10489
v 0.07321 0.78372 0.10473
v 0.07341 0.81361 0.10459
v 0.07355 0.84348 0.10449
v 0.07363 0.87338 0.10443
v 0.07366 0.90330 0.10440
v 0.07365 0.93325 0.10441
v 0.07361 0.96324 0.10444
v 0.07359 0.99326 0.10445
v 0.07362 1.02329 0.10444
v 0.07369 1.05332 0.10438
v 0.07379 1.08334 0.10430
v 0.07412 1.11332 0.10424
v 0.07487 1.14328 0.10426
v 0.07559 1.17326 0.10434
v 0.07638 1.20333 0.10369
v 0.07672 1.23446 0.06229
v 0.07863 1.26496 0.01974
v 0.07824 1.30048 -0.01542
v 0.09498 0.63349 0.09363
v 0.09579 0.66377 0.09325
v 0.09617 0.69386 0.09296
v 0.09650 0.72384 0.09265
v 0.09686 0.75373 0.09231
v 0.09719 0.78355 0.09196
v 0.09745 0.81333 0.09168
v 0.09759 0.84311 0.09151
v 0.09765 0.87294 0.09144
v 0.09766 0.90282 0.09142
v 0.09762 0.93277 0.09147
v 0.09756 0.96276 0.09154
v 0.09756 0.99281 0.09155
v 0.09765 1.02289 0.09147
v 0.09783 1.05296 0.09128
v 0.09804 1.08301 0.09105
v 0.09860 1.11301 0.09094
v 0.09988 1.14297 0.09109
v 0.10107 1.17299 0.09144
v 0.10191 1.20329 0.09040
v 0.10295 1.23546 0.05169
v 0.10700 1.26673 0.01044
v 0.12363 1.30258 -0.02827
v 0.11689 0.63385 0.07832
v 0.11748 0.66397 0.07783
v 0.11794 0.69397 0.07728
v 0.11843 0.72387 0.07660
v 0.11892 0.75364 0.07588
v 0.11930 0.78331 0.07522
v 0.11952 0.81294 0.07480
v 0.11960 0.84261 0.07462
v 0.11961 0.87238 0.07459
v 0.11959 0.90226 0.07462
v 0.11952 0.93223 0.07475
v 0.11947 0.96229 0.07489
v 0.11953 0.99247 0.07482
v 0.11974 1.02275 0.07452
v 0.12007 1.05308 0.07402
v 0.12044 1.08335 0.07355
v 0.12125 1.11343 0.07344
v 0.12312 1.14339 0.07382
v 0.12481 1.17338 0.07474
v 0.12542 1.20382 0.07376
v 0.12749 1.23646 0.03880
v 0.13466 1.26827 0.00235
v 0.15227 1.30521 -0.02935
v 0.13617 0.63393 0.06020
v 0.13683 0.66411 0.05927
v 0.13743 0.69414 0.05823
v 0.13809 0.72399 0.05695
v 0.13862 0.75362 0.05565
v 0.13886 0.78309 0.05459
v 0.13890 0.81253 0.05408
v 0.13882 0.84212 0.05396
v 0.13876 0.87193 0.05401
v 0.13872 0.90194 0.05410
v 0.13867 0.93207 0.05435
v 0.13872 0.96241 0.05452
v 0.13887 0.99306 0.05418
v 0.13925 1.02391 0.05347
v 0.13997 1.05475 0.05253
v 0.14075 1.08527 0.05194
v 0.14181 1.11535 0.05200
v 0.14385 1.14520 0.05276
v 0.14559 1.17489 0.05466
v 0.14575 1.20506 0.05497
v 0.14893 1.23677 0.02440
v 0.15824 1.26691 -0.00803
v 0.18440 1.30378 -0.03033
v 0.15276 0.63416 0.03926
v 0.15373 0.66444 0.03802
v 0.15474 0.69445 0.03642
v 0.15586 0.72426 0.03448
v 0.15600 0.75370 0.03225
v 0.15555 0.78294 0.03055
v 0.15497 0.81225 0.02995
v 0.15441 0.84198 0.02981
v 0.15422 0.87210 0.02992
v 0.15416 0.90249 0.02999
v 0.15425 0.93309 0.03039
v 0.15447 0.96408 0.03052
v 0.15473 0.99551 0.02966
v 0.15573 1.02687 0.02866
v 0.15788 1.05807 0.02769
v 0.15990 1.08857 0.02749
v 0.16145 1.11843 0.02800
v 0.16307 1.14800 0.02917
v 0.16397 1.17703 0.03228
v 0.16510 1.20611 0.03557
v 0.16912 1.23516 0.00977
v 0.17783 1.26014 -0.01892
v 0.20719 1.28192 -0.03754
v 0.16721 0.63418 0.01718
v 0.17075 0.66459 0.01643
v 0.17358 0.69478 0.01467
v 0.17379 0.72480 0.01130
v 0.17270 0.75380 0.00723
v 0.17080 0.78300 0.00473
v 0.16798 0.81243 0.00360
v 0.16553 0.84268 0.00280
v 0.16518 0.87337 0.00291
v 0.16510 0.90458 0.00285
v 0.16543 0.93566 0.00352
v 0.16581 0.96734 0.00365
v 0.16682 0.99916 0.00205
v 0.16958 1.03073 0.00134
v 0.17457 1.06245 0.00033
v 0.17896 1.09271 0.00105
v 0.18148 1.12209 0.00273
v 0.18338 1.15107 0.00550
v 0.18227 1.17826 0.01042
v 0.18475 1.20559 0.01585
v 0.19304 1.23583 0.00267
v 0.19513 1.24765 -0.02518
v 0.18060 0.63352 -0.00725
v 0.18657 0.66460 -0.01018
v 0.18655 0.69556 -0.01465
v 0.18508 0.72486 -0.01919
v 0.18489 0.75285 -0.02143
v 0.18334 0.78278 -0.02345
v 0.17844 0.81378 -0.02434
v 0.17298 0.84444 -0.02629
v 0.17146 0.87636 -0.02569
v 0.17155 0.90797 -0.02656
v 0.17214 0.93987 -0.02474
v 0.17271 0.97073 -0.02524
v 0.17588 1.00331 -0.02780
v 0.18084 1.03575 -0.02750
v 0.18982 1.06916 -0.03019
v 0.19668 1.09893 -0.02842
v 0.19997 1.12606 -0.02510
f 41 42 112
f 41 112 39
f 39 112 135
f 39 135 158
f 39 158 38
f 36 38 35
f 26 27 334
f 26 334 356
f 25 356 357
f 25 357 24
f 23 24 403
f 23 403 426
f 23 426 22
f 22 426 20
f 14 15 465
f 14 465 464
f 14 464 463
f 14 463 12
f 7 8 450
f 7 450 449
f 7 449 6
f 6 449 427
f 6 427 5
f 5 427 404
f 5 404 381
f 5 381 4
f 4 381 358
f 4 358 335
f 4 335 3
f 3 335 312
f 3 312 2
f 2 312 290
f 2 290 269
f 2 269 1
f 1 269 248
f 1 248 227
f 1 227 205
f 1 205 182
f 1 182 159
f 1 159 136
f 1 136 54
f 54 136 113
f 54 113 90
f 54 90 71
f 54 71 55
f 54 55 53
f 53 55 56
f 53 56 57
f 53 57 58
f 53 58 52
f 52 58 59
f 52 59 60
f 52 60 61
f 52 61 51
f 51 61 62
f 51 62 63
f 51 63 64
f 51 64 50
f 50 64 65
f 50 65 66
f 50 66 49
f 49 66 67
f 49 67 68
f 49 68 69
f 49 69 48
f 48 69 70
f 48 70 47
f 47 70 87
f 47 87 88
f 47 88 46
f 42 43 111
f 42 111 112
f 112 111 134
f 112 134 135
f 135 134 157
f 135 157 158
f 158 157 180
f 158 180 181
f 158 181 38
f 38 181 204
f 38 204 35
f 35 204 34
f 34 204 226
f 34 226 33
f 33 226 32
f 32 226 247
f 32 247 268
f 32 268 31
f 31 268 289
f 31 289 30
f 30 289 311
f 30 311 29
f 29 311 28
f 28 311 334
f 28 334 27
f 334 311 333
f 334 333 356
f 356 333 355
f 356 355 378
f 356 378 379
f 356 379 357
f 357 379 380
f 357 380 24
f 24 380 403
f 403 380 402
f 403 402 425
f 403 425 426
f 426 425 448
f 426 448 20
f 20 448 19
f 15 16 465
f 465 16 444
f 465 444 443
f 465 443 464
f 464 443 442
f 464 442 463
f 463 442 441
f 463 441 462
f 463 462 12
f 12 462 461
f 12 461 11
f 11 461 460
f 11 460 459
f 11 459 458
f 11 458 10
f 10 458 457
f 10 457 456
f 10 456 9
f 9 456 455
f 9 455 454
f 9 454 8
f 8 454 453
f 8 453 452
f 8 452 451
f 8 451 450
f 450 451 429
f 450 429 428
f 450 428 449
f 449 428 427
f 427 428 405
f 427 405 404
f 404 405 382
f 404 382 381
f 381 382 359
f 381 359 358
f 358 359 336
f 358 336 335
f 335 336 313
f 335 313 312
f 312 313 291
f 312 291 290
f 290 291 270
f 290 270 269
f 269 270 249
f 269 249 248
f 248 249 228
f 248 228 227
f 227 228 206
f 227 206 205
f 205 206 183
f 205 183 182
f 182 183 160
f 182 160 159
f 159 160 137
f 159 137 136
f 136 137 114
f 136 114 113
f 113 114 91
f 113 91 90
f 90 91 72
f 90 72 71
f 71 72 56
f 71 56 55
f 56 72 57
f 57 72 73
f 57 73 58
f 58 73 74
f 58 74 59
f 59 74 75
f 59 75 60
f 60 75 76
f 60 76 61
f 61 76 77
f 61 77 62
f 62 77 78
f 62 78 63
f 63 78 79
f 63 79 64
f 64 79 80
f 64 80 65
f 65 80 81
f 65 81 66
f 66 81 82
f 66 82 67
f 67 82 83
f 67 83 68
f 68 83 84
f 68 84 69
f 69 84 85
f 69 85 70
f 70 85 86
f 70 86 87
f 87 86 105
f 87 105 106
f 87 106 88
f 88 106 107
f 88 107 89
f 88 89 46
f 46 89 45
f 43 44 110
f 43 110 111
f 111 110 133
f 111 133 134
f 134 133 156
f 134 156 157
f 157 156 179
f 157 179 180
f 180 179 202
f 180 202 203
f 180 203 181
f 181 203 204
f 204 203 226
f 226 203 225
f 226 225 247
f 247 225 246
f 247 246 267
f 247 267 268
f 268 267 288
f 268 288 289
f 289 288 309
f 289 309 310
f 289 310 311
f 311 310 332
f 311 332 333
f 333 332 355
f 355 332 354
f 355 354 377
f 355 377 378
f 378 377 400
f 378 400 401
f 378 401 379
f 379 401 402
f 379 402 380
f 402 401 424
f 402 424 425
f 425 424 447
f 425 447 448
f 448 447 19
f 19 447 18
f 16 17 445
f 16 445 444
f 444 445 422
f 444 422 421
f 444 421 443
f 443 421 420
f 443 420 442
f 442 420 419
f 442 419 441
f 441 419 418
f 441 418 440
f 441 440 462
f 462 440 461
f 461 440 439
f 461 439 460
f 460 439 438
f 460 438 459
f 459 438 437
f 459 437 458
f 458 437 436
f 458 436 457
f 457 436 435
f 457 435 456
f 456 435 434
f 456 434 455
f 455 434 433
f 455 433 454
f 454 433 432
f 454 432 453
f 453 432 431
f 453 431 452
f 452 431 430
f 452 430 451
f 451 430 429
f 429 430 407
f 429 407 406
f 429 406 428
f 428 406 405
f 405 406 383
f 405 383 382
f 382 383 360
f 382 360 359
f 359 360 337
f 359 337 336
f 336 337 314
f 336 314 313
f 313 314 292
f 313 292 291
f 291 292 271
f 291 271 270
f 270 271 250
f 270 250 249
f 249 250 229
f 249 229 228
f 228 229 207
f 228 207 206
f 206 207 184
f 206 184 183
f 183 184 161
f 183 161 160
f 160 161 138
f 160 138 137
f 137 138 115
f 137 115 114
f 114 115 92
f 114 92 91
f 91 92 73
f 91 73 72
f 73 92 74
f 74 92 93
f 74 93 75
f 75 93 94
f 75 94 76
f 76 94 95
f 76 95 77
f 77 95 96
f 77 96 78
f 78 96 97
f 78 97 79
f 79 97 98
f 79 98 80
f 80 98 99
f 80 99 81
f 81 99 100
f 81 100 82
f 82 100 101
f 82 101 83
f 83 101 102
f 83 102 84
f 84 102 103
f 84 103 85
f 85 103 104
f 85 104 86
f 86 104 105
f 105 104 127
f 105 127 128
f 105 128 106
f 106 128 129
f 106 129 107
f 107 129 130
f 107 130 108
f 107 108 89
f 89 108 109
f 89 109 44
f 89 44 45
f 44 109 110
f 110 109 132
f 110 132 133
f 133 132 155
f 133 155 156
f 156 155 178
f 156 178 179
f 179 178 201
f 179 201 202
f 202 201 224
f 202 224 225
f 202 225 203
f 225 224 246
f 246 224 245
f 246 245 266
f 246 266 267
f 267 266 287
f 267 287 288
f 288 287 308
f 288 308 309
f 309 308 330
f 309 330 331
f 309 331 310
f 310 331 332
f 332 331 354
f 354 331 353
f 354 353 376
f 354 376 377
f 377 376 399
f 377 399 400
f 400 399 422
f 400 422 423
f 400 423 401
f 401 423 424
f 424 423 446
f 424 446 447
f 447 446 18
f 18 446 17
f 17 446 445
f 445 446 423
f 445 423 422
f 422 399 421
f 421 399 398
f 421 398 420
f 420 398 397
f 420 397 419
f 419 397 396
f 419 396 418
f 418 396 395
f 418 395 417
f 418 417 440
f 440 417 439
f 439 417 416
f 439 416 438
f 438 416 415
f 438 415 437
f 437 415 414
f 437 414 436
f 436 414 413
f 436 413 435
f 435 413 412
f 435 412 434
f 434 412 411
f 434 411 433
f 433 411 410
f 433 410 432
f 432 410 409
f 432 409 431
f 431 409 408
f 431 408 430
f 430 408 407
f 407 408 385
f 407 385 384
f 407 384 406
f 406 384 383
f 383 384 361
f 383 361 360
f 360 361 338
f 360 338 337
f 337 338 315
f 337 315 314
f 314 315 293
f 314 293 292
f 292 293 272
f 292 272 271
f 271 272 251
f 271 251 250
f 250 251 230
f 250 230 229
f 229 230 208
f 229 208 207
f 207 208 185
f 207 185 184
f 184 185 162
f 184 162 161
f 161 162 139
f 161 139 138
f 138 139 116
f 138 116 115
f 115 116 93
f 115 93 92
f 93 116 94
f 94 116 117
f 94 117 95
f 95 117 118
f 95 118 96
f 96 118 119
f 96 119 97
f 97 119 120
f 97 120 98
f 98 120 121
f 98 121 99
f 99 121 122
f 99 122 100
f 100 122 123
f 100 123 101
f 101 123 124
f 101 124 102
f 102 124 125
f 102 125 103
f 103 125 126
f 103 126 104
f 104 126 127
f 127 126 149
f 127 149 150
f 127 150 128
f 128 150 151
f 128 151 129
f 129 151 152
f 129 152 130
f 130 152 153
f 130 153 131
f 130 131 108
f 108 131 109
f 109 131 132
f 132 131 154
f 132 154 155
f 155 154 177
f 155 177 178
f 178 177 200
f 178 200 201
f 201 200 223
f 201 223 224
f 224 223 245
f 245 223 244
f 245 244 265
f 245 265 266
f 266 265 286
f 266 286 287
f 287 286 307
f 287 307 308
f 308 307 329
f 308 329 330
f 330 329 352
f 330 352 353
f 330 353 331
f 353 352 375
f 353 375 376
f 376 375 398
f 376 398 399
f 398 375 397
f 397 375 374
f 397 374 396
f 396 374 373
f 396 373 395
f 395 373 372
f 395 372 394
f 395 394 417
f 417 394 416
f 416 394 393
f 416 393 415
f 415 393 392
f 415 392 414
f 414 392 391
f 414 391 413
f 413 391 390
f 413 390 412
f 412 390 389
f 412 389 411
f 411 389 388
f 411 388 410
f 410 388 387
f 410 387 409
f 409 387 386
f 409 386 408
f 408 386 385
f 385 386 363
f 385 363 362
f 385 362 384
f 384 362 361
f 361 362 339
f 361 339 338
f 338 339 316
f 338 316 315
f 315 316 294
f 315 294 293
f 293 294 273
f 293 273 272
f 272 273 252
f 272 252 251
f 251 252 231
f 251 231 230
f 230 231 209
f 230 209 208
f 208 209 186
f 208 186 185
f 185 186 163
f 185 163 162
f 162 163 140
f 162 140 139
f 139 140 117
f 139 117 116
f 117 140 118
f 118 140 141
f 118 141 119
f 119 141 142
f 119 142 120
f 120 142 143
f 120 143 121
f 121 143 144
f 121 144 122
f 122 144 145
f 122 145 123
f 123 145 146
f 123 146 124
f 124 146 147
f 124 147 125
f 125 147 148
f 125 148 126
f 126 148 149
f 149 148 171
f 149 171 172
f 149 172 150
f 150 172 173
f 150 173 151
f 151 173 174
f 151 174 152
f 152 174 175
f 152 175 153
f 153 175 176
f 153 176 154
f 153 154 131
f 154 176 177
f 177 176 199
f 177 199 200
f 200 199 222
f 200 222 223
f 223 222 244
f 244 222 243
f 244 243 264
f 244 264 265
f 265 264 285
f 265 285 286
f 286 285 306
f 286 306 307
f 307 306 328
f 307 328 329
f 329 328 351
f 329 351 352
f 352 351 374
f 352 374 375
f 374 351 373
f 373 351 350
f 373 350 372
f 372 350 349
f 372 349 371
f 372 371 394
f 394 371 393
f 393 371 370
f 393 370 392
f 392 370 369
f 392 369 391
f 391 369 368
f 391 368 390
f 390 368 367
f 390 367 389
f 389 367 366
f 389 366 388
f 388 366 365
f 388 365 387
f 387 365 364
f 387 364 386
f 386 364 363
f 363 364 341
f 363 341 340
f 363 340 362
f 362 340 339
f 339 340 317
f 339 317 316
f 316 317 295
f 316 295 294
f 294 295 274
f 294 274 273
f 273 274 253
f 273 253 252
f 252 253 232
f 252 232 231
f 231 232 210
f 231 210 209
f 209 210 187
f 209 187 186
f 186 187 164
f 186 164 163
f 163 164 141
f 163 141 140
f 141 164 142
f 142 164 165
f 142 165 143
f 143 165 166
f 143 166 144
f 144 166 167
f 144 167 145
f 145 167 168
f 145 168 146
f 146 168 169
f 146 169 147
f 147 169 170
f 147 170 148
f 148 170 171
f 171 170 193
f 171 193 194
f 171 194 172
f 172 194 195
f 172 195 173
f 173 195 196
f 173 196 174
f 174 196 197
f 174 197 175
f 175 197 198
f 175 198 176
f 176 198 199
f 199 198 221
f 199 221 222
f 222 221 243
f 243 221 242
f 243 242 263
f 243 263 264
f 264 263 284
f 264 284 285
f 285 284 305
f 285 305 306
f 306 305 327
f 306 327 328
f 328 327 350
f 328 350 351
f 350 327 349
f 349 327 326
f 349 326 348
f 349 348 371
f 371 348 370
f 370 348 347
f 370 347 369
f 369 347 346
f 369 346 368
f 368 346 345
f 368 345 367
f 367 345 344
f 367 344 366
f 366 344 343
f 366 343 365
f 365 343 342
f 365 342 364
f 364 342 341
f 341 342 319
f 341 319 318
f 341 318 340
f 340 318 317
f 317 318 296
f 317 296 295
f 295 296 275
f 295 275 274
f 274 275 254
f 274 254 253
f 253 254 233
f 253 233 232
f 232 233 211
f 232 211 210
f 210 211 188
f 210 188 187
f 187 188 165
f 187 165 164
f 165 188 166
f 166 188 189
f 166 189 167
f 167 189 190
f 167 190 168
f 168 190 191
f 168 191 169
f 169 191 192
f 169 192 170
f 170 192 193
f 193 192 215
f 193 215 216
f 193 216 194
f 194 216 217
f 194 217 195
f 195 217 218
f 195 218 196
f 196 218 219
f 196 219 197
f 197 219 220
f 197 220 198
f 198 220 221
f 221 220 242
f 242 220 241
f 242 241 262
f 242 262 263
f 263 262 283
f 263 283 284
f 284 283 304
f 284 304 305
f 305 304 326
f 305 326 327
f 326 304 325
f 326 325 348
f 348 325 347
f 347 325 324
f 347 324 346
f 346 324 323
f 346 323 345
f 345 323 322
f 345 322 344
f 344 322 321
f 344 321 343
f 343 321 320
f 343 320 342
f 342 320 319
f 319 320 298
f 319 298 297
f 319 297 318
f 318 297 296
f 296 297 276
f 296 276 275
f 275 276 255
f 275 255 254
f 254 255 234
f 254 234 233
f 233 234 212
f 233 212 211
f 211 212 189
f 211 189 188
f 189 212 190
f 190 212 213
f 190 213 191
f 191 213 214
f 191 214 192
f 192 214 215
f 215 214 236
f 215 236 237
f 215 237 216
f 216 237 238
f 216 238 217
f 217 238 239
f 217 239 218
f 218 239 240
f 218 240 219
f 219 240 241
f 219 241 220
f 241 240 261
f 241 261 262
f 262 261 282
f 262 282 283
f 283 282 303
f 283 303 304
f 304 303 325
f 325 303 324
f 324 303 302
f 324 302 323
f 323 302 301
f 323 301 322
f 322 301 300
f 322 300 321
f 321 300 299
f 321 299 320
f 320 299 298
f 298 299 278
f 298 278 277
f 298 277 297
f 297 277 276
f 276 277 256
f 276 256 255
f 255 256 235
f 255 235 234
f 234 235 213
f 234 213 212
f 213 235 214
f 214 235 236
f 236 235 256
f 236 256 257
f 236 257 237
f 237 257 258
f 237 258 238
f 238 258 259
f 238 259 239
f 239 259 260
f 239 260 240
f 240 260 261
f 261 260 281
f 261 281 282
f 282 281 302
f 282 302 303
f 302 281 301
f 301 281 280
f 301 280 300
f 300 280 279
f 300 279 299
f 299 279 278
f 278 279 258
f 278 258 257
f 278 257 277
f 277 257 256
f 258 279 259
f 259 279 280
f 259 280 260
f 260 280 281
g back_left_panel
v 0.00000 0.58387 -0.25000
v 0.03769 0.74471 -0.27033
v 0.07782 0.67772 -0.22864
v 0.10972 0.62427 -0.18352
v 0.15282 0.59437 -0.14215
v 0.18045 0.59224 -0.09133
v 0.18790 0.73008 -0.06485
v 0.17756 0.80536 -0.06476
v 0.17440 0.88061 -0.06526
v 0.17640 0.95726 -0.06431
v 0.18764 1.03471 -0.06713
v 0.18421 1.09487 -0.06500
v 0.21499 1.09367 -0.11646
v 0.20022 1.12136 -0.12005
v 0.18605 1.13457 -0.11743
v 0.17387 1.16233 -0.13289
v 0.17939 1.19811 -0.15314
v 0.20849 1.24060 -0.15932
v 0.22107 1.29164 -0.11695
v 0.22020 1.12916 0.00853
v 0.23316 1.29362 -0.07724
v 0.20815 1.32416 -0.08587
v 0.15917 1.34932 -0.08858
v 0.10303 1.37272 -0.08204
v 0.08329 1.35857 -0.08371
v 0.08913 1.38033 -0.09661
v 0.06985 1.38099 -0.11093
v 0.04226 1.39506 -0.16188
v 0.03770 1.41307 -0.20134
v 0.02310 1.09906 -0.17776
v -0.01023 0.82833 -0.31519
v 0.00916 0.77114 -0.28264
v 0.03480 0.75821 -0.28192
v 0.02996 0.74928 -0.25218
v 0.04775 0.76579 -0.22391
v 0.06721 0.79708 -0.19593
v 0.06906 0.85192 -0.18450
v 0.05639 0.88943 -0.19701
v 0.04886 0.92249 -0.20310
v 0.04407 0.95330 -0.20448
v 0.04159 0.98219 -0.20178
v 0.03963 1.00883 -0.19751
v 0.03436 1.03250 -0.19581
v 0.03794 1.05090 -0.18656
v 0.03561 1.05574 -0.21499
v 0.03441 1.06495 -0.24632
v 0.04361 1.08097 -0.27668
v 0.05969 1.11079 -0.29489
v 0.06786 1.15216 -0.30069
v 0.06559 1.19789 -0.29076
v 0.04933 1.21799 -0.25955
v 0.03572 1.24189 -0.23453
v 0.03668 1.27957 -0.20903
v 0.03562 1.31499 -0.19112
v 0.03454 1.35119 -0.19069
v 0.02409 0.72883 -0.25978
v 0.05509 0.72299 -0.26522
v 0.04755 0.72466 -0.23586
v 0.06272 0.75176 -0.21537
v 0.06793 0.79192 -0.21328
v 0.06596 0.82809 -0.20667
v 0.05998 0.86144 -0.21059
v 0.05541 0.89301 -0.21323
v 0.05314 0.92301 -0.21219
v 0.05173 0.95111 -0.20934
v 0.04946 0.97713 -0.20801
v 0.04692 0.99895 -0.19917
v 0.05265 1.02017 -0.20403
v 0.04757 1.03048 -0.22954
v 0.05522 1.05023 -0.25083
v 0.06132 1.08032 -0.26022
v 0.06575 1.11244 -0.26881
v 0.06683 1.14623 -0.27056
v 0.06202 1.17574 -0.26137
v 0.05011 1.19763 -0.23922
v 0.05160 1.22560 -0.22140
v 0.05234 1.26053 -0.19710
v 0.05124 1.29442 -0.18760
v 0.05929 1.34066 -0.18120
v 0.04341 0.69512 -0.24682
v 0.06951 0.68957 -0.24804
v 0.07075 0.70837 -0.22678
v 0.07913 0.73942 -0.22379
v 0.07662 0.77183 -0.22010
v 0.07317 0.80482 -0.21898
v 0.07055 0.83669 -0.21937
v 0.06892 0.86750 -0.21834
v 0.06786 0.89687 -0.21667
v 0.06679 0.92449 -0.21522
v 0.06553 0.94995 -0.21208
v 0.06551 0.97375 -0.21007
v 0.06791 0.99543 -0.21967
v 0.07351 1.01712 -0.23333
v 0.07618 1.04527 -0.23613
v 0.07677 1.07442 -0.24123
v 0.07690 1.10424 -0.24541
v 0.07595 1.13351 -0.24456
v 0.07481 1.16151 -0.23739
v 0.07576 1.19031 -0.22945
v 0.07764 1.21907 -0.21640
v 0.07990 1.25247 -0.19547
v 0.08449 1.28832 -0.18865
v 0.10746 1.34434 -0.16530
v 0.06554 0.65440 -0.23417
v 0.08812 0.66911 -0.22705
v 0.09441 0.69459 -0.22064
v 0.09655 0.72398 -0.21901
v 0.09395 0.75492 -0.21794
v 0.09141 0.78637 -0.21725
v 0.08975 0.81745 -0.21644
v 0.08879 0.84757 -0.21563
v 0.08823 0.87645 -0.21496
v 0.08790 0.90403 -0.21428
v 0.08813 0.93049 -0.21409
v 0.09000 0.95618 -0.21600
v 0.09415 0.98218 -0.21904
v 0.09720 1.01006 -0.22053
v 0.09762 1.03914 -0.22143
v 0.09635 1.06842 -0.22329
v 0.09552 1.09762 -0.22444
v 0.09683 1.12671 -0.22359
v 0.09984 1.15629 -0.22158
v 0.10285 1.18658 -0.21882
v 0.10502 1.21658 -0.20791
v 0.11009 1.24936 -0.19015
v 0.12449 1.28731 -0.18076
v 0.14251 1.33662 -0.14639
v 0.09738 0.63519 -0.21958
v 0.11293 0.65684 -0.20972
v 0.11650 0.68474 -0.20653
v 0.11668 0.71441 -0.20533
v 0.11496 0.74480 -0.20498
v 0.11331 0.77530 -0.20471
v 0.11230 0.80543 -0.20440
v 0.11188 0.83491 -0.20416
v 0.11193 0.86367 -0.20403
v 0.11252 0.89184 -0.20404
v 0.11383 0.91971 -0.20411
v 0.11593 0.94772 -0.20411
v 0.11821 0.97644 -0.20389
v 0.11948 1.00593 -0.20370
v 0.11926 1.03566 -0.20409
v 0.11818 1.06517 -0.20503
v 0.11827 1.09452 -0.20567
v 0.12088 1.12403 -0.20574
v 0.12461 1.15418 -0.20509
v 0.12793 1.18489 -0.20319
v 0.13068 1.21538 -0.19384
v 0.13832 1.24780 -0.17903
v 0.15414 1.28441 -0.16476
v 0.16695 1.32443 -0.13183
v 0.13025 0.62302 -0.20079
v 0.13531 0.65087 -0.18957
v 0.13696 0.68008 -0.18706
v 0.13670 0.70998 -0.18611
v 0.13567 0.74003 -0.18574
v 0.13472 0.76990 -0.18547
v 0.13422 0.79948 -0.18528
v 0.13419 0.82875 -0.18518
v 0.13456 0.85775 -0.18514
v 0.13536 0.88665 -0.18503
v 0.13650 0.91567 -0.18449
v 0.13784 0.94499 -0.18370
v 0.13896 0.97470 -0.18294
v 0.13945 1.00461 -0.18269
v 0.13920 1.03436 -0.18325
v 0.13868 1.06383 -0.18437
v 0.13926 1.09321 -0.18540
v 0.14181 1.12275 -0.18639
v 0.14526 1.15305 -0.18605
v 0.14837 1.18379 -0.18426
v 0.15137 1.21437 -0.17635
v 0.16109 1.24681 -0.16822
v 0.17786 1.28253 -0.15153
v 0.19063 1.32067 -0.12105
v 0.14829 0.61895 -0.17273
v 0.15351 0.64888 -0.16608
v 0.15434 0.67914 -0.16354
v 0.15399 0.70926 -0.16200
v 0.15352 0.73900 -0.16122
v 0.15293 0.76846 -0.16066
v 0.15265 0.79780 -0.16045
v 0.15274 0.82716 -0.16043
v 0.15311 0.85653 -0.16045
v 0.15376 0.88601 -0.16034
v 0.15435 0.91579 -0.15940
v 0.15501 0.94569 -0.15842
v 0.15551 0.97571 -0.15767
v 0.15572 1.00553 -0.15767
v 0.15559 1.03490 -0.15866
v 0.15554 1.06381 -0.16075
v 0.15625 1.09276 -0.16272
v 0.15880 1.12173 -0.16519
v 0.16265 1.15168 -0.16516
v 0.16607 1.18172 -0.16365
v 0.16843 1.21193 -0.15770
v 0.17682 1.24342 -0.16294
v 0.20710 1.28732 -0.14543
v 0.16588 0.61944 -0.14600
v 0.16734 0.65075 -0.13958
v 0.16756 0.68132 -0.13628
v 0.16702 0.71118 -0.13369
v 0.16705 0.74028 -0.13264
v 0.16616 0.76949 -0.13175
v 0.16555 0.79898 -0.13164
v 0.16565 0.82870 -0.13175
v 0.16585 0.85845 -0.13193
v 0.16628 0.88831 -0.13204
v 0.16639 0.91854 -0.13067
v 0.16668 0.94875 -0.12982
v 0.16742 0.97891 -0.12928
v 0.16795 1.00848 -0.12970
v 0.16734 1.03701 -0.13119
v 0.16903 1.06447 -0.13578
v 0.17038 1.09245 -0.13921
v 0.16963 1.12072 -0.14157
v 0.18250 1.14701 -0.14766
v 0.17264 1.17551 -0.14147
v 0.17361 1.20145 -0.15383
v 0.17490 0.62095 -0.12001
v 0.17714 0.65479 -0.11106
v 0.17725 0.68555 -0.10655
v 0.17767 0.71459 -0.10299
v 0.17670 0.74239 -0.10195
v 0.17447 0.77236 -0.10100
v 0.17268 0.80246 -0.10101
v 0.17277 0.83272 -0.10114
v 0.17228 0.86290 -0.10155
v 0.17250 0.89185 -0.10183
v 0.17297 0.92320 -0.10008
v 0.17320 0.95345 -0.09952
v 0.17573 0.98432 -0.09935
v 0.17782 1.01339 -0.10022
v 0.17482 1.04025 -0.10237
v 0.18379 1.06352 -0.11323
v 0.18269 1.09027 -0.11580
v 0.18790 1.11315 -0.12795
f 494 495 515
f 494 515 516
f 494 516 517
f 494 517 518
f 494 518 519
f 494 519 520
f 494 520 493
f 489 491 568
f 489 568 592
f 489 592 488
f 487 488 640
f 487 640 663
f 487 663 486
f 486 663 484
f 478 479 701
f 478 701 700
f 478 700 476
f 471 472 686
f 471 686 685
f 471 685 470
f 470 685 664
f 470 664 641
f 470 641 469
f 469 641 617
f 469 617 593
f 469 593 468
f 468 593 569
f 468 569 545
f 468 545 467
f 467 545 521
f 467 521 497
f 467 497 496
f 496 497 498
f 496 498 499
f 496 499 500
f 496 500 501
f 496 501 502
f 496 502 495
f 495 502 503
f 495 503 504
f 495 504 505
f 495 505 506
f 495 506 507
f 495 507 508
f 495 508 509
f 495 509 510
f 495 510 511
f 495 511 512
f 495 512 513
f 495 513 514
f 495 514 515
f 515 514 538
f 515 538 539
f 515 539 516
f 516 539 540
f 516 540 517
f 517 540 541
f 517 541 518
f 518 541 542
f 518 542 519
f 519 542 543
f 519 543 520
f 520 543 544
f 520 544 492
f 520 492 493
f 492 544 491
f 491 544 568
f 568 544 567
f 568 567 591
f 568 591 592
f 592 591 615
f 592 615 616
f 592 616 488
f 488 616 640
f 640 616 639
f 640 639 663
f 663 639 662
f 663 662 483
f 663 483 484
f 479 480 702
f 479 702 701
f 701 702 681
f 701 681 680
f 701 680 700
f 700 680 679
f 700 679 699
f 700 699 476
f 476 699 698
f 476 698 697
f 476 697 475
f 475 697 696
f 475 696 695
f 475 695 474
f 474 695 694
f 474 694 693
f 474 693 692
f 474 692 473
f 473 692 691
f 473 691 690
f 473 690 472
f 472 690 689
f 472 689 688
f 472 688 687
f 472 687 686
f 686 687 666
f 686 666 665
f 686 665 685
f 685 665 664
f 664 665 642
f 664 642 641
f 641 642 618
f 641 618 617
f 617 618 594
f 617 594 593
f 593 594 570
f 593 570 569
f 569 570 546
f 569 546 545
f 545 546 522
f 545 522 521
f 521 522 498
f 521 498 497
f 498 522 499
f 499 522 523
f 499 523 500
f 500 523 524
f 500 524 501
f 501 524 525
f 501 525 502
f 502 525 526
f 502 526 503
f 503 526 527
f 503 527 504
f 504 527 528
f 504 528 505
f 505 528 529
f 505 529 506
f 506 529 530
f 506 530 507
f 507 530 531
f 507 531 508
f 508 531 532
f 508 532 509
f 509 532 533
f 509 533 510
f 510 533 534
f 510 534 511
f 511 534 535
f 511 535 512
f 512 535 536
f 512 536 513
f 513 536 537
f 513 537 514
f 514 537 538
f 538 537 561
f 538 561 562
f 538 562 539
f 539 562 563
f 539 563 540
f 540 563 564
f 540 564 541
f 541 564 565
f 541 565 542
f 542 565 566
f 542 566 543
f 543 566 567
f 543 567 544
f 567 566 590
f 567 590 591
f 591 590 614
f 591 614 615
f 615 614 638
f 615 638 639
f 615 639 616
f 639 638 662
f 662 638 661
f 662 661 684
f 662 684 483
f 483 684 482
f 480 481 682
f 480 682 702
f 702 682 681
f 681 682 659
f 681 659 658
f 681 658 680
f 680 658 657
f 680 657 679
f 679 657 656
f 679 656 678
f 679 678 699
f 699 678 698
f 698 678 677
f 698 677 697
f 697 677 676
f 697 676 696
f 696 676 675
f 696 675 695
f 695 675 674
f 695 674 694
f 694 674 673
f 694 673 693
f 693 673 672
f 693 672 692
f 692 672 671
f 692 671 691
f 691 671 670
f 691 670 690
f 690 670 669
f 690 669 689
f 689 669 668
f 689 668 688
f 688 668 667
f 688 667 687
f 687 667 666
f 666 667 644
f 666 644 643
f 666 643 665
f 665 643 642
f 642 643 619
f 642 619 618
f 618 619 595
f 618 595 594
f 594 595 571
f 594 571 570
f 570 571 547
f 570 547 546
f 546 547 523
f 546 523 522
f 523 547 524
f 524 547 548
f 524 548 525
f 525 548 549
f 525 549 526
f 526 549 550
f 526 550 527
f 527 550 551
f 527 551 528
f 528 551 552
f 528 552 529
f 529 552 553
f 529 553 530
f 530 553 554
f 530 554 531
f 531 554 555
f 531 555 532
f 532 555 556
f 532 556 533
f 533 556 557
f 533 557 534
f 534 557 558
f 534 558 535
f 535 558 559
f 535 559 536
f 536 559 560
f 536 560 537
f 537 560 561
f 561 560 584
f 561 584 585
f 561 585 562
f 562 585 586
f 562 586 563
f 563 586 587
f 563 587 564
f 564 587 588
f 564 588 565
f 565 588 589
f 565 589 566
f 566 589 590
f 590 589 613
f 590 613 614
f 614 613 637
f 614 637 638
f 638 637 661
f 661 637 660
f 661 660 683
f 661 683 684
f 684 683 481
f 684 481 482
f 481 683 682
f 682 683 660
f 682 660 659
f 659 660 636
f 659 636 635
f 659 635 658
f 658 635 634
f 658 634 657
f 657 634 633
f 657 633 656
f 656 633 632
f 656 632 655
f 656 655 678
f 678 655 677
f 677 655 654
f 677 654 676
f 676 654 653
f 676 653 675
f 675 653 652
f 675 652 674
f 674 652 651
f 674 651 673
f 673 651 650
f 673 650 672
f 672 650 649
f 672 649 671
f 671 649 648
f 671 648 670
f 670 648 647
f 670 647 669
f 669 647 646
f 669 646 668
f 668 646 645
f 668 645 667
f 667 645 644
f 644 645 621
f 644 621 620
f 644 620 643
f 643 620 619
f 619 620 596
f 619 596 595
f 595 596 572
f 595 572 571
f 571 572 548
f 571 548 547
f 548 572 549
f 549 572 573
f 549 573 550
f 550 573 574
f 550 574 551
f 551 574 575
f 551 575 552
f 552 575 576
f 552 576 553
f 553 576 577
f 553 577 554
f 554 577 578
f 554 578 555
f 555 578 579
f 555 579 556
f 556 579 580
f 556 580 557
f 557 580 581
f 557 581 558
f 558 581 582
f 558 582 559
f 559 582 583
f 559 583 560
f 560 583 584
f 584 583 607
f 584 607 608
f 584 608 585
f 585 608 609
f 585 609 586
f 586 609 610
f 586 610 587
f 587 610 611
f 587 611 588
f 588 611 612
f 588 612 589
f 589 612 613
f 613 612 636
f 613 636 637
f 637 636 660
f 636 612 635
f 635 612 611
f 635 611 634
f 634 611 610
f 634 610 633
f 633 610 609
f 633 609 632
f 632 609 608
f 632 608 631
f 632 631 655
f 655 631 654
f 654 631 630
f 654 630 653
f 653 630 629
f 653 629 652
f 652 629 628
f 652 628 651
f 651 628 627
f 651 627 650
f 650 627 626
f 650 626 649
f 649 626 625
f 649 625 648
f 648 625 624
f 648 624 647
f 647 624 623
f 647 623 646
f 646 623 622
f 646 622 645
f 645 622 621
f 621 622 598
f 621 598 597
f 621 597 620
f 620 597 596
f 596 597 573
f 596 573 572
f 573 597 574
f 574 597 598
f 574 598 575
f 575 598 599
f 575 599 576
f 576 599 600
f 576 600 577
f 577 600 601
f 577 601 578
f 578 601 602
f 578 602 579
f 579 602 603
f 579 603 580
f 580 603 604
f 580 604 581
f 581 604 605
f 581 605 582
f 582 605 606
f 582 606 583
f 583 606 607
f 607 606 630
f 607 630 631
f 607 631 608
f 630 606 629
f 629 606 605
f 629 605 628
f 628 605 604
f 628 604 627
f 627 604 603
f 627 603 626
f 626 603 602
f 626 602 625
f 625 602 601
f 625 601 624
f 624 601 600
f 624 600 623
f 623 600 599
f 623 599 622
f 622 599 598
g back_right_panel
v 0.00000 0.58387 -0.25000
v -0.01023 0.82833 -0.31519
v 0.02279 1.09886 -0.17934
v -0.02352 1.17407 -0.19125
v -0.05772 1.29767 -0.19055
v -0.06847 1.33630 -0.17222
v -0.08836 1.36674 -0.08522
v -0.09313 1.35413 -0.14764
v -0.16805 1.35948 -0.09885
v -0.23557 1.31513 -0.07293
v -0.21369 1.32379 -0.08098
v -0.24375 1.24458 -0.04045
v -0.24102 1.29464 -0.14493
v -0.21772 1.23534 -0.15517
v -0.18265 1.18918 -0.15587
v -0.17284 1.15016 -0.12440
v -0.18588 1.12165 -0.10117
v -0.18930 1.10131 -0.08799
v -0.20826 1.10377 -0.05699
v -0.18092 1.05493 -0.06224
v -0.17464 0.97578 -0.06012
v -0.17425 0.89642 -0.06061
v -0.18094 0.82200 -0.05885
v -0.18873 0.75075 -0.06156
v -0.19423 0.68136 -0.06975
v -0.17871 0.55559 -0.10713
v -0.17580 0.57920 -0.15301
v -0.14109 0.58406 -0.18929
v -0.10292 0.58474 -0.22140
v -0.06624 0.58053 -0.25585
v -0.06003 0.53753 -0.21668
v -0.17452 0.59520 -0.11750
v -0.18018 0.62358 -0.11715
v -0.18051 0.65468 -0.11205
v -0.17940 0.68088 -0.10162
v -0.18413 0.70592 -0.09462
v -0.18284 0.73276 -0.09635
v -0.17903 0.76160 -0.09192
v -0.18313 0.78820 -0.09462
v -0.17837 0.82036 -0.09402
v -0.17506 0.84709 -0.08924
v -0.17862 0.87512 -0.09233
v -0.17399 0.90778 -0.09112
v -0.17478 0.93710 -0.09181
v -0.17503 0.97186 -0.09422
v -0.17251 1.00075 -0.09088
v -0.17467 1.03104 -0.09291
v -0.17685 1.06782 -0.09578
v -0.16550 0.60447 -0.14318
v -0.17042 0.63491 -0.14063
v -0.17066 0.66434 -0.13563
v -0.16914 0.69083 -0.12798
v -0.17076 0.71751 -0.12532
v -0.17252 0.74589 -0.12530
v -0.16973 0.77399 -0.12395
v -0.17331 0.80282 -0.12490
v -0.17124 0.83284 -0.12392
v -0.16836 0.86152 -0.12223
v -0.17153 0.89141 -0.12303
v -0.16903 0.92194 -0.12311
v -0.16945 0.95249 -0.12354
v -0.16952 0.98396 -0.12482
v -0.16707 1.01369 -0.12404
v -0.16782 1.04412 -0.12466
v -0.16771 1.07489 -0.12605
v -0.17328 1.10317 -0.12733
v -0.18024 1.13443 -0.13214
v -0.17245 1.16492 -0.13628
v -0.15611 0.61183 -0.16575
v -0.15738 0.64144 -0.16311
v -0.15799 0.67023 -0.15943
v -0.15806 0.69784 -0.15527
v -0.15878 0.72599 -0.15383
v -0.15960 0.75475 -0.15397
v -0.15904 0.78393 -0.15324
v -0.16040 0.81346 -0.15318
v -0.16027 0.84346 -0.15285
v -0.15922 0.87340 -0.15188
v -0.16008 0.90350 -0.15245
v -0.15902 0.93387 -0.15288
v -0.15837 0.96398 -0.15366
v -0.15757 0.99389 -0.15502
v -0.15579 1.02316 -0.15513
v -0.15523 1.05228 -0.15594
v -0.15495 1.08171 -0.15671
v -0.15809 1.11120 -0.15709
v -0.16470 1.14076 -0.16082
v -0.16200 1.17115 -0.15741
v -0.17098 1.20032 -0.15445
v -0.18776 1.23160 -0.16233
v -0.23965 1.27596 -0.13862
v -0.14098 0.61415 -0.18574
v -0.14182 0.64414 -0.18385
v -0.14239 0.67327 -0.18188
v -0.14286 0.70194 -0.17997
v -0.14320 0.73096 -0.17943
v -0.14366 0.76041 -0.17928
v -0.14412 0.79024 -0.17886
v -0.14489 0.82026 -0.17831
v -0.14523 0.85065 -0.17812
v -0.14500 0.88102 -0.17799
v -0.14456 0.91123 -0.17844
v -0.14315 0.94120 -0.17946
v -0.14099 0.97039 -0.18075
v -0.13872 0.99884 -0.18208
v -0.13685 1.02687 -0.18267
v -0.13589 1.05508 -0.18324
v -0.13622 1.08391 -0.18357
v -0.13898 1.11336 -0.18364
v -0.14275 1.14355 -0.18463
v -0.14505 1.17520 -0.18244
v -0.15339 1.20761 -0.17586
v -0.17154 1.24034 -0.16734
v -0.19886 1.27844 -0.15088
v -0.12334 0.61557 -0.20334
v -0.12334 0.64513 -0.20256
v -0.12348 0.67437 -0.20171
v -0.12374 0.70346 -0.20096
v -0.12406 0.73288 -0.20072
v -0.12481 0.76258 -0.20042
v -0.12569 0.79263 -0.20004
v -0.12700 0.82281 -0.19936
v -0.12733 0.85344 -0.19925
v -0.12673 0.88399 -0.19961
v -0.12534 0.91386 -0.20036
v -0.12201 0.94272 -0.20175
v -0.11754 0.97001 -0.20321
v -0.11415 0.99639 -0.20418
v -0.11263 1.02308 -0.20449
v -0.11225 1.05061 -0.20470
v -0.11324 1.07924 -0.20477
v -0.11597 1.10917 -0.20462
v -0.11912 1.14045 -0.20416
v -0.12301 1.17287 -0.20137
v -0.13216 1.20594 -0.19360
v -0.14689 1.23852 -0.17931
v -0.16326 1.27422 -0.16338
v -0.18652 1.32108 -0.13475
v -0.10305 0.61480 -0.21877
v -0.10205 0.64450 -0.21869
v -0.10160 0.67362 -0.21832
v -0.10184 0.70276 -0.21798
v -0.10247 0.73227 -0.21776
v -0.10352 0.76205 -0.21764
v -0.10501 0.79195 -0.21710
v -0.10721 0.82188 -0.21623
v -0.10694 0.85256 -0.21563
v -0.10590 0.88276 -0.21715
v -0.10320 0.91137 -0.21828
v -0.09621 0.93785 -0.21901
v -0.08944 0.96190 -0.22074
v -0.08726 0.98594 -0.22177
v -0.08766 1.01118 -0.22169
v -0.08836 1.03801 -0.22129
v -0.09000 1.06662 -0.22109
v -0.09267 1.09717 -0.22116
v -0.09607 1.12929 -0.22129
v -0.10101 1.16222 -0.21901
v -0.10921 1.19625 -0.21098
v -0.12012 1.23356 -0.19675
v -0.13334 1.27205 -0.18294
v -0.14918 1.32011 -0.15919
v -0.07977 0.61303 -0.23054
v -0.07794 0.64180 -0.23131
v -0.07781 0.67032 -0.23105
v -0.07845 0.69935 -0.23094
v -0.07980 0.72914 -0.23061
v -0.07794 0.75881 -0.22634
v -0.08275 0.78690 -0.22788
v -0.08611 0.81683 -0.22648
v -0.09392 0.84686 -0.23587
v -0.08608 0.87582 -0.23273
v -0.08038 0.90342 -0.23323
v -0.06667 0.92532 -0.23095
v -0.06115 0.94611 -0.23843
v -0.06420 0.96759 -0.24020
v -0.06568 0.99158 -0.23748
v -0.06718 1.01829 -0.23603
v -0.06964 1.04741 -0.23597
v -0.07337 1.07886 -0.23835
v -0.07939 1.11184 -0.24213
v -0.08612 1.14618 -0.24130
v -0.09217 1.18246 -0.23175
v -0.09761 1.22349 -0.21540
v -0.09506 1.25494 -0.19924
v -0.11922 1.30034 -0.19645
v -0.05637 0.60571 -0.23887
v -0.05383 0.63316 -0.23877
v -0.05575 0.66107 -0.23943
v -0.05592 0.69040 -0.23898
v -0.06118 0.71806 -0.23825
v -0.08755 0.73933 -0.23559
v -0.09768 0.76954 -0.23332
v -0.09543 0.80264 -0.24036
v -0.07486 0.83315 -0.23490
v -0.06369 0.86574 -0.22960
v -0.05915 0.88918 -0.24878
v -0.03775 0.90567 -0.24539
v -0.04325 0.92113 -0.26354
v -0.04704 0.94122 -0.25819
v -0.04731 0.96565 -0.25329
v -0.05049 0.99316 -0.25166
v -0.05452 1.02352 -0.25356
v -0.06208 1.05609 -0.26011
v -0.07395 1.09051 -0.26939
v -0.08200 1.12962 -0.26873
v -0.08245 1.17149 -0.25492
v -0.07369 1.21459 -0.23047
v -0.06692 1.22683 -0.20198
v -0.03238 1.24347 -0.19778
v -0.04001 0.58519 -0.23362
v -0.04642 0.61152 -0.23862
v -0.04527 0.64056 -0.23941
v -0.05612 0.66927 -0.23946
v -0.07865 0.69686 -0.23290
v -0.10829 0.72151 -0.21785
v -0.11699 0.76620 -0.21636
v -0.10966 0.80799 -0.22158
v -0.09515 0.84047 -0.23689
v -0.06356 0.85020 -0.24941
v -0.04078 0.86737 -0.26389
v -0.01855 0.87850 -0.27315
v -0.03340 0.88915 -0.28790
v -0.03033 0.90932 -0.27448
v -0.03505 0.93506 -0.27083
v -0.03897 0.96374 -0.26871
v -0.04610 0.99521 -0.27299
v -0.05956 1.02915 -0.28399
v -0.08479 1.06726 -0.30493
v -0.09137 1.13386 -0.29845
v -0.07449 1.17776 -0.27755
v -0.04866 1.19656 -0.23193
v -0.03629 1.18922 -0.19247
v 0.00331 1.19303 -0.18599
f 714 715 793
f 714 793 712
f 712 793 816
f 712 816 840
f 712 840 711
f 710 711 888
f 710 888 708
f 705 706 936
f 705 936 935
f 705 935 934
f 705 934 933
f 705 933 932
f 705 932 931
f 705 931 704
f 733 704 918
f 733 918 917
f 733 917 916
f 733 916 915
f 733 915 914
f 733 914 913
f 733 913 732
f 732 913 889
f 732 889 865
f 732 865 731
f 731 865 841
f 731 841 817
f 731 817 730
f 730 817 794
f 730 794 771
f 730 771 729
f 729 771 751
f 729 751 734
f 729 734 728
f 728 734 735
f 728 735 727
f 727 735 736
f 727 736 737
f 727 737 738
f 727 738 739
f 727 739 726
f 726 739 740
f 726 740 741
f 726 741 725
f 725 741 742
f 725 742 743
f 725 743 744
f 725 744 724
f 724 744 745
f 724 745 746
f 724 746 723
f 723 746 747
f 723 747 748
f 723 748 749
f 723 749 722
f 722 749 750
f 722 750 720
f 720 750 768
f 720 768 719
f 715 716 793
f 793 716 792
f 793 792 815
f 793 815 816
f 816 815 838
f 816 838 839
f 816 839 840
f 840 839 863
f 840 863 864
f 840 864 711
f 711 864 888
f 888 864 887
f 888 887 911
f 888 911 912
f 888 912 708
f 708 912 707
f 707 912 936
f 707 936 706
f 936 912 935
f 935 912 911
f 935 911 934
f 934 911 910
f 934 910 933
f 933 910 909
f 933 909 932
f 932 909 908
f 932 908 931
f 931 908 907
f 931 907 930
f 931 930 704
f 704 930 929
f 704 929 928
f 704 928 927
f 704 927 926
f 704 926 925
f 704 925 924
f 704 924 923
f 704 923 922
f 704 922 921
f 704 921 920
f 704 920 919
f 704 919 918
f 918 919 895
f 918 895 894
f 918 894 917
f 917 894 893
f 917 893 916
f 916 893 892
f 916 892 915
f 915 892 891
f 915 891 914
f 914 891 890
f 914 890 913
f 913 890 889
f 889 890 866
f 889 866 865
f 865 866 842
f 865 842 841
f 841 842 818
f 841 818 817
f 817 818 795
f 817 795 794
f 794 795 772
f 794 772 771
f 771 772 752
f 771 752 751
f 751 752 735
f 751 735 734
f 735 752 736
f 736 752 753
f 736 753 737
f 737 753 754
f 737 754 738
f 738 754 755
f 738 755 739
f 739 755 756
f 739 756 740
f 740 756 757
f 740 757 741
f 741 757 758
f 741 758 742
f 742 758 759
f 742 759 743
f 743 759 760
f 743 760 744
f 744 760 761
f 744 761 745
f 745 761 762
f 745 762 746
f 746 762 763
f 746 763 747
f 747 763 764
f 747 764 748
f 748 764 765
f 748 765 749
f 749 765 766
f 749 766 750
f 750 766 767
f 750 767 768
f 768 767 787
f 768 787 788
f 768 788 769
f 768 769 719
f 719 769 718
f 716 717 792
f 792 717 791
f 792 791 814
f 792 814 815
f 815 814 837
f 815 837 838
f 838 837 861
f 838 861 862
f 838 862 839
f 839 862 863
f 863 862 886
f 863 886 887
f 863 887 864
f 887 886 910
f 887 910 911
f 910 886 909
f 909 886 885
f 909 885 908
f 908 885 884
f 908 884 907
f 907 884 883
f 907 883 906
f 907 906 930
f 930 906 929
f 929 906 905
f 929 905 928
f 928 905 904
f 928 904 927
f 927 904 903
f 927 903 926
f 926 903 902
f 926 902 925
f 925 902 901
f 925 901 924
f 924 901 900
f 924 900 923
f 923 900 899
f 923 899 922
f 922 899 898
f 922 898 921
f 921 898 897
f 921 897 920
f 920 897 896
f 920 896 919
f 919 896 895
f 895 896 872
f 895 872 871
f 895 871 894
f 894 871 870
f 894 870 893
f 893 870 869
f 893 869 892
f 892 869 868
f 892 868 891
f 891 868 867
f 891 867 890
f 890 867 866
f 866 867 843
f 866 843 842
f 842 843 819
f 842 819 818
f 818 819 796
f 818 796 795
f 795 796 773
f 795 773 772
f 772 773 753
f 772 753 752
f 753 773 754
f 754 773 774
f 754 774 755
f 755 774 775
f 755 775 756
f 756 775 776
f 756 776 757
f 757 776 777
f 757 777 758
f 758 777 778
f 758 778 759
f 759 778 779
f 759 779 760
f 760 779 780
f 760 780 761
f 761 780 781
f 761 781 762
f 762 781 782
f 762 782 763
f 763 782 783
f 763 783 764
f 764 783 784
f 764 784 765
f 765 784 785
f 765 785 766
f 766 785 786
f 766 786 767
f 767 786 787
f 787 786 809
f 787 809 810
f 787 810 788
f 788 810 811
f 788 811 789
f 788 789 769
f 769 789 770
f 769 770 718
f 718 770 717
f 717 770 791
f 791 770 790
f 791 790 813
f 791 813 814
f 814 813 836
f 814 836 837
f 837 836 860
f 837 860 861
f 861 860 884
f 861 884 885
f 861 885 862
f 862 885 886
f 884 860 883
f 883 860 859
f 883 859 882
f 883 882 906
f 906 882 905
f 905 882 881
f 905 881 904
f 904 881 880
f 904 880 903
f 903 880 879
f 903 879 902
f 902 879 878
f 902 878 901
f 901 878 877
f 901 877 900
f 900 877 876
f 900 876 899
f 899 876 875
f 899 875 898
f 898 875 874
f 898 874 897
f 897 874 873
f 897 873 896
f 896 873 872
f 872 873 849
f 872 849 848
f 872 848 871
f 871 848 847
f 871 847 870
f 870 847 846
f 870 846 869
f 869 846 845
f 869 845 868
f 868 845 844
f 868 844 867
f 867 844 843
f 843 844 820
f 843 820 819
f 819 820 797
f 819 797 796
f 796 797 774
f 796 774 773
f 774 797 775
f 775 797 798
f 775 798 776
f 776 798 799
f 776 799 777
f 777 799 800
f 777 800 778
f 778 800 801
f 778 801 779
f 779 801 802
f 779 802 780
f 780 802 803
f 780 803 781
f 781 803 804
f 781 804 782
f 782 804 805
f 782 805 783
f 783 805 806
f 783 806 784
f 784 806 807
f 784 807 785
f 785 807 808
f 785 808 786
f 786 808 809
f 809 808 831
f 809 831 832
f 809 832 810
f 810 832 833
f 810 833 811
f 811 833 834
f 811 834 812
f 811 812 789
f 789 812 790
f 789 790 770
f 790 812 813
f 813 812 835
f 813 835 836
f 836 835 859
f 836 859 860
f 859 835 858
f 859 858 882
f 882 858 881
f 881 858 857
f 881 857 880
f 880 857 856
f 880 856 879
f 879 856 855
f 879 855 878
f 878 855 854
f 878 854 877
f 877 854 853
f 877 853 876
f 876 853 852
f 876 852 875
f 875 852 851
f 875 851 874
f 874 851 850
f 874 850 873
f 873 850 849
f 849 850 826
f 849 826 825
f 849 825 848
f 848 825 824
f 848 824 847
f 847 824 823
f 847 823 846
f 846 823 822
f 846 822 845
f 845 822 821
f 845 821 844
f 844 821 820
f 820 821 798
f 820 798 797
f 798 821 799
f 799 821 822
f 799 822 800
f 800 822 823
f 800 823 801
f 801 823 824
f 801 824 802
f 802 824 825
f 802 825 803
f 803 825 826
f 803 826 804
f 804 826 827
f 804 827 805
f 805 827 828
f 805 828 806
f 806 828 829
f 806 829 807
f 807 829 830
f 807 830 808
f 808 830 831
f 831 830 854
f 831 854 855
f 831 855 832
f 832 855 856
f 832 856 833
f 833 856 857
f 833 857 834
f 834 857 858
f 834 858 835
f 834 835 812
f 854 830 853
f 853 830 829
f 853 829 852
f 852 829 828
f 852 828 851
f 851 828 827
f 851 827 850
f 850 827 826
g left_sleeve
v 0.30482 1.01707 -0.15268
v 0.35920 1.04795 -0.15417
v 0.38192 1.05309 -0.08550
v 0.34877 1.02773 -0.04538
v 0.31213 1.00521 -0.02650
v 0.27338 0.98489 -0.04114
v 0.25608 0.97764 -0.08232
v 0.27392 0.98829 -0.12393
v 0.30299 1.01548 -0.15050
v 0.28468 1.03308 -0.14468
v 0.27081 1.05419 -0.16141
v 0.27165 1.08314 -0.16716
v 0.27077 1.11519 -0.15045
v 0.24673 1.11982 -0.19638
v 0.21781 1.10609 -0.12368
v 0.20089 1.09389 -0.05313
v 0.21952 1.13299 -0.04140
v 0.21681 1.16526 -0.02256
v 0.20215 1.18527 -0.00958
v 0.21001 1.21935 -0.00585
v 0.19009 1.22669 -0.02457
v 0.21652 1.23090 -0.03921
v 0.21686 1.16098 -0.01412
v 0.22576 1.12962 0.01973
v 0.22618 1.29177 -0.10715
v 0.20960 1.24172 -0.15928
v 0.17947 1.19806 -0.15379
v 0.17376 1.16224 -0.13336
v 0.18626 1.13473 -0.11735
v 0.20022 1.12136 -0.12005
v 0.21499 1.09367 -0.11646
v 0.21686 1.10521 -0.12513
v 0.23366 1.12062 -0.14711
v 0.26883 1.11421 -0.14789
v 0.27633 1.08556 -0.16086
v 0.27081 1.05419 -0.16141
v 0.28571 1.03383 -0.14360
v 0.30054 1.04171 -0.15481
v 0.28221 1.05960 -0.15168
v 0.26066 1.08173 -0.15229
v 0.24736 1.10197 -0.14788
v 0.22507 1.10493 -0.13824
v 0.32972 1.06053 -0.15090
v 0.30894 1.08022 -0.14834
v 0.28655 1.08892 -0.14763
v 0.24316 1.09135 -0.14623
v 0.21564 1.11112 -0.13347
v 0.19429 1.13323 -0.13289
v 0.35432 1.07631 -0.13366
v 0.32634 1.09361 -0.13781
v 0.29882 1.10389 -0.14602
v 0.26078 1.11590 -0.15541
v 0.22676 1.13293 -0.15363
v 0.20394 1.15928 -0.15386
v 0.36604 1.08182 -0.08699
v 0.34477 1.11189 -0.10496
v 0.31490 1.12982 -0.13084
v 0.28507 1.14066 -0.14306
v 0.25444 1.16280 -0.15466
v 0.23122 1.19034 -0.15760
v 0.34353 1.06805 -0.06458
v 0.33121 1.10623 -0.07228
v 0.31304 1.13508 -0.08928
v 0.29606 1.16246 -0.10315
v 0.27303 1.18979 -0.11701
v 0.25881 1.21755 -0.13061
v 0.32561 1.05885 -0.04957
v 0.30822 1.09402 -0.05992
v 0.29639 1.13204 -0.06767
v 0.28176 1.16919 -0.07731
v 0.26483 1.20371 -0.09126
v 0.25501 1.23859 -0.10983
v 0.30697 1.05066 -0.03735
v 0.29116 1.09081 -0.04707
v 0.27844 1.13206 -0.05273
v 0.26609 1.17485 -0.06149
v 0.25773 1.21787 -0.06717
v 0.25931 1.26371 -0.08159
v 0.25196 1.30534 -0.10126
v 0.28321 1.01510 -0.02766
v 0.26719 1.03261 -0.02800
v 0.25128 1.05084 -0.02841
v 0.23762 1.07099 -0.02355
v 0.22703 1.09338 -0.01449
v 0.22680 1.12175 -0.00938
v 0.26399 1.00554 -0.03697
v 0.25072 1.02552 -0.03619
v 0.23771 1.04722 -0.03644
v 0.22703 1.07159 -0.03567
v 0.22087 1.09786 -0.03095
v 0.21726 1.12650 -0.02692
v 0.25092 1.00367 -0.05270
v 0.23941 1.02901 -0.04721
v 0.22952 1.05649 -0.04200
v 0.22257 1.08570 -0.03640
v 0.21714 1.11607 -0.03247
v 0.21313 1.14837 -0.03577
v 0.24452 1.00573 -0.07288
v 0.23412 1.03531 -0.06294
v 0.22555 1.06682 -0.05323
v 0.21722 1.09877 -0.04394
v 0.21232 1.13280 -0.03750
v 0.21465 1.16855 -0.03023
v 0.24658 1.01149 -0.09612
v 0.23951 1.04459 -0.08153
v 0.22821 1.07792 -0.07132
v 0.21512 1.10895 -0.05849
v 0.21750 1.14852 -0.04791
v 0.21989 1.18351 -0.03922
v 0.26202 1.01842 -0.11335
v 0.23925 1.04882 -0.10353
v 0.22907 1.08370 -0.11012
v 0.22250 1.12264 -0.03474
v 0.23768 1.16355 -0.03486
v 0.24085 1.20015 -0.04421
v 0.35063 1.19750 -0.13030
v 0.31848 1.18067 -0.05178
f 967 968 978
f 967 978 966
f 966 978 984
f 966 984 965
f 965 984 964
f 964 984 990
f 964 990 963
f 963 990 996
f 963 996 962
f 962 996 1002
f 962 1002 961
f 961 1002 1008
f 961 1008 1015
f 961 1015 960
f 960 1015 1021
f 960 1021 959
f 959 1021 1027
f 959 1027 958
f 958 1027 1033
f 958 1033 1039
f 958 1039 957
f 957 1039 1045
f 957 1045 956
f 956 1045 1051
f 956 1051 955
f 955 1051 954
f 954 1051 1053
f 954 1053 953
f 953 1053 952
f 952 1053 950
f 945 946 1046
f 945 1046 944
f 944 1046 1040
f 944 1040 943
f 943 1040 1034
f 943 1034 1028
f 943 1028 942
f 942 1028 1022
f 942 1022 1016
f 942 1016 941
f 941 1016 1009
f 941 1009 940
f 940 1009 1003
f 940 1003 997
f 940 997 939
f 939 997 991
f 939 991 985
f 939 985 938
f 938 985 979
f 938 979 974
f 938 974 937
f 937 974 973
f 969 970 977
f 969 977 978
f 969 978 968
f 978 977 982
f 978 982 983
f 978 983 984
f 984 983 989
f 984 989 990
f 990 989 995
f 990 995 996
f 996 995 1001
f 996 1001 1002
f 1002 1001 1007
f 1002 1007 1008
f 1008 1007 1013
f 1008 1013 1014
f 1008 1014 1015
f 1015 1014 1021
f 1021 1014 1020
f 1021 1020 1026
f 1021 1026 1027
f 1027 1026 1032
f 1027 1032 1033
f 1033 1032 1038
f 1033 1038 1039
f 1039 1038 1044
f 1039 1044 1045
f 1045 1044 1050
f 1045 1050 1051
f 1051 1050 1053
f 1053 1050 1052
f 1053 1052 950
f 950 1052 949
f 947 948 1047
f 947 1047 1046
f 947 1046 946
f 1046 1047 1041
f 1046 1041 1040
f 1040 1041 1035
f 1040 1035 1034
f 1034 1035 1029
f 1034 1029 1028
f 1028 1029 1023
f 1028 1023 1022
f 1022 1023 1017
f 1022 1017 1016
f 1016 1017 1010
f 1016 1010 1009
f 1009 1010 1004
f 1009 1004 1003
f 1003 1004 998
f 1003 998 997
f 997 998 992
f 997 992 991
f 991 992 986
f 991 986 985
f 985 986 980
f 985 980 979
f 979 980 975
f 979 975 974
f 974 975 972
f 974 972 973
f 972 975 971
f 971 975 976
f 971 976 970
f 970 976 977
f 977 976 981
f 977 981 982
f 982 981 987
f 982 987 988
f 982 988 983
f 983 988 989
f 989 988 994
f 989 994 995
f 995 994 1000
f 995 1000 1001
f 1001 1000 1006
f 1001 1006 1007
f 1007 1006 1012
f 1007 1012 1013
f 1013 1012 1019
f 1013 1019 1020
f 1013 1020 1014
f 1020 1019 1025
f 1020 1025 1026
f 1026 1025 1031
f 1026 1031 1032
f 1032 1031 1037
f 1032 1037 1038
f 1038 1037 1043
f 1038 1043 1044
f 1044 1043 1049
f 1044 1049 1050
f 1050 1049 1052
f 1052 1049 1048
f 1052 1048 948
f 1052 948 949
f 948 1048 1047
f 1047 1048 1042
f 1047 1042 1041
f 1041 1042 1036
f 1041 1036 1035
f 1035 1036 1030
f 1035 1030 1029
f 1029 1030 1024
f 1029 1024 1023
f 1023 1024 1018
f 1023 1018 1017
f 1017 1018 1011
f 1017 1011 1010
f 1010 1011 1005
f 1010 1005 1004
f 1004 1005 999
f 1004 999 998
f 998 999 993
f 998 993 992
f 992 993 987
f 992 987 986
f 986 987 981
f 986 981 980
f 980 981 976
f 980 976 975
f 987 993 988
f 988 993 994
f 994 993 999
f 994 999 1000
f 1000 999 1005
f 1000 1005 1006
f 1006 1005 1011
f 1006 1011 1012
f 1012 1011 1018
f 1012 1018 1019
f 1019 1018 1024
f 1019 1024 1025
f 1025 1024 1030
f 1025 1030 1031
f 1031 1030 1036
f 1031 1036 1037
f 1037 1036 1042
f 1037 1042 1043
f 1043 1042 1048
f 1043 1048 1049
g right_sleeve
v -0.30493 1.01062 -0.03784
v -0.34245 1.03173 -0.05249
v -0.38329 1.05746 -0.08943
v -0.35791 1.04367 -0.15150
v -0.30872 1.01191 -0.15451
v -0.27073 0.99063 -0.13443
v -0.25340 0.97997 -0.09452
v -0.27184 0.98385 -0.05390
v -0.30493 1.01062 -0.03784
v -0.28838 1.03102 -0.03186
v -0.28313 1.06198 -0.02879
v -0.28127 1.09267 -0.03852
v -0.26121 1.11595 -0.04271
v -0.23004 1.12121 -0.05071
v -0.21778 1.10464 -0.05142
v -0.19919 1.12212 -0.02154
v -0.18099 1.14121 -0.02120
v -0.18790 1.16826 -0.01505
v -0.18243 1.19279 -0.00767
v -0.20032 1.21846 -0.00872
v -0.17485 1.21145 -0.01507
v -0.20186 1.22490 -0.02157
v -0.23716 1.22623 -0.04729
v -0.23247 1.23970 -0.04163
v -0.24506 1.29630 -0.14462
v -0.21744 1.23517 -0.15453
v -0.18283 1.18922 -0.15648
v -0.17208 1.14952 -0.12480
v -0.18588 1.12165 -0.10117
v -0.18930 1.10131 -0.08799
v -0.20826 1.10377 -0.05699
v -0.21778 1.10464 -0.05142
v -0.22998 1.12116 -0.05058
v -0.26121 1.11595 -0.04271
v -0.28127 1.09267 -0.03852
v -0.28313 1.06198 -0.02879
v -0.28838 1.03102 -0.03186
v -0.30182 1.04021 -0.04088
v -0.28686 1.06356 -0.04790
v -0.26714 1.08314 -0.05325
v -0.24811 1.09775 -0.05279
v -0.22324 1.09975 -0.06793
v -0.31882 1.05052 -0.05599
v -0.29745 1.06942 -0.06524
v -0.27799 1.08323 -0.05695
v -0.26665 1.08592 0.00336
v -0.17732 1.07477 -0.12973
v -0.18574 1.11797 -0.10447
v -0.34093 1.06503 -0.06063
v -0.32341 1.08946 -0.05422
v -0.32730 1.12734 -0.05002
v -0.29994 1.11236 -0.12926
v -0.21129 1.11548 -0.16411
v -0.19419 1.14536 -0.15110
v -0.36607 1.08607 -0.10226
v -0.34334 1.10902 -0.11167
v -0.31108 1.12149 -0.12727
v -0.27783 1.13439 -0.14398
v -0.25597 1.16087 -0.15439
v -0.23533 1.18900 -0.15530
v -0.34571 1.07549 -0.13137
v -0.31843 1.09699 -0.12777
v -0.29768 1.12565 -0.13104
v -0.27917 1.15577 -0.13267
v -0.26509 1.18802 -0.13158
v -0.26048 1.22186 -0.13025
v -0.32571 1.06664 -0.14474
v -0.30546 1.09766 -0.13748
v -0.28750 1.13236 -0.13562
v -0.27092 1.16792 -0.13352
v -0.25871 1.20534 -0.13607
v -0.25422 1.24205 -0.15034
v -0.30423 1.05698 -0.15452
v -0.28633 1.09452 -0.15471
v -0.26868 1.13147 -0.15830
v -0.26747 1.17775 -0.17424
v -0.29728 1.24606 -0.16093
v -0.28128 1.27723 -0.17130
v -0.25240 1.30629 -0.19287
v -0.27637 1.01912 -0.14086
v -0.25239 1.03301 -0.13443
v -0.22732 1.04514 -0.12528
v -0.21301 1.06802 -0.12275
v -0.24364 1.12225 -0.03235
v -0.23812 1.16814 -0.04119
v -0.26113 1.01166 -0.12226
v -0.24811 1.03268 -0.10573
v -0.23498 1.05544 -0.08795
v -0.22500 1.08284 -0.06852
v -0.22554 1.11871 -0.05201
v -0.22766 1.15101 -0.04177
v -0.24951 1.00941 -0.10360
v -0.23868 1.03658 -0.08897
v -0.23045 1.06658 -0.07440
v -0.22598 1.09931 -0.06076
v -0.22114 1.12907 -0.04527
v -0.20621 1.14495 -0.02690
v -0.24391 1.01030 -0.08183
v -0.23547 1.04119 -0.06941
v -0.22835 1.07396 -0.05767
v -0.22002 1.10491 -0.04481
v -0.20904 1.13058 -0.02808
v -0.21189 1.16553 -0.03590
v -0.24997 1.01331 -0.06045
v -0.23887 1.04596 -0.05107
v -0.22628 1.07809 -0.04033
v -0.22119 1.11126 -0.02866
v -0.22076 1.14623 -0.03553
v -0.21273 1.16792 -0.01349
v -0.25639 1.01540 -0.03942
v -0.24395 1.05054 -0.03213
v -0.24049 1.08781 -0.03339
v -0.23617 1.12520 -0.03575
v -0.23711 1.15412 -0.01784
v -0.22468 1.18248 -0.03417
v -0.26296 1.13466 -0.02920
v -0.23123 1.15015 -0.04494
f 1084 1085 1095
f 1084 1095 1083
f 1083 1095 1101
f 1083 1101 1082
f 1082 1101 1081
f 1081 1101 1107
f 1081 1107 1080
f 1080 1107 1113
f 1080 1113 1079
f 1079 1113 1119
f 1079 1119 1078
f 1078 1119 1125
f 1078 1125 1132
f 1078 1132 1077
f 1077 1132 1138
f 1077 1138 1076
f 1076 1138 1144
f 1076 1144 1075
f 1075 1144 1150
f 1075 1150 1156
f 1075 1156 1074
f 1074 1156 1162
f 1074 1162 1073
f 1073 1162 1168
f 1073 1168 1072
f 1072 1168 1071
f 1071 1168 1170
f 1071 1170 1070
f 1070 1170 1069
f 1069 1170 1067
f 1062 1063 1163
f 1062 1163 1061
f 1061 1163 1157
f 1061 1157 1060
f 1060 1157 1151
f 1060 1151 1145
f 1060 1145 1059
f 1059 1145 1139
f 1059 1139 1133
f 1059 1133 1058
f 1058 1133 1126
f 1058 1126 1057
f 1057 1126 1120
f 1057 1120 1114
f 1057 1114 1056
f 1056 1114 1108
f 1056 1108 1102
f 1056 1102 1055
f 1055 1102 1096
f 1055 1096 1091
f 1055 1091 1054
f 1054 1091 1090
f 1086 1087 1094
f 1086 1094 1095
f 1086 1095 1085
f 1095 1094 1099
f 1095 1099 1100
f 1095 1100 1101
f 1101 1100 1106
f 1101 1106 1107
f 1107 1106 1112
f 1107 1112 1113
f 1113 1112 1118
f 1113 1118 1119
f 1119 1118 1124
f 1119 1124 1125
f 1125 1124 1130
f 1125 1130 1131
f 1125 1131 1132
f 1132 1131 1138
f 1138 1131 1137
f 1138 1137 1143
f 1138 1143 1144
f 1144 1143 1149
f 1144 1149 1150
f 1150 1149 1155
f 1150 1155 1156
f 1156 1155 1161
f 1156 1161 1162
f 1162 1161 1167
f 1162 1167 1168
f 1168 1167 1170
f 1170 1167 1169
f 1170 1169 1067
f 1067 1169 1066
f 1064 1065 1164
f 1064 1164 1163
f 1064 1163 1063
f 1163 1164 1158
f 1163 1158 1157
f 1157 1158 1152
f 1157 1152 1151
f 1151 1152 1146
f 1151 1146 1145
f 1145 1146 1140
f 1145 1140 1139
f 1139 1140 1134
f 1139 1134 1133
f 1133 1134 1127
f 1133 1127 1126
f 1126 1127 1121
f 1126 1121 1120
f 1120 1121 1115
f 1120 1115 1114
f 1114 1115 1109
f 1114 1109 1108
f 1108 1109 1103
f 1108 1103 1102
f 1102 1103 1097
f 1102 1097 1096
f 1096 1097 1092
f 1096 1092 1091
f 1091 1092 1089
f 1091 1089 1090
f 1089 1092 1088
f 1088 1092 1093
f 1088 1093 1087
f 1087 1093 1094
f 1094 1093 1098
f 1094 1098 1099
f 1099 1098 1104
f 1099 1104 1105
f 1099 1105 1100
f 1100 1105 1106
f 1106 1105 1111
f 1106 1111 1112
f 1112 1111 1117
f 1112 1117 1118
f 1118 1117 1123
f 1118 1123 1124
f 1124 1123 1129
f 1124 1129 1130
f 1130 1129 1136
f 1130 1136 1137
f 1130 1137 1131
f 1137 1136 1142
f 1137 1142 1143
f 1143 1142 1148
f 1143 1148 1149
f 1149 1148 1154
f 1149 1154 1155
f 1155 1154 1160
f 1155 1160 1161
f 1161 1160 1166
f 1161 1166 1167
f 1167 1166 1169
f 1169 1166 1165
f 1169 1165 1065
f 1169 1065 1066
f 1065 1165 1164
f 1164 1165 1159
f 1164 1159 1158
f 1158 1159 1153
f 1158 1153 1152
f 1152 1153 1147
f 1152 1147 1146
f 1146 1147 1141
f 1146 1141 1140
f 1140 1141 1135
f 1140 1135 1134
f 1134 1135 1128
f 1134 1128 1127
f 1127 1128 1122
f 1127 1122 1121
f 1121 1122 1116
f 1121 1116 1115
f 1115 1116 1110
f 1115 1110 1109
f 1109 1110 1104
f 1109 1104 1103
f 1103 1104 1098
f 1103 1098 1097
f 1097 1098 1093
f 1097 1093 1092
f 1104 1110 1105
f 1105 1110 1111
f 1111 1110 1116
f 1111 1116 1117
f 1117 1116 1122
f 1117 1122 1123
f 1123 1122 1128
f 1123 1128 1129
f 1129 1128 1135
f 1129 1135 1136
f 1136 1135 1141
f 1136 1141 1142
f 1142 1141 1147
f 1142 1147 1148
f 1148 1147 1153
f 1148 1153 1154
f 1154 1153 1159
f 1154 1159 1160
f 1160 1159 1165
f 1160 1165 1166
