# H&M Regular Fit Buffalo Check Flannel Long-Sleeve Shirt
# Parametric CAD & PBD Physics Sim

g front_panel
v 0.00000 0.52500 0.12000
v 0.04413 0.52569 0.11466
v 0.08571 0.52778 0.09895
v 0.12234 0.53125 0.07377
v 0.15193 0.53611 0.04056
v 0.17277 0.54247 0.00102
v 0.18592 0.55609 -0.04303
v 0.17872 0.89040 -0.07369
v 0.17957 1.08766 -0.05909
v 0.17998 1.09667 -0.06732
v 0.18095 1.09246 -0.05644
v 0.17505 1.15413 -0.01644
v 0.17132 1.21258 0.00340
v 0.16972 1.26744 -0.00310
v 0.20251 1.39304 -0.08660
v 0.06756 1.34119 0.09804
v -0.00001 1.21501 0.12000
v -0.06791 1.34057 0.09799
v -0.20163 1.37674 -0.08771
v -0.16982 1.26926 -0.00499
v -0.17126 1.21421 0.00354
v -0.17373 1.15835 -0.01208
v -0.16605 1.11042 -0.03180
v -0.16493 1.09835 -0.03422
v -0.18141 0.87180 -0.03529
v -0.19697 0.55148 -0.04291
v -0.17272 0.54238 0.00126
v -0.15192 0.53612 0.04058
v -0.12234 0.53125 0.07377
v -0.08571 0.52778 0.09895
v -0.04413 0.52569 0.11466
v -0.00000 0.52500 0.12000
v -0.17997 0.58895 -0.01440
v -0.18320 0.62081 -0.01389
v -0.18569 0.65365 -0.01345
v -0.18978 0.68841 -0.02257
v -0.19293 0.72017 -0.05753
v -0.18882 0.75773 -0.05719
v -0.18151 0.79700 -0.06214
v -0.17143 0.85824 -0.03853
v -0.16863 0.87133 -0.04212
v -0.17114 0.87613 -0.03421
v -0.16745 0.88382 -0.03851
v -0.17050 0.94250 -0.06166
v -0.17044 0.98618 -0.06145
v -0.17349 1.02832 -0.07089
v -0.16573 1.08897 -0.03509
v -0.16847 1.08912 -0.03733
v -0.16868 0.58904 0.01115
v -0.17183 0.62112 0.01293
v -0.17468 0.65573 0.01301
v -0.18381 0.69275 -0.00052
v -0.19388 0.71879 -0.04745
v -0.18830 0.75601 -0.04766
v -0.18640 0.79868 -0.05049
v -0.16797 0.86237 -0.03205
v -0.16570 0.87318 -0.03423
v -0.17019 0.86453 -0.04009
v -0.16715 0.87699 -0.03728
v -0.16897 0.94496 -0.05445
v -0.16903 0.99242 -0.05416
v -0.16566 1.08135 -0.03369
v -0.16766 1.10236 -0.03569
v -0.16319 1.10064 -0.02825
v -0.16807 1.09735 -0.03927
v -0.16550 1.10088 -0.02849
v -0.15544 0.58908 0.03531
v -0.15565 0.62173 0.03518
v -0.15922 0.65618 0.03599
v -0.17004 0.69000 0.02611
v -0.17456 0.72231 0.01468
v -0.17676 0.75969 0.01428
v -0.16834 0.80307 0.00534
v -0.16589 0.85931 -0.02314
v -0.16458 0.86698 -0.02625
v -0.16434 0.87086 -0.02830
v -0.18264 0.87977 -0.02872
v -0.15929 0.93523 0.00218
v -0.16053 0.99598 -0.00427
v -0.16229 1.08128 -0.02182
v -0.16374 1.09028 -0.02592
v -0.16104 1.09385 -0.02239
v -0.16436 1.09699 -0.02729
v -0.16195 1.10376 -0.02155
v -0.15770 1.14734 0.01666
v -0.15649 1.19224 0.03187
v -0.15625 1.23138 0.03293
v -0.15666 1.26774 0.02277
v -0.13880 0.55701 0.05731
v -0.13882 0.58909 0.05728
v -0.13903 0.62162 0.05706
v -0.14019 0.65502 0.05574
v -0.14278 0.68788 0.05254
v -0.14409 0.72059 0.05027
v -0.14407 0.75582 0.04823
v -0.14477 0.79430 0.03857
v -0.14630 0.82559 0.02897
v -0.14564 0.85038 0.02911
v -0.14550 0.87503 0.02938
v -0.14401 0.90414 0.03694
v -0.14306 0.94647 0.04517
v -0.14401 0.99270 0.03687
v -0.14575 1.02860 0.02826
v -0.14559 1.05295 0.02896
v -0.14536 1.07557 0.03023
v -0.14534 1.09955 0.03106
v -0.14271 1.12629 0.04021
v -0.14064 1.16215 0.05324
v -0.13925 1.19713 0.05667
v -0.13962 1.23066 0.05573
v -0.14014 1.26245 0.05458
v -0.14174 1.29606 0.04225
v -0.11908 0.55701 0.07658
v -0.11910 0.58906 0.07656
v -0.11924 0.62128 0.07642
v -0.11958 0.65360 0.07606
v -0.12006 0.68583 0.07554
v -0.12044 0.71836 0.07508
v -0.12127 0.75196 0.07356
v -0.12273 0.78487 0.07062
v -0.12330 0.81621 0.06913
v -0.12297 0.84694 0.06965
v -0.12236 0.87758 0.07090
v -0.12160 0.90982 0.07286
v -0.12152 0.94471 0.07300
v -0.12299 0.97849 0.06988
v -0.12358 1.01013 0.06845
v -0.12320 1.04055 0.06927
v -0.12285 1.07098 0.07002
v -0.12210 1.10134 0.07151
v -0.12084 1.13252 0.07393
v -0.11947 1.16495 0.07617
v -0.11924 1.19723 0.07641
v -0.11937 1.22941 0.07628
v -0.12011 1.26218 0.07506
v -0.12206 1.29212 0.07346
v -0.09671 0.55700 0.09271
v -0.09673 0.58902 0.09270
v -0.09676 0.62106 0.09267
v -0.09682 0.65310 0.09263
v -0.09689 0.68516 0.09257
v -0.09708 0.71740 0.09242
v -0.09744 0.74968 0.09212
v -0.09781 0.78173 0.09178
v -0.09788 0.81360 0.09171
v -0.09770 0.84540 0.09188
v -0.09746 0.87726 0.09209
v -0.09736 0.90946 0.09219
v -0.09755 0.94181 0.09201
v -0.09795 0.97391 0.09165
v -0.09801 1.00576 0.09159
v -0.09784 1.03759 0.09175
v -0.09764 1.06936 0.09193
v -0.09735 1.10112 0.09219
v -0.09701 1.13300 0.09247
v -0.09676 1.16502 0.09267
v -0.09675 1.19705 0.09268
v -0.09685 1.22916 0.09261
v -0.09708 1.26106 0.09243
v -0.09794 1.29187 0.09214
v -0.07220 0.55700 0.10533
v -0.07220 0.58900 0.10533
v -0.07220 0.62101 0.10533
v -0.07221 0.65301 0.10532
v -0.07223 0.68503 0.10531
v -0.07227 0.71707 0.10529
v -0.07232 0.74909 0.10526
v -0.07236 0.78109 0.10524
v -0.07235 0.81307 0.10525
v -0.07232 0.84505 0.10526
v -0.07230 0.87705 0.10528
v -0.07230 0.90908 0.10527
v -0.07234 0.94110 0.10525
v -0.07238 0.97310 0.10523
v -0.07238 1.00508 0.10523
v -0.07235 1.03706 0.10525
v -0.07231 1.06904 0.10527
v -0.07226 1.10101 0.10529
v -0.07222 1.13300 0.10532
v -0.07220 1.16500 0.10533
v -0.07221 1.19701 0.10532
v -0.07221 1.22899 0.10532
v -0.07223 1.26095 0.10532
v -0.07254 1.29279 0.10521
v -0.04608 0.55700 0.11417
v -0.04608 0.58900 0.11417
v -0.04608 0.62100 0.11417
v -0.04608 0.65300 0.11417
v -0.04608 0.68500 0.11417
v -0.04609 0.71701 0.11417
v -0.04609 0.74901 0.11417
v -0.04609 0.78101 0.11416
v -0.04609 0.81300 0.11417
v -0.04609 0.84500 0.11417
v -0.04609 0.87700 0.11417
v -0.04609 0.90901 0.11417
v -0.04609 0.94101 0.11416
v -0.04610 0.97301 0.11416
v -0.04609 1.00501 0.11416
v -0.04609 1.03700 0.11417
v -0.04609 1.06900 0.11417
v -0.04608 1.10100 0.11417
v -0.04608 1.13300 0.11417
v -0.04608 1.16500 0.11417
v -0.04608 1.19700 0.11417
v -0.04608 1.22905 0.11417
v -0.04615 1.26153 0.11408
v -0.01894 0.55700 0.11903
v -0.01894 0.58900 0.11903
v -0.01894 0.62100 0.11903
v -0.01894 0.65300 0.11903
v -0.01894 0.68500 0.11903
v -0.01894 0.71700 0.11903
v -0.01894 0.74900 0.11903
v -0.01894 0.78100 0.11903
v -0.01894 0.81300 0.11903
v -0.01894 0.84500 0.11903
v -0.01894 0.87700 0.11903
v -0.01894 0.90900 0.11903
v -0.01894 0.94100 0.11903
v -0.01894 0.97300 0.11903
v -0.01894 1.00500 0.11903
v -0.01894 1.03700 0.11903
v -0.01894 1.06900 0.11903
v -0.01894 1.10100 0.11903
v -0.01894 1.13300 0.11903
v -0.01894 1.16500 0.11903
v -0.01894 1.19700 0.11903
v 0.00862 0.55700 0.11980
v 0.00862 0.58900 0.11980
v 0.00862 0.62100 0.11980
v 0.00862 0.65300 0.11980
v 0.00862 0.68500 0.11980
v 0.00862 0.71700 0.11980
v 0.00862 0.74900 0.11980
v 0.00862 0.78100 0.11980
v 0.00862 0.81300 0.11980
v 0.00862 0.84500 0.11980
v 0.00862 0.87700 0.11980
v 0.00862 0.90900 0.11980
v 0.00862 0.94100 0.11980
v 0.00862 0.97300 0.11980
v 0.00862 1.00500 0.11980
v 0.00862 1.03700 0.11980
v 0.00862 1.06900 0.11980
v 0.00862 1.10100 0.11980
v 0.00862 1.13300 0.11980
v 0.00862 1.16500 0.11980
v 0.03599 0.55700 0.11647
v 0.03599 0.58900 0.11647
v 0.03599 0.62100 0.11647
v 0.03599 0.65300 0.11647
v 0.03599 0.68500 0.11647
v 0.03599 0.71700 0.11647
v 0.03599 0.74900 0.11647
v 0.03599 0.78100 0.11647
v 0.03599 0.81300 0.11647
v 0.03599 0.84500 0.11646
v 0.03600 0.87700 0.11646
v 0.03600 0.90900 0.11646
v 0.03600 0.94100 0.11646
v 0.03600 0.97300 0.11646
v 0.03599 1.00500 0.11646
v 0.03599 1.03700 0.11646
v 0.03600 1.06900 0.11646
v 0.03600 1.10100 0.11646
v 0.03601 1.13300 0.11646
v 0.03601 1.16499 0.11646
v 0.03600 1.19699 0.11646
v 0.03601 1.22901 0.11646
v 0.06256 0.55700 0.10910
v 0.06256 0.58900 0.10910
v 0.06256 0.62100 0.10910
v 0.06256 0.65300 0.10910
v 0.06256 0.68500 0.10910
v 0.06256 0.71700 0.10910
v 0.06256 0.74900 0.10910
v 0.06256 0.78100 0.10910
v 0.06257 0.81300 0.10910
v 0.06260 0.84500 0.10908
v 0.06265 0.87698 0.10906
v 0.06269 0.90895 0.10904
v 0.06267 0.94093 0.10905
v 0.06263 0.97294 0.10907
v 0.06259 1.00497 0.10909
v 0.06260 1.03699 0.10908
v 0.06265 1.06898 0.10906
v 0.06270 1.10096 0.10904
v 0.06274 1.13292 0.10902
v 0.06275 1.16490 0.10901
v 0.06270 1.19690 0.10904
v 0.06264 1.22892 0.10906
v 0.06258 1.26099 0.10909
v 0.06268 1.29330 0.10899
v 0.08774 0.55700 0.09787
v 0.08774 0.58900 0.09787
v 0.08774 0.62100 0.09787
v 0.08774 0.65300 0.09787
v 0.08774 0.68500 0.09787
v 0.08774 0.71700 0.09787
v 0.08775 0.74900 0.09787
v 0.08777 0.78100 0.09785
v 0.08783 0.81298 0.09781
v 0.08818 0.84497 0.09756
v 0.08867 0.87680 0.09717
v 0.08882 0.90847 0.09705
v 0.08845 0.94040 0.09735
v 0.08808 0.97265 0.09764
v 0.08794 1.00486 0.09774
v 0.08820 1.03692 0.09755
v 0.08861 1.06882 0.09722
v 0.08897 1.10055 0.09692
v 0.08918 1.13229 0.09674
v 0.08903 1.16416 0.09687
v 0.08849 1.19627 0.09731
v 0.08799 1.22865 0.09770
v 0.08774 1.26085 0.09787
v 0.08823 1.29224 0.09775
v 0.11097 0.55700 0.08302
v 0.11097 0.58900 0.08302
v 0.11097 0.62100 0.08302
v 0.11097 0.65300 0.08302
v 0.11097 0.68500 0.08302
v 0.11100 0.71700 0.08300
v 0.11106 0.74899 0.08295
v 0.11136 0.78099 0.08265
v 0.11186 0.81299 0.08210
v 0.11366 0.84529 0.07907
v 0.11553 0.87622 0.07529
v 0.11523 0.90662 0.07610
v 0.11319 0.93871 0.08003
v 0.11222 0.97174 0.08173
v 0.11218 1.00435 0.08178
v 0.11371 1.03737 0.07918
v 0.11537 1.06883 0.07587
v 0.11638 1.09907 0.07392
v 0.11654 1.12965 0.07358
v 0.11535 1.16097 0.07607
v 0.11281 1.19403 0.08044
v 0.11152 1.22778 0.08249
v 0.11110 1.26065 0.08293
v 0.11253 1.29198 0.08222
v 0.13174 0.55700 0.06488
v 0.13174 0.58900 0.06488
v 0.13174 0.62100 0.06488
v 0.13174 0.65300 0.06488
v 0.13176 0.68500 0.06486
v 0.13199 0.71702 0.06457
v 0.13255 0.74912 0.06381
v 0.13409 0.78250 0.06066
v 0.13590 0.81686 0.05540
v 0.13970 0.85198 0.03778
v 0.14339 0.88063 0.02466
v 0.13940 0.90573 0.03965
v 0.13621 0.93536 0.05457
v 0.13523 0.96882 0.05765
v 0.13623 1.00612 0.05552
v 0.13985 1.04666 0.03989
v 0.14420 1.07504 0.02657
v 0.14439 1.09890 0.02574
v 0.14395 1.12332 0.02675
v 0.13869 1.15333 0.04280
v 0.13376 1.19083 0.06028
v 0.13223 1.22762 0.06424
v 0.13209 1.26067 0.06448
v 0.13488 1.29285 0.06091
v 0.14959 0.55700 0.04385
v 0.14958 0.58900 0.04386
v 0.14958 0.62100 0.04386
v 0.14958 0.65301 0.04386
v 0.14979 0.68510 0.04357
v 0.15159 0.71799 0.04095
v 0.15418 0.75370 0.03485
v 0.15599 0.80084 0.01842
v 0.15978 0.84121 -0.00133
v 0.17083 0.88283 -0.05272
v 0.17098 0.89295 -0.05251
v 0.15830 0.89939 0.00118
v 0.15587 0.92685 0.01111
v 0.15495 0.96521 0.01823
v 0.15900 1.02556 0.00657
v 0.17384 1.08106 -0.04359
v 0.17486 1.08649 -0.04807
v 0.17513 1.09153 -0.04839
v 0.17306 1.09758 -0.04225
v 0.15537 1.14512 0.01552
v 0.15093 1.19073 0.03977
v 0.15056 1.22914 0.04180
v 0.15070 1.26276 0.04106
v 0.15206 1.29939 0.02594
v 0.16409 0.58900 0.02045
v 0.16408 0.62104 0.02046
v 0.16486 0.65317 0.02089
v 0.16742 0.68688 0.01892
v 0.17821 0.72481 0.00473
v 0.18203 0.77386 -0.01352
v 0.17432 0.87214 -0.05709
v 0.17566 0.89047 -0.06282
v 0.17713 0.89421 -0.07307
v 0.17309 0.88828 -0.06148
v 0.17346 0.89233 -0.05696
v 0.17318 0.90338 -0.05759
v 0.16855 0.98243 -0.02688
v 0.17773 1.07219 -0.05402
v 0.17850 1.09284 -0.05825
v 0.18154 1.08263 -0.06227
v 0.17813 1.08995 -0.05964
v 0.17738 1.09690 -0.04975
v 0.16774 1.15229 0.00323
v 0.16508 1.19104 0.01680
v 0.17503 0.58936 -0.00449
v 0.17730 0.62160 -0.00325
v 0.17977 0.65509 -0.00438
v 0.18442 0.69291 -0.01785
v 0.18604 0.73445 -0.07216
v 0.17722 0.78360 -0.07673
v 0.17640 0.87202 -0.06993
v 0.17466 0.88186 -0.06231
v 0.17983 0.88380 -0.07173
v 0.17489 0.89093 -0.06331
v 0.18054 0.89151 -0.07131
v 0.17469 0.90630 -0.06769
v 0.17121 0.98456 -0.08328
v 0.17919 1.07147 -0.06185
v 0.17880 1.08303 -0.05151
v 0.18443 1.08488 -0.06646
v 0.17926 1.08041 -0.05604
f 19 20 88
f 19 88 112
f 19 112 18
f 18 112 136
f 18 136 160
f 18 160 184
f 18 184 207
f 16 294 318
f 16 318 342
f 16 342 366
f 16 366 390
f 16 390 15
f 15 390 14
f 10 11 427
f 10 427 426
f 10 426 425
f 10 425 424
f 10 424 423
f 10 423 8
f 7 8 415
f 7 415 414
f 7 414 413
f 7 413 412
f 7 412 411
f 7 411 6
f 6 411 391
f 6 391 367
f 6 367 5
f 5 367 343
f 5 343 4
f 4 343 319
f 4 319 3
f 3 319 295
f 3 295 271
f 3 271 2
f 2 271 249
f 2 249 229
f 2 229 32
f 32 229 208
f 32 208 31
f 31 208 185
f 31 185 161
f 31 161 30
f 30 161 137
f 30 137 29
f 29 137 113
f 29 113 89
f 29 89 28
f 28 89 67
f 28 67 49
f 28 49 27
f 27 49 33
f 27 33 26
f 26 33 34
f 26 34 35
f 26 35 36
f 26 36 37
f 26 37 25
f 24 25 45
f 24 45 46
f 24 46 47
f 24 47 48
f 24 48 23
f 23 48 65
f 23 65 66
f 23 66 22
f 20 21 87
f 20 87 88
f 88 87 110
f 88 110 111
f 88 111 112
f 112 111 135
f 112 135 136
f 136 135 159
f 136 159 160
f 160 159 183
f 160 183 184
f 184 183 207
f 207 183 206
f 207 206 17
f 294 270 293
f 294 293 317
f 294 317 318
f 318 317 341
f 318 341 342
f 342 341 365
f 342 365 366
f 366 365 389
f 366 389 390
f 390 389 14
f 14 389 388
f 14 388 13
f 11 12 408
f 11 408 427
f 427 408 407
f 427 407 426
f 426 407 406
f 426 406 405
f 426 405 425
f 425 405 424
f 424 405 404
f 424 404 423
f 423 404 403
f 423 403 402
f 423 402 422
f 423 422 8
f 8 422 421
f 8 421 420
f 8 420 419
f 8 419 418
f 8 418 417
f 8 417 416
f 8 416 415
f 415 416 396
f 415 396 395
f 415 395 414
f 414 395 394
f 414 394 413
f 413 394 393
f 413 393 412
f 412 393 392
f 412 392 411
f 411 392 391
f 391 392 369
f 391 369 368
f 391 368 367
f 367 368 344
f 367 344 343
f 343 344 320
f 343 320 319
f 319 320 296
f 319 296 295
f 295 296 272
f 295 272 271
f 271 272 250
f 271 250 249
f 249 250 230
f 249 230 229
f 229 230 209
f 229 209 208
f 208 209 186
f 208 186 185
f 185 186 162
f 185 162 161
f 161 162 138
f 161 138 137
f 137 138 114
f 137 114 113
f 113 114 90
f 113 90 89
f 89 90 67
f 67 90 68
f 67 68 50
f 67 50 49
f 49 50 34
f 49 34 33
f 34 50 35
f 35 50 51
f 35 51 36
f 36 51 52
f 36 52 37
f 37 52 53
f 37 53 38
f 37 38 25
f 25 38 39
f 25 39 40
f 25 40 41
f 25 41 42
f 25 42 43
f 25 43 44
f 25 44 45
f 45 44 60
f 45 60 61
f 45 61 46
f 46 61 62
f 46 62 47
f 47 62 63
f 47 63 48
f 48 63 64
f 48 64 65
f 65 64 82
f 65 82 83
f 65 83 84
f 65 84 66
f 66 84 85
f 66 85 22
f 22 85 86
f 22 86 21
f 21 86 87
f 87 86 109
f 87 109 110
f 110 109 133
f 110 133 134
f 110 134 111
f 111 134 135
f 135 134 158
f 135 158 159
f 159 158 183
f 183 158 182
f 183 182 206
f 206 182 205
f 206 205 228
f 206 228 17
f 17 228 248
f 17 263 264
f 17 264 265
f 17 265 266
f 17 266 267
f 17 267 268
f 17 268 269
f 17 269 270
f 270 269 291
f 270 291 292
f 270 292 293
f 293 292 316
f 293 316 317
f 317 316 341
f 341 316 340
f 341 340 364
f 341 364 365
f 365 364 388
f 365 388 389
f 388 364 387
f 388 387 410
f 388 410 13
f 13 410 12
f 12 410 409
f 12 409 408
f 408 409 386
f 408 386 385
f 408 385 407
f 407 385 384
f 407 384 406
f 406 384 383
f 406 383 405
f 405 383 382
f 405 382 404
f 404 382 381
f 404 381 403
f 403 381 380
f 403 380 402
f 402 380 379
f 402 379 401
f 402 401 421
f 402 421 422
f 421 401 400
f 421 400 420
f 420 400 419
f 419 400 399
f 419 399 418
f 418 399 398
f 418 398 417
f 417 398 397
f 417 397 416
f 416 397 396
f 396 397 374
f 396 374 373
f 396 373 395
f 395 373 372
f 395 372 394
f 394 372 371
f 394 371 393
f 393 371 370
f 393 370 392
f 392 370 369
f 369 370 346
f 369 346 345
f 369 345 368
f 368 345 344
f 344 345 321
f 344 321 320
f 320 321 297
f 320 297 296
f 296 297 273
f 296 273 272
f 272 273 251
f 272 251 250
f 250 251 231
f 250 231 230
f 230 231 210
f 230 210 209
f 209 210 187
f 209 187 186
f 186 187 163
f 186 163 162
f 162 163 139
f 162 139 138
f 138 139 115
f 138 115 114
f 114 115 91
f 114 91 90
f 90 91 68
f 68 91 69
f 68 69 51
f 68 51 50
f 51 69 52
f 52 69 70
f 52 70 53
f 53 70 71
f 53 71 54
f 53 54 38
f 38 54 39
f 39 54 55
f 39 55 40
f 40 55 56
f 40 56 41
f 41 56 57
f 41 57 42
f 42 57 58
f 42 58 43
f 43 58 59
f 43 59 44
f 44 59 60
f 60 59 77
f 60 77 78
f 60 78 79
f 60 79 61
f 61 79 62
f 62 79 80
f 62 80 63
f 63 80 81
f 63 81 82
f 63 82 64
f 82 81 104
f 82 104 105
f 82 105 83
f 83 105 106
f 83 106 84
f 84 106 107
f 84 107 85
f 85 107 108
f 85 108 86
f 86 108 109
f 109 108 132
f 109 132 133
f 133 132 156
f 133 156 157
f 133 157 134
f 134 157 158
f 158 157 181
f 158 181 182
f 182 181 205
f 205 181 204
f 205 204 227
f 205 227 228
f 228 227 248
f 248 227 247
f 248 247 263
f 263 247 246
f 263 246 245
f 263 245 244
f 263 244 243
f 263 243 262
f 263 262 284
f 263 284 285
f 263 285 264
f 264 285 286
f 264 286 265
f 265 286 287
f 265 287 266
f 266 287 288
f 266 288 267
f 267 288 289
f 267 289 268
f 268 289 290
f 268 290 269
f 269 290 291
f 291 290 314
f 291 314 315
f 291 315 292
f 292 315 316
f 316 315 339
f 316 339 340
f 340 339 363
f 340 363 364
f 364 363 387
f 387 363 386
f 387 386 409
f 387 409 410
f 386 363 362
f 386 362 385
f 385 362 361
f 385 361 384
f 384 361 360
f 384 360 383
f 383 360 359
f 383 359 382
f 382 359 358
f 382 358 381
f 381 358 357
f 381 357 380
f 380 357 356
f 380 356 379
f 379 356 355
f 379 355 378
f 379 378 401
f 401 378 400
f 400 378 377
f 400 377 399
f 399 377 376
f 399 376 398
f 398 376 375
f 398 375 397
f 397 375 374
f 374 375 351
f 374 351 350
f 374 350 373
f 373 350 349
f 373 349 372
f 372 349 348
f 372 348 371
f 371 348 347
f 371 347 370
f 370 347 346
f 346 347 323
f 346 323 322
f 346 322 345
f 345 322 321
f 321 322 298
f 321 298 297
f 297 298 274
f 297 274 273
f 273 274 252
f 273 252 251
f 251 252 232
f 251 232 231
f 231 232 211
f 231 211 210
f 210 211 188
f 210 188 187
f 187 188 164
f 187 164 163
f 163 164 140
f 163 140 139
f 139 140 116
f 139 116 115
f 115 116 92
f 115 92 91
f 91 92 69
f 69 92 70
f 70 92 93
f 70 93 71
f 71 93 94
f 71 94 72
f 71 72 54
f 54 72 55
f 55 72 73
f 55 73 56
f 56 73 74
f 56 74 57
f 57 74 75
f 57 75 58
f 58 75 76
f 58 76 77
f 58 77 59
f 77 76 99
f 77 99 100
f 77 100 78
f 78 100 101
f 78 101 79
f 79 101 102
f 79 102 80
f 80 102 103
f 80 103 81
f 81 103 104
f 104 103 127
f 104 127 128
f 104 128 105
f 105 128 129
f 105 129 106
f 106 129 130
f 106 130 107
f 107 130 131
f 107 131 108
f 108 131 132
f 132 131 155
f 132 155 156
f 156 155 179
f 156 179 180
f 156 180 157
f 157 180 181
f 181 180 204
f 204 180 203
f 204 203 226
f 204 226 227
f 227 226 247
f 247 226 246
f 246 226 225
f 246 225 245
f 245 225 224
f 245 224 244
f 244 224 223
f 244 223 243
f 243 223 222
f 243 222 242
f 243 242 262
f 262 242 261
f 262 261 283
f 262 283 284
f 284 283 307
f 284 307 308
f 284 308 285
f 285 308 309
f 285 309 286
f 286 309 310
f 286 310 287
f 287 310 311
f 287 311 288
f 288 311 312
f 288 312 289
f 289 312 313
f 289 313 290
f 290 313 314
f 314 313 337
f 314 337 338
f 314 338 315
f 315 338 339
f 339 338 362
f 339 362 363
f 362 338 361
f 361 338 337
f 361 337 360
f 360 337 336
f 360 336 359
f 359 336 335
f 359 335 358
f 358 335 334
f 358 334 357
f 357 334 333
f 357 333 356
f 356 333 332
f 356 332 355
f 355 332 331
f 355 331 354
f 355 354 378
f 378 354 377
f 377 354 353
f 377 353 376
f 376 353 352
f 376 352 375
f 375 352 351
f 351 352 328
f 351 328 327
f 351 327 350
f 350 327 326
f 350 326 349
f 349 326 325
f 349 325 348
f 348 325 324
f 348 324 347
f 347 324 323
f 323 324 300
f 323 300 299
f 323 299 322
f 322 299 298
f 298 299 275
f 298 275 274
f 274 275 253
f 274 253 252
f 252 253 233
f 252 233 232
f 232 233 212
f 232 212 211
f 211 212 189
f 211 189 188
f 188 189 165
f 188 165 164
f 164 165 141
f 164 141 140
f 140 141 117
f 140 117 116
f 116 117 93
f 116 93 92
f 93 117 94
f 94 117 118
f 94 118 95
f 94 95 72
f 72 95 73
f 73 95 96
f 73 96 74
f 74 96 97
f 74 97 75
f 75 97 98
f 75 98 76
f 76 98 99
f 99 98 122
f 99 122 123
f 99 123 100
f 100 123 124
f 100 124 101
f 101 124 125
f 101 125 102
f 102 125 126
f 102 126 103
f 103 126 127
f 127 126 150
f 127 150 151
f 127 151 128
f 128 151 152
f 128 152 129
f 129 152 153
f 129 153 130
f 130 153 154
f 130 154 131
f 131 154 155
f 155 154 178
f 155 178 179
f 179 178 202
f 179 202 203
f 179 203 180
f 203 202 225
f 203 225 226
f 225 202 224
f 224 202 201
f 224 201 223
f 223 201 200
f 223 200 222
f 222 200 199
f 222 199 221
f 222 221 242
f 242 221 241
f 242 241 261
f 261 241 260
f 261 260 282
f 261 282 283
f 283 282 306
f 283 306 307
f 307 306 330
f 307 330 331
f 307 331 308
f 308 331 332
f 308 332 309
f 309 332 333
f 309 333 310
f 310 333 334
f 310 334 311
f 311 334 335
f 311 335 312
f 312 335 336
f 312 336 313
f 313 336 337
f 331 330 354
f 354 330 353
f 353 330 329
f 353 329 352
f 352 329 328
f 328 329 305
f 328 305 304
f 328 304 327
f 327 304 303
f 327 303 326
f 326 303 302
f 326 302 325
f 325 302 301
f 325 301 324
f 324 301 300
f 300 301 277
f 300 277 276
f 300 276 299
f 299 276 275
f 275 276 254
f 275 254 253
f 253 254 234
f 253 234 233
f 233 234 213
f 233 213 212
f 212 213 190
f 212 190 189
f 189 190 166
f 189 166 165
f 165 166 142
f 165 142 141
f 141 142 118
f 141 118 117
f 118 142 119
f 118 119 95
f 95 119 96
f 96 119 120
f 96 120 97
f 97 120 121
f 97 121 98
f 98 121 122
f 122 121 145
f 122 145 146
f 122 146 123
f 123 146 147
f 123 147 124
f 124 147 148
f 124 148 125
f 125 148 149
f 125 149 126
f 126 149 150
f 150 149 173
f 150 173 174
f 150 174 151
f 151 174 175
f 151 175 152
f 152 175 176
f 152 176 153
f 153 176 177
f 153 177 154
f 154 177 178
f 178 177 201
f 178 201 202
f 201 177 200
f 200 177 176
f 200 176 199
f 199 176 175
f 199 175 198
f 199 198 221
f 221 198 220
f 221 220 241
f 241 220 240
f 241 240 260
f 260 240 259
f 260 259 281
f 260 281 282
f 282 281 305
f 282 305 306
f 306 305 329
f 306 329 330
f 305 281 304
f 304 281 280
f 304 280 303
f 303 280 279
f 303 279 302
f 302 279 278
f 302 278 301
f 301 278 277
f 277 278 256
f 277 256 255
f 277 255 276
f 276 255 254
f 254 255 235
f 254 235 234
f 234 235 214
f 234 214 213
f 213 214 191
f 213 191 190
f 190 191 167
f 190 167 166
f 166 167 143
f 166 143 142
f 142 143 119
f 119 143 120
f 120 143 144
f 120 144 121
f 121 144 145
f 145 144 168
f 145 168 169
f 145 169 146
f 146 169 170
f 146 170 147
f 147 170 171
f 147 171 148
f 148 171 172
f 148 172 149
f 149 172 173
f 173 172 196
f 173 196 197
f 173 197 174
f 174 197 198
f 174 198 175
f 198 197 220
f 220 197 219
f 220 219 240
f 240 219 239
f 240 239 259
f 259 239 258
f 259 258 280
f 259 280 281
f 280 258 279
f 279 258 257
f 279 257 278
f 278 257 256
f 256 257 237
f 256 237 236
f 256 236 255
f 255 236 235
f 235 236 215
f 235 215 214
f 214 215 192
f 214 192 191
f 191 192 168
f 191 168 167
f 167 168 144
f 167 144 143
f 168 192 169
f 169 192 193
f 169 193 170
f 170 193 194
f 170 194 171
f 171 194 195
f 171 195 172
f 172 195 196
f 196 195 218
f 196 218 219
f 196 219 197
f 219 218 239
f 239 218 238
f 239 238 258
f 258 238 257
f 257 238 237
f 237 238 217
f 237 217 216
f 237 216 236
f 236 216 215
f 215 216 193
f 215 193 192
f 193 216 194
f 194 216 217
f 194 217 195
f 195 217 218
f 218 217 238
g back_left_panel
v 0.01856 0.52504 -0.24815
v 0.05541 0.50097 -0.24209
v 0.10125 0.50514 -0.21989
v 0.14117 0.51084 -0.18450
v 0.16969 0.51997 -0.13783
v 0.18309 0.54892 -0.08513
v 0.17719 0.90387 -0.06801
v 0.17930 1.08154 -0.05661
v 0.17862 1.12351 -0.10533
v 0.17048 1.16826 -0.12814
v 0.17578 1.21143 -0.15742
v 0.19849 1.30436 -0.15462
v 0.20304 1.39458 -0.08850
v 0.07227 1.34261 -0.22444
v 0.01800 1.31654 -0.24752
v 0.01837 0.51767 -0.24831
v 0.02016 0.52986 -0.24780
v 0.00359 0.56505 -0.24684
v 0.00427 0.59861 -0.24685
v 0.00437 0.63081 -0.24687
v 0.00441 0.66273 -0.24688
v 0.00443 0.69463 -0.24689
v 0.00445 0.72656 -0.24689
v 0.00446 0.75850 -0.24690
v 0.00447 0.79046 -0.24690
v 0.00448 0.82242 -0.24690
v 0.00448 0.85435 -0.24690
v 0.00448 0.88599 -0.24690
v 0.00426 0.91603 -0.24713
v 0.00422 0.94586 -0.24691
v 0.00420 0.97752 -0.24691
v 0.00419 1.00946 -0.24691
v 0.00418 1.04142 -0.24691
v 0.00417 1.07339 -0.24691
v 0.00414 1.10533 -0.24691
v 0.00412 1.13726 -0.24691
v 0.00407 1.16917 -0.24690
v 0.00400 1.20109 -0.24690
v 0.00385 1.23333 -0.24689
v 0.00356 1.26744 -0.24686
v 0.02127 1.30994 -0.24664
v 0.04663 0.53415 -0.24252
v 0.04423 0.56597 -0.24239
v 0.04432 0.59815 -0.24239
v 0.04433 0.63018 -0.24239
v 0.04434 0.66216 -0.24239
v 0.04435 0.69415 -0.24239
v 0.04436 0.72613 -0.24239
v 0.04436 0.75812 -0.24239
v 0.04436 0.79012 -0.24239
v 0.04437 0.82211 -0.24239
v 0.04438 0.85406 -0.24239
v 0.04447 0.88589 -0.24239
v 0.04453 0.91762 -0.24240
v 0.04452 0.94947 -0.24238
v 0.04452 0.98144 -0.24238
v 0.04451 1.01343 -0.24238
v 0.04451 1.04543 -0.24238
v 0.04451 1.07742 -0.24238
v 0.04451 1.10941 -0.24238
v 0.04450 1.14140 -0.24238
v 0.04450 1.17338 -0.24238
v 0.04450 1.20542 -0.24237
v 0.04425 1.23764 -0.24240
v 0.04549 1.26996 -0.24243
v 0.05156 1.30196 -0.24167
v 0.07782 0.53330 -0.23240
v 0.07732 0.56508 -0.23255
v 0.07733 0.59706 -0.23255
v 0.07733 0.62906 -0.23255
v 0.07734 0.66106 -0.23255
v 0.07734 0.69306 -0.23255
v 0.07734 0.72506 -0.23254
v 0.07734 0.75706 -0.23254
v 0.07735 0.78905 -0.23254
v 0.07735 0.82105 -0.23254
v 0.07736 0.85303 -0.23254
v 0.07738 0.88501 -0.23253
v 0.07739 0.91700 -0.23253
v 0.07739 0.94899 -0.23253
v 0.07739 0.98099 -0.23253
v 0.07740 1.01299 -0.23253
v 0.07740 1.04499 -0.23253
v 0.07740 1.07699 -0.23253
v 0.07740 1.10899 -0.23253
v 0.07740 1.14099 -0.23253
v 0.07740 1.17299 -0.23253
v 0.07768 1.20503 -0.23245
v 0.07690 1.23720 -0.23271
v 0.07812 1.26834 -0.23235
v 0.08030 1.29915 -0.23168
v 0.10342 0.53233 -0.21832
v 0.10347 0.56425 -0.21829
v 0.10347 0.59624 -0.21829
v 0.10347 0.62824 -0.21829
v 0.10347 0.66024 -0.21829
v 0.10348 0.69224 -0.21828
v 0.10350 0.72424 -0.21827
v 0.10354 0.75623 -0.21823
v 0.10357 0.78820 -0.21821
v 0.10356 0.82018 -0.21822
v 0.10352 0.85219 -0.21825
v 0.10350 0.88422 -0.21827
v 0.10349 0.91623 -0.21828
v 0.10348 0.94823 -0.21828
v 0.10350 0.98024 -0.21826
v 0.10352 1.01222 -0.21825
v 0.10352 1.04421 -0.21825
v 0.10351 1.07621 -0.21826
v 0.10349 1.10822 -0.21827
v 0.10348 1.14023 -0.21828
v 0.10350 1.17220 -0.21827
v 0.10364 1.20402 -0.21820
v 0.10350 1.23605 -0.21827
v 0.10417 1.26794 -0.21778
v 0.10820 1.29935 -0.21327
v 0.12550 0.53205 -0.20091
v 0.12548 0.56404 -0.20093
v 0.12549 0.59603 -0.20092
v 0.12549 0.62803 -0.20092
v 0.12549 0.66003 -0.20092
v 0.12551 0.69203 -0.20090
v 0.12574 0.72403 -0.20063
v 0.12608 0.75588 -0.20021
v 0.12617 0.78759 -0.20011
v 0.12589 0.81955 -0.20044
v 0.12564 0.85179 -0.20075
v 0.12553 0.88397 -0.20087
v 0.12552 0.91601 -0.20089
v 0.12552 0.94802 -0.20089
v 0.12571 0.98003 -0.20066
v 0.12583 1.01189 -0.20052
v 0.12574 1.04376 -0.20063
v 0.12558 1.07585 -0.20082
v 0.12550 1.10800 -0.20091
v 0.12550 1.14003 -0.20092
v 0.12551 1.17201 -0.20091
v 0.12551 1.20404 -0.20091
v 0.12563 1.23628 -0.20077
v 0.12805 1.27030 -0.19662
v 0.13755 1.31928 -0.17991
v 0.14434 0.56401 -0.18072
v 0.14434 0.59600 -0.18072
v 0.14434 0.62800 -0.18072
v 0.14434 0.66001 -0.18071
v 0.14454 0.69205 -0.18042
v 0.14571 0.72419 -0.17782
v 0.14686 0.75513 -0.17472
v 0.14651 0.78598 -0.17569
v 0.14520 0.81847 -0.17896
v 0.14471 0.85157 -0.18012
v 0.14452 0.88385 -0.18044
v 0.14452 0.91594 -0.18045
v 0.14451 0.94798 -0.18046
v 0.14542 0.98012 -0.17814
v 0.14568 1.01099 -0.17771
v 0.14485 1.04271 -0.17955
v 0.14440 1.07574 -0.18063
v 0.14436 1.10797 -0.18070
v 0.14440 1.14000 -0.18063
v 0.14437 1.17196 -0.18067
v 0.14435 1.20426 -0.18070
v 0.14512 1.23833 -0.17942
v 0.16392 1.29416 -0.17889
v 0.15994 0.56400 -0.15798
v 0.15992 0.59601 -0.15801
v 0.15992 0.62804 -0.15801
v 0.15999 0.66023 -0.15788
v 0.16098 0.69375 -0.15500
v 0.16329 0.72677 -0.14102
v 0.16498 0.75702 -0.13123
v 0.16246 0.78706 -0.14315
v 0.16118 0.81987 -0.15387
v 0.16102 0.85324 -0.15441
v 0.16048 0.88448 -0.15641
v 0.16059 0.91716 -0.15620
v 0.16061 0.94903 -0.15593
v 0.16023 0.98163 -0.14272
v 0.16085 1.00924 -0.14595
v 0.16010 1.04294 -0.15739
v 0.16008 1.07590 -0.15767
v 0.16001 1.10796 -0.15782
v 0.16019 1.13976 -0.15721
v 0.15995 1.17206 -0.15794
v 0.16153 1.20444 -0.15963
v 0.16662 1.24335 -0.16376
v 0.18082 1.30921 -0.15373
v 0.17193 0.56414 -0.13334
v 0.17189 0.59644 -0.13349
v 0.17194 0.62897 -0.13332
v 0.17222 0.66361 -0.13203
v 0.17422 0.70708 -0.11884
v 0.18558 0.73482 -0.07370
v 0.17705 0.78291 -0.07785
v 0.17296 0.80407 -0.11304
v 0.17207 0.83588 -0.11900
v 0.17184 0.86363 -0.11557
v 0.17162 0.88708 -0.12630
v 0.17192 0.91902 -0.13237
v 0.17167 0.95618 -0.12686
v 0.17106 0.98436 -0.08464
v 0.17205 1.01282 -0.11613
v 0.17237 1.04497 -0.13145
v 0.17248 1.07622 -0.13048
v 0.17221 1.10755 -0.13203
v 0.18001 0.56736 -0.10827
v 0.17915 1.07779 -0.09698
f 442 443 456
f 442 456 457
f 442 457 458
f 442 458 459
f 442 459 460
f 442 460 461
f 442 461 462
f 442 462 463
f 442 463 464
f 442 464 465
f 442 465 466
f 442 466 467
f 442 467 468
f 442 468 441
f 441 468 493
f 441 493 518
f 441 518 543
f 441 543 568
f 441 568 440
f 440 568 591
f 440 591 614
f 440 614 439
f 435 436 634
f 435 634 629
f 435 629 628
f 435 628 627
f 435 627 434
f 433 434 619
f 433 619 633
f 433 633 432
f 432 633 615
f 432 615 592
f 432 592 431
f 431 592 569
f 431 569 544
f 431 544 430
f 430 544 519
f 430 519 494
f 430 494 429
f 429 494 469
f 429 469 444
f 429 444 443
f 443 444 445
f 443 445 446
f 443 446 447
f 443 447 448
f 443 448 449
f 443 449 450
f 443 450 451
f 443 451 452
f 443 452 453
f 443 453 454
f 443 454 455
f 443 455 456
f 456 455 480
f 456 480 481
f 456 481 457
f 457 481 482
f 457 482 458
f 458 482 483
f 458 483 459
f 459 483 484
f 459 484 460
f 460 484 485
f 460 485 461
f 461 485 486
f 461 486 462
f 462 486 487
f 462 487 463
f 463 487 488
f 463 488 464
f 464 488 489
f 464 489 465
f 465 489 490
f 465 490 466
f 466 490 491
f 466 491 467
f 467 491 492
f 467 492 468
f 468 492 493
f 493 492 517
f 493 517 518
f 518 517 542
f 518 542 543
f 543 542 567
f 543 567 568
f 568 567 591
f 591 567 590
f 591 590 613
f 591 613 614
f 614 613 439
f 439 613 438
f 436 437 610
f 436 610 632
f 436 632 634
f 634 632 631
f 634 631 630
f 634 630 629
f 629 630 606
f 629 606 628
f 628 606 605
f 628 605 627
f 627 605 604
f 627 604 603
f 627 603 626
f 627 626 434
f 434 626 625
f 434 625 624
f 434 624 623
f 434 623 622
f 434 622 621
f 434 621 620
f 434 620 619
f 619 620 597
f 619 597 596
f 619 596 618
f 619 618 633
f 633 618 617
f 633 617 616
f 633 616 615
f 615 616 593
f 615 593 592
f 592 593 570
f 592 570 569
f 569 570 546
f 569 546 545
f 569 545 544
f 544 545 520
f 544 520 519
f 519 520 495
f 519 495 494
f 494 495 470
f 494 470 469
f 469 470 445
f 469 445 444
f 445 470 446
f 446 470 471
f 446 471 447
f 447 471 472
f 447 472 448
f 448 472 473
f 448 473 449
f 449 473 474
f 449 474 450
f 450 474 475
f 450 475 451
f 451 475 476
f 451 476 452
f 452 476 477
f 452 477 453
f 453 477 478
f 453 478 454
f 454 478 479
f 454 479 455
f 455 479 480
f 480 479 504
f 480 504 505
f 480 505 481
f 481 505 506
f 481 506 482
f 482 506 507
f 482 507 483
f 483 507 508
f 483 508 484
f 484 508 509
f 484 509 485
f 485 509 510
f 485 510 486
f 486 510 511
f 486 511 487
f 487 511 512
f 487 512 488
f 488 512 513
f 488 513 489
f 489 513 514
f 489 514 490
f 490 514 515
f 490 515 491
f 491 515 516
f 491 516 492
f 492 516 517
f 517 516 541
f 517 541 542
f 542 541 566
f 542 566 567
f 567 566 590
f 590 566 589
f 590 589 612
f 590 612 613
f 613 612 438
f 438 612 437
f 437 612 611
f 437 611 610
f 610 611 588
f 610 588 587
f 610 587 609
f 610 609 632
f 632 609 608
f 632 608 631
f 631 608 630
f 630 608 607
f 630 607 606
f 606 607 584
f 606 584 583
f 606 583 605
f 605 583 582
f 605 582 604
f 604 582 581
f 604 581 603
f 603 581 580
f 603 580 602
f 603 602 625
f 603 625 626
f 625 602 601
f 625 601 624
f 624 601 623
f 623 601 600
f 623 600 622
f 622 600 599
f 622 599 621
f 621 599 598
f 621 598 620
f 620 598 597
f 597 598 575
f 597 575 574
f 597 574 596
f 596 574 573
f 596 573 595
f 596 595 618
f 618 595 617
f 617 595 594
f 617 594 616
f 616 594 593
f 593 594 571
f 593 571 570
f 570 571 547
f 570 547 546
f 546 547 522
f 546 522 521
f 546 521 545
f 545 521 520
f 520 521 496
f 520 496 495
f 495 496 471
f 495 471 470
f 471 496 472
f 472 496 497
f 472 497 473
f 473 497 498
f 473 498 474
f 474 498 499
f 474 499 475
f 475 499 500
f 475 500 476
f 476 500 501
f 476 501 477
f 477 501 502
f 477 502 478
f 478 502 503
f 478 503 479
f 479 503 504
f 504 503 528
f 504 528 529
f 504 529 505
f 505 529 530
f 505 530 506
f 506 530 531
f 506 531 507
f 507 531 532
f 507 532 508
f 508 532 533
f 508 533 509
f 509 533 534
f 509 534 510
f 510 534 535
f 510 535 511
f 511 535 536
f 511 536 512
f 512 536 537
f 512 537 513
f 513 537 538
f 513 538 514
f 514 538 539
f 514 539 515
f 515 539 540
f 515 540 541
f 515 541 516
f 541 540 565
f 541 565 566
f 566 565 589
f 589 565 588
f 589 588 611
f 589 611 612
f 588 565 564
f 588 564 587
f 587 564 563
f 587 563 586
f 587 586 609
f 609 586 608
f 608 586 585
f 608 585 607
f 607 585 584
f 584 585 561
f 584 561 560
f 584 560 583
f 583 560 559
f 583 559 582
f 582 559 558
f 582 558 581
f 581 558 557
f 581 557 580
f 580 557 556
f 580 556 579
f 580 579 602
f 602 579 601
f 601 579 578
f 601 578 600
f 600 578 577
f 600 577 599
f 599 577 576
f 599 576 598
f 598 576 575
f 575 576 552
f 575 552 551
f 575 551 574
f 574 551 550
f 574 550 573
f 573 550 549
f 573 549 572
f 573 572 595
f 595 572 594
f 594 572 571
f 571 572 548
f 571 548 547
f 547 548 523
f 547 523 522
f 522 523 498
f 522 498 497
f 522 497 521
f 521 497 496
f 498 523 499
f 499 523 524
f 499 524 500
f 500 524 525
f 500 525 501
f 501 525 526
f 501 526 502
f 502 526 527
f 502 527 503
f 503 527 528
f 528 527 552
f 528 552 553
f 528 553 529
f 529 553 554
f 529 554 530
f 530 554 555
f 530 555 531
f 531 555 556
f 531 556 532
f 532 556 557
f 532 557 533
f 533 557 558
f 533 558 534
f 534 558 559
f 534 559 535
f 535 559 560
f 535 560 536
f 536 560 561
f 536 561 537
f 537 561 562
f 537 562 538
f 538 562 563
f 538 563 539
f 539 563 564
f 539 564 540
f 540 564 565
f 563 562 586
f 586 562 585
f 585 562 561
f 556 555 579
f 579 555 578
f 578 555 554
f 578 554 577
f 577 554 553
f 577 553 576
f 576 553 552
f 552 527 551
f 551 527 526
f 551 526 550
f 550 526 525
f 550 525 549
f 549 525 524
f 549 524 548
f 549 548 572
f 548 524 523
g back_right_panel
v 0.02007 0.52945 -0.24782
v 0.02100 1.31061 -0.24669
v -0.06601 1.34214 -0.22768
v -0.20047 1.37898 -0.09049
v -0.20170 1.30552 -0.15511
v -0.17716 1.21050 -0.15853
v -0.17233 1.16597 -0.13257
v -0.17565 1.12507 -0.09817
v -0.16240 1.10271 -0.02338
v -0.19815 0.87877 -0.03076
v -0.19591 0.53772 -0.08665
v -0.16944 0.51945 -0.13889
v -0.14110 0.51082 -0.18462
v -0.10105 0.50480 -0.21995
v -0.05240 0.50155 -0.24238
v -0.00007 0.49963 -0.25000
v -0.17794 0.56504 -0.11599
v -0.17794 0.59740 -0.11586
v -0.17796 0.62995 -0.11571
v -0.17808 0.66422 -0.11452
v -0.18433 0.70436 -0.10052
v -0.19553 0.71945 -0.04890
v -0.18836 0.75628 -0.04887
v -0.18626 0.79840 -0.05192
v -0.17566 0.82722 -0.08897
v -0.17264 0.85694 -0.09198
v -0.17404 0.88320 -0.09736
v -0.17455 0.91591 -0.09597
v -0.16908 0.94547 -0.05571
v -0.16911 0.99180 -0.05520
v -0.17350 1.02769 -0.07162
v -0.17363 1.05259 -0.09365
v -0.17336 1.08136 -0.09667
v -0.16860 0.56411 -0.14117
v -0.16862 0.59616 -0.14111
v -0.16868 0.62877 -0.14091
v -0.16917 0.66339 -0.13864
v -0.17168 0.69564 -0.12525
v -0.17435 0.72567 -0.11122
v -0.17300 0.75892 -0.11172
v -0.17073 0.78982 -0.12139
v -0.16948 0.82197 -0.13361
v -0.16910 0.85358 -0.13640
v -0.16947 0.88657 -0.13538
v -0.16793 0.92025 -0.12724
v -0.16786 0.95247 -0.10858
v -0.16809 0.98408 -0.11638
v -0.16898 1.01486 -0.12810
v -0.16957 1.04646 -0.13406
v -0.16898 1.07648 -0.13792
v -0.16915 1.10751 -0.13779
v -0.16874 1.13858 -0.13964
v -0.15544 0.56400 -0.16532
v -0.15545 0.59609 -0.16530
v -0.15558 0.62859 -0.16503
v -0.15616 0.66181 -0.16347
v -0.15751 0.69448 -0.15950
v -0.15820 0.72618 -0.15688
v -0.15766 0.75735 -0.15844
v -0.15675 0.78843 -0.16166
v -0.15594 0.82034 -0.16425
v -0.15571 0.85218 -0.16475
v -0.15611 0.88503 -0.16354
v -0.15629 0.91644 -0.16274
v -0.15730 0.94934 -0.15761
v -0.15694 0.98093 -0.15998
v -0.15633 1.01198 -0.16286
v -0.15613 1.04343 -0.16370
v -0.15563 1.07587 -0.16493
v -0.15562 1.10782 -0.16497
v -0.15551 1.13998 -0.16517
v -0.15518 1.17198 -0.16591
v -0.15629 1.20452 -0.16682
v -0.16074 1.24129 -0.16889
v -0.17878 1.29574 -0.17361
v -0.13883 0.53198 -0.18725
v -0.13880 0.56401 -0.18731
v -0.13881 0.59606 -0.18729
v -0.13892 0.62826 -0.18714
v -0.13918 0.66055 -0.18675
v -0.13953 0.69267 -0.18620
v -0.13962 0.72449 -0.18605
v -0.13937 0.75621 -0.18645
v -0.13907 0.78805 -0.18693
v -0.13886 0.82004 -0.18722
v -0.13890 0.85216 -0.18717
v -0.13898 0.88420 -0.18705
v -0.13923 0.91651 -0.18666
v -0.13947 0.94834 -0.18627
v -0.13922 0.98012 -0.18668
v -0.13898 1.01202 -0.18705
v -0.13890 1.04400 -0.18717
v -0.13881 1.07600 -0.18729
v -0.13881 1.10800 -0.18729
v -0.13877 1.13995 -0.18735
v -0.13873 1.17210 -0.18741
v -0.13910 1.20483 -0.18707
v -0.14041 1.23820 -0.18562
v -0.14166 1.26801 -0.18465
v -0.11908 0.53200 -0.20658
v -0.11907 0.56400 -0.20659
v -0.11906 0.59602 -0.20659
v -0.11907 0.62804 -0.20657
v -0.11911 0.66006 -0.20653
v -0.11914 0.69205 -0.20650
v -0.11913 0.72401 -0.20651
v -0.11908 0.75598 -0.20656
v -0.11904 0.78797 -0.20660
v -0.11903 0.81998 -0.20661
v -0.11904 0.85199 -0.20660
v -0.11907 0.88402 -0.20658
v -0.11910 0.91603 -0.20654
v -0.11911 0.94800 -0.20653
v -0.11907 0.97998 -0.20657
v -0.11904 1.01197 -0.20660
v -0.11903 1.04397 -0.20662
v -0.11902 1.07597 -0.20662
v -0.11902 1.10796 -0.20663
v -0.11901 1.13997 -0.20663
v -0.11904 1.17204 -0.20660
v -0.11920 1.20427 -0.20644
v -0.11936 1.23633 -0.20628
v -0.11966 1.26934 -0.20550
v -0.13205 1.31530 -0.19822
v -0.09671 0.53200 -0.22271
v -0.09658 0.56401 -0.22277
v -0.09641 0.59595 -0.22285
v -0.09628 0.62785 -0.22291
v -0.09624 0.65978 -0.22293
v -0.09624 0.69177 -0.22293
v -0.09623 0.72376 -0.22293
v -0.09623 0.75576 -0.22294
v -0.09623 0.78776 -0.22294
v -0.09623 0.81976 -0.22294
v -0.09623 0.85177 -0.22294
v -0.09623 0.88377 -0.22293
v -0.09623 0.91577 -0.22293
v -0.09623 0.94776 -0.22293
v -0.09622 0.97976 -0.22294
v -0.09622 1.01176 -0.22294
v -0.09622 1.04376 -0.22294
v -0.09622 1.07576 -0.22294
v -0.09622 1.10776 -0.22294
v -0.09622 1.13976 -0.22294
v -0.09623 1.17179 -0.22293
v -0.09620 1.20390 -0.22294
v -0.09653 1.23634 -0.22275
v -0.09738 1.26913 -0.22137
v -0.09951 1.29882 -0.21979
v -0.07215 0.53201 -0.23535
v -0.07103 0.56406 -0.23563
v -0.06996 0.59557 -0.23586
v -0.06951 0.62708 -0.23595
v -0.06950 0.65900 -0.23596
v -0.06950 0.69100 -0.23596
v -0.06950 0.72299 -0.23596
v -0.06950 0.75499 -0.23596
v -0.06949 0.78699 -0.23596
v -0.06949 0.81899 -0.23596
v -0.06949 0.85099 -0.23596
v -0.06949 0.88299 -0.23596
v -0.06949 0.91498 -0.23596
v -0.06947 0.94697 -0.23596
v -0.06945 0.97894 -0.23597
v -0.06944 1.01093 -0.23597
v -0.06944 1.04293 -0.23597
v -0.06944 1.07493 -0.23597
v -0.06944 1.10693 -0.23597
v -0.06944 1.13893 -0.23597
v -0.06944 1.17090 -0.23597
v -0.06890 1.20261 -0.23613
v -0.06990 1.23508 -0.23581
v -0.06981 1.26699 -0.23576
v -0.07074 1.29789 -0.23567
v -0.04558 0.53218 -0.24425
v -0.03949 0.56456 -0.24417
v -0.03620 0.59478 -0.24424
v -0.03625 0.62654 -0.24426
v -0.03625 0.65851 -0.24426
v -0.03624 0.69049 -0.24426
v -0.03623 0.72247 -0.24426
v -0.03623 0.75446 -0.24426
v -0.03622 0.78645 -0.24426
v -0.03622 0.81845 -0.24426
v -0.03622 0.85044 -0.24426
v -0.03622 0.88240 -0.24426
v -0.03624 0.91424 -0.24428
v -0.03616 0.94598 -0.24427
v -0.03608 0.97781 -0.24426
v -0.03607 1.00978 -0.24426
v -0.03607 1.04177 -0.24426
v -0.03607 1.07377 -0.24426
v -0.03608 1.10576 -0.24426
v -0.03608 1.13774 -0.24426
v -0.03604 1.16969 -0.24427
v -0.03607 1.20175 -0.24427
v -0.03619 1.23374 -0.24424
v -0.03626 1.26580 -0.24424
v -0.04118 1.29722 -0.24375
v -0.01693 0.53310 -0.24890
v 0.00316 0.56501 -0.24686
v 0.00391 0.59854 -0.24687
v 0.00400 0.63073 -0.24689
v 0.00403 0.66265 -0.24689
v 0.00405 0.69456 -0.24690
v 0.00407 0.72649 -0.24690
v 0.00408 0.75843 -0.24691
v 0.00409 0.79039 -0.24691
v 0.00409 0.82235 -0.24691
v 0.00410 0.85428 -0.24691
v 0.00409 0.88591 -0.24691
v 0.00394 0.91593 -0.24714
v 0.00383 0.94590 -0.24692
v 0.00381 0.97756 -0.24692
v 0.00380 1.00950 -0.24692
v 0.00379 1.04146 -0.24692
v 0.00377 1.07343 -0.24692
v 0.00375 1.10538 -0.24692
v 0.00372 1.13731 -0.24692
v 0.00368 1.16922 -0.24691
v 0.00360 1.20115 -0.24691
v 0.00345 1.23339 -0.24689
v 0.00305 1.26745 -0.24687
v -0.01353 1.30010 -0.24791
f 638 639 709
f 638 709 758
f 638 758 637
f 637 758 783
f 637 783 808
f 637 808 833
f 637 833 858
f 637 858 636
f 636 858 857
f 636 857 856
f 636 856 855
f 636 855 854
f 636 854 853
f 636 853 852
f 636 852 851
f 636 851 850
f 636 850 849
f 636 849 848
f 636 848 847
f 636 847 846
f 636 846 650
f 650 846 845
f 650 845 844
f 650 844 843
f 650 843 842
f 650 842 841
f 650 841 840
f 650 840 839
f 650 839 838
f 650 838 837
f 650 837 836
f 650 836 835
f 650 835 834
f 650 834 649
f 649 834 809
f 649 809 784
f 649 784 648
f 648 784 759
f 648 759 734
f 648 734 647
f 647 734 710
f 647 710 646
f 646 710 687
f 646 687 668
f 646 668 651
f 646 651 645
f 645 651 652
f 645 652 653
f 645 653 654
f 645 654 655
f 645 655 644
f 643 644 663
f 643 663 664
f 643 664 665
f 643 665 666
f 643 666 667
f 643 667 642
f 642 667 685
f 642 685 686
f 642 686 641
f 639 640 708
f 639 708 709
f 709 708 732
f 709 732 733
f 709 733 758
f 758 733 757
f 758 757 782
f 758 782 783
f 783 782 807
f 783 807 808
f 808 807 832
f 808 832 833
f 833 832 857
f 833 857 858
f 857 832 856
f 856 832 831
f 856 831 855
f 855 831 830
f 855 830 854
f 854 830 829
f 854 829 853
f 853 829 828
f 853 828 852
f 852 828 827
f 852 827 851
f 851 827 826
f 851 826 850
f 850 826 825
f 850 825 849
f 849 825 824
f 849 824 848
f 848 824 823
f 848 823 847
f 847 823 822
f 847 822 846
f 846 822 821
f 846 821 845
f 845 821 820
f 845 820 844
f 844 820 819
f 844 819 843
f 843 819 818
f 843 818 842
f 842 818 817
f 842 817 841
f 841 817 816
f 841 816 840
f 840 816 815
f 840 815 839
f 839 815 814
f 839 814 838
f 838 814 813
f 838 813 837
f 837 813 812
f 837 812 836
f 836 812 811
f 836 811 835
f 835 811 810
f 835 810 834
f 834 810 809
f 809 810 785
f 809 785 784
f 784 785 760
f 784 760 759
f 759 760 735
f 759 735 734
f 734 735 711
f 734 711 710
f 710 711 687
f 687 711 688
f 687 688 669
f 687 669 668
f 668 669 652
f 668 652 651
f 652 669 653
f 653 669 670
f 653 670 654
f 654 670 671
f 654 671 655
f 655 671 672
f 655 672 656
f 655 656 644
f 644 656 657
f 644 657 658
f 644 658 659
f 644 659 660
f 644 660 661
f 644 661 662
f 644 662 663
f 663 662 679
f 663 679 680
f 663 680 664
f 664 680 681
f 664 681 665
f 665 681 682
f 665 682 666
f 666 682 683
f 666 683 667
f 667 683 684
f 667 684 685
f 685 684 704
f 685 704 686
f 686 704 705
f 686 705 706
f 686 706 641
f 641 706 707
f 641 707 640
f 640 707 708
f 708 707 731
f 708 731 732
f 732 731 755
f 732 755 756
f 732 756 733
f 733 756 757
f 757 756 781
f 757 781 782
f 782 781 806
f 782 806 807
f 807 806 831
f 807 831 832
f 831 806 830
f 830 806 805
f 830 805 829
f 829 805 804
f 829 804 828
f 828 804 803
f 828 803 827
f 827 803 802
f 827 802 826
f 826 802 801
f 826 801 825
f 825 801 800
f 825 800 824
f 824 800 799
f 824 799 823
f 823 799 798
f 823 798 822
f 822 798 797
f 822 797 821
f 821 797 796
f 821 796 820
f 820 796 795
f 820 795 819
f 819 795 794
f 819 794 818
f 818 794 793
f 818 793 817
f 817 793 792
f 817 792 816
f 816 792 791
f 816 791 815
f 815 791 790
f 815 790 814
f 814 790 789
f 814 789 813
f 813 789 788
f 813 788 812
f 812 788 787
f 812 787 811
f 811 787 786
f 811 786 810
f 810 786 785
f 785 786 761
f 785 761 760
f 760 761 736
f 760 736 735
f 735 736 712
f 735 712 711
f 711 712 688
f 688 712 689
f 688 689 670
f 688 670 669
f 670 689 671
f 671 689 690
f 671 690 672
f 672 690 691
f 672 691 673
f 672 673 656
f 656 673 657
f 657 673 674
f 657 674 658
f 658 674 675
f 658 675 659
f 659 675 676
f 659 676 660
f 660 676 677
f 660 677 661
f 661 677 678
f 661 678 662
f 662 678 679
f 679 678 697
f 679 697 698
f 679 698 699
f 679 699 680
f 680 699 681
f 681 699 700
f 681 700 682
f 682 700 701
f 682 701 702
f 682 702 683
f 683 702 684
f 684 702 703
f 684 703 704
f 704 703 727
f 704 727 728
f 704 728 705
f 705 728 729
f 705 729 706
f 706 729 730
f 706 730 707
f 707 730 731
f 731 730 754
f 731 754 755
f 755 754 779
f 755 779 780
f 755 780 756
f 756 780 781
f 781 780 806
f 806 780 805
f 805 780 804
f 804 780 779
f 804 779 803
f 803 779 778
f 803 778 802
f 802 778 777
f 802 777 801
f 801 777 776
f 801 776 800
f 800 776 775
f 800 775 799
f 799 775 774
f 799 774 798
f 798 774 773
f 798 773 797
f 797 773 772
f 797 772 796
f 796 772 771
f 796 771 795
f 795 771 770
f 795 770 794
f 794 770 769
f 794 769 793
f 793 769 768
f 793 768 792
f 792 768 767
f 792 767 791
f 791 767 766
f 791 766 790
f 790 766 765
f 790 765 789
f 789 765 764
f 789 764 788
f 788 764 763
f 788 763 787
f 787 763 762
f 787 762 786
f 786 762 761
f 761 762 737
f 761 737 736
f 736 737 713
f 736 713 712
f 712 713 689
f 689 713 690
f 690 713 714
f 690 714 691
f 691 714 715
f 691 715 692
f 691 692 673
f 673 692 674
f 674 692 693
f 674 693 675
f 675 693 694
f 675 694 676
f 676 694 695
f 676 695 677
f 677 695 696
f 677 696 697
f 677 697 678
f 697 696 720
f 697 720 721
f 697 721 698
f 698 721 722
f 698 722 699
f 699 722 723
f 699 723 700
f 700 723 724
f 700 724 701
f 701 724 725
f 701 725 702
f 702 725 726
f 702 726 703
f 703 726 727
f 727 726 750
f 727 750 751
f 727 751 728
f 728 751 752
f 728 752 729
f 729 752 753
f 729 753 730
f 730 753 754
f 754 753 778
f 754 778 779
f 778 753 777
f 777 753 752
f 777 752 776
f 776 752 751
f 776 751 775
f 775 751 750
f 775 750 774
f 774 750 749
f 774 749 773
f 773 749 748
f 773 748 772
f 772 748 747
f 772 747 771
f 771 747 746
f 771 746 770
f 770 746 745
f 770 745 769
f 769 745 744
f 769 744 768
f 768 744 743
f 768 743 767
f 767 743 742
f 767 742 766
f 766 742 741
f 766 741 765
f 765 741 740
f 765 740 764
f 764 740 739
f 764 739 763
f 763 739 738
f 763 738 762
f 762 738 737
f 737 738 714
f 737 714 713
f 714 738 715
f 715 738 739
f 715 739 716
f 715 716 692
f 692 716 693
f 693 716 717
f 693 717 694
f 694 717 718
f 694 718 695
f 695 718 719
f 695 719 696
f 696 719 720
f 720 719 743
f 720 743 744
f 720 744 721
f 721 744 745
f 721 745 722
f 722 745 746
f 722 746 723
f 723 746 747
f 723 747 724
f 724 747 748
f 724 748 725
f 725 748 749
f 725 749 726
f 726 749 750
f 743 719 742
f 742 719 718
f 742 718 741
f 741 718 717
f 741 717 740
f 740 717 716
f 740 716 739
g left_sleeve
v 0.49512 0.82732 -0.16282
v 0.52786 0.84705 -0.13834
v 0.54075 0.85434 -0.08951
v 0.52137 0.84338 -0.04360
v 0.48455 0.82140 -0.02132
v 0.43863 0.79662 -0.04360
v 0.41925 0.78566 -0.08951
v 0.43214 0.79295 -0.13834
v 0.46826 0.81169 -0.16268
v 0.45756 0.83714 -0.16677
v 0.44518 0.86395 -0.16678
v 0.43153 0.89050 -0.16816
v 0.41783 0.91702 -0.16952
v 0.40409 0.94352 -0.17085
v 0.39033 0.97000 -0.17216
v 0.37654 0.99647 -0.17345
v 0.36273 1.02293 -0.17473
v 0.34891 1.04938 -0.17600
v 0.33533 1.07596 -0.17712
v 0.32065 1.10184 -0.17861
v 0.30610 1.12755 -0.18017
v 0.29175 1.15302 -0.18185
v 0.29612 1.18633 -0.17525
v 0.25939 1.20336 -0.18456
v 0.26001 1.20441 -0.18417
v 0.25249 1.22326 -0.18608
v 0.23961 1.24397 -0.16137
v 0.28714 1.28706 -0.14576
v 0.30448 1.31402 -0.09072
v 0.27743 1.30908 -0.02951
v 0.22001 1.28000 -0.00301
v 0.17632 1.23800 -0.00620
v 0.16810 1.16410 -0.07759
v 0.17114 1.20332 -0.17750
v 0.23856 1.24334 -0.16148
v 0.25246 1.22317 -0.18609
v 0.27122 1.20561 -0.18356
v 0.25934 1.20324 -0.18460
v 0.28849 1.18416 -0.17768
v 0.29165 1.15289 -0.18187
v 0.30607 1.12752 -0.18018
v 0.32064 1.10184 -0.17861
v 0.33534 1.07597 -0.17712
v 0.35110 1.05062 -0.17599
v 0.36663 1.02513 -0.17473
v 0.38217 0.99965 -0.17345
v 0.39773 0.97419 -0.17216
v 0.41333 0.94874 -0.17085
v 0.42895 0.92330 -0.16952
v 0.44460 0.89789 -0.16816
v 0.46030 0.87250 -0.16678
v 0.47605 0.84768 -0.16617
v 0.29663 1.18657 -0.17514
v 0.39163 1.05200 -0.16606
v 0.38274 1.07832 -0.16438
v 0.37379 1.10450 -0.16244
v 0.36455 1.13073 -0.16030
v 0.35514 1.15697 -0.15797
v 0.34372 1.18297 -0.15601
v 0.33204 1.20670 -0.15407
v 0.30694 1.25642 -0.14913
v 0.48776 0.88704 -0.15536
v 0.47896 0.91339 -0.15296
v 0.46982 0.93955 -0.15032
v 0.46035 0.96553 -0.14751
v 0.45058 0.99133 -0.14455
v 0.44053 1.01698 -0.14150
v 0.43022 1.04248 -0.13837
v 0.41966 1.06784 -0.13519
v 0.40889 1.09307 -0.13198
v 0.39793 1.11820 -0.12874
v 0.38677 1.14323 -0.12549
v 0.37522 1.16825 -0.12245
v 0.36346 1.19305 -0.11956
v 0.35151 1.21788 -0.11671
v 0.32794 1.26663 -0.11073
v 0.31561 1.29083 -0.10823
v 0.52451 0.87648 -0.12015
v 0.51326 0.90145 -0.11637
v 0.50177 0.92629 -0.11266
v 0.49006 0.95099 -0.10900
v 0.47816 0.97559 -0.10542
v 0.46608 1.00009 -0.10192
v 0.45386 1.02451 -0.09850
v 0.44149 1.04885 -0.09515
v 0.42901 1.07312 -0.09189
v 0.41642 1.09733 -0.08870
v 0.40373 1.12149 -0.08559
v 0.39095 1.14561 -0.08259
v 0.37808 1.16969 -0.07969
v 0.36515 1.19374 -0.07689
v 0.35218 1.21773 -0.07405
v 0.32607 1.26564 -0.06873
v 0.31297 1.28953 -0.06610
v 0.52477 0.87663 -0.07065
v 0.51140 0.90040 -0.06766
v 0.49798 0.92414 -0.06479
v 0.48452 0.94786 -0.06202
v 0.47102 0.97156 -0.05936
v 0.45749 0.99524 -0.05678
v 0.44394 1.01890 -0.05430
v 0.43036 1.04256 -0.05189
v 0.41677 1.06620 -0.04955
v 0.40317 1.08984 -0.04729
v 0.38956 1.11348 -0.04508
v 0.37594 1.13711 -0.04294
v 0.36231 1.16074 -0.04086
v 0.34868 1.18436 -0.03882
v 0.33505 1.20799 -0.03682
v 0.30778 1.25522 -0.03296
v 0.29414 1.27883 -0.03108
v 0.49686 0.86085 -0.03294
v 0.48303 0.88437 -0.03139
v 0.46922 0.90789 -0.02987
v 0.45544 0.93142 -0.02838
v 0.44167 0.95497 -0.02692
v 0.42791 0.97852 -0.02547
v 0.41418 1.00208 -0.02405
v 0.40045 1.02565 -0.02265
v 0.38674 1.04923 -0.02127
v 0.37305 1.07282 -0.01990
v 0.35936 1.09641 -0.01855
v 0.34569 1.12001 -0.01721
v 0.33203 1.14361 -0.01588
v 0.31837 1.16722 -0.01457
v 0.30473 1.19084 -0.01326
v 0.27747 1.23808 -0.01068
v 0.26386 1.26172 -0.00940
v 0.45429 0.83679 -0.02528
v 0.44106 0.86064 -0.02408
v 0.42782 0.88449 -0.02288
v 0.41457 0.90833 -0.02169
v 0.40132 0.93216 -0.02050
v 0.38805 0.95599 -0.01932
v 0.37478 0.97981 -0.01814
v 0.36149 1.00363 -0.01696
v 0.34820 1.02745 -0.01579
v 0.33491 1.05126 -0.01461
v 0.32161 1.07507 -0.01344
v 0.30830 1.09887 -0.01228
v 0.29499 1.12268 -0.01111
v 0.28167 1.14648 -0.00995
v 0.26835 1.17027 -0.00879
v 0.24169 1.21786 -0.00647
v 0.22836 1.24165 -0.00531
v 0.41767 0.81610 -0.05137
v 0.40460 0.84004 -0.04905
v 0.39153 0.86398 -0.04681
v 0.37847 0.88792 -0.04466
v 0.36540 0.91186 -0.04257
v 0.35232 0.93580 -0.04054
v 0.33925 0.95973 -0.03858
v 0.32616 0.98366 -0.03666
v 0.31307 1.00759 -0.03480
v 0.29998 1.03152 -0.03297
v 0.28687 1.05544 -0.03119
v 0.27376 1.07935 -0.02945
v 0.26064 1.10326 -0.02774
v 0.24752 1.12717 -0.02606
v 0.23438 1.15107 -0.02442
v 0.20809 1.19886 -0.02121
v 0.19493 1.22274 -0.01964
v 0.40473 0.80878 -0.09858
v 0.39024 0.83192 -0.09494
v 0.37591 0.85515 -0.09141
v 0.36172 0.87845 -0.08799
v 0.34764 0.90182 -0.08468
v 0.33366 0.92525 -0.08147
v 0.31977 0.94872 -0.07836
v 0.30596 0.97224 -0.07535
v 0.29221 0.99580 -0.07242
v 0.27853 1.01939 -0.06958
v 0.26489 1.04301 -0.06683
v 0.25130 1.06666 -0.06414
v 0.23775 1.09033 -0.06153
v 0.22424 1.11402 -0.05899
v 0.21076 1.13772 -0.05651
v 0.18133 1.18165 -0.04603
v 0.17467 1.19622 -0.04011
v 0.42174 0.81840 -0.14406
v 0.40453 0.84000 -0.14086
v 0.38766 0.86179 -0.13754
v 0.37110 0.88376 -0.13416
v 0.35483 0.90588 -0.13073
v 0.33881 0.92816 -0.12729
v 0.32302 0.95056 -0.12385
v 0.30745 0.97309 -0.12043
v 0.29203 0.99569 -0.11705
v 0.27290 1.01453 -0.11371
v 0.25538 1.03725 -0.11425
v 0.23912 1.05971 -0.10565
v 0.22768 1.08425 -0.10485
v 0.21054 1.10490 -0.10168
v 0.19003 1.12207 -0.09887
v 0.17068 1.16638 -0.09267
v 0.17047 1.16877 -0.08969
v 0.36591 0.94348 -0.16143
v 0.34789 0.96462 -0.15945
v 0.33016 0.98592 -0.15723
v 0.31270 1.00738 -0.15483
v 0.29555 1.02904 -0.15228
v 0.27859 1.05071 -0.14956
v 0.26177 1.07256 -0.14676
v 0.24522 1.09456 -0.14387
v 0.22500 1.11308 -0.14365
v 0.19936 1.12782 -0.14885
v 0.16886 1.17742 -0.14271
v 0.29179 1.08928 -0.17264
v 0.27337 1.11041 -0.17148
v 0.25508 1.13149 -0.17003
v 0.24035 1.15547 -0.16840
v 0.21094 1.20458 -0.16498
f 885 884 919
f 885 919 886
f 886 919 935
f 886 935 887
f 887 935 952
f 887 952 888
f 888 952 969
f 888 969 986
f 888 986 889
f 889 986 1003
f 889 1003 1020
f 889 1020 890
f 890 1020 1037
f 890 1037 891
f 891 1037 1054
f 891 1054 892
f 892 1054 1065
f 892 1065 1070
f 892 1070 893
f 893 1070 894
f 894 1070 895
f 895 1070 1069
f 895 1069 881
f 867 868 1038
f 867 1038 866
f 866 1038 1021
f 866 1021 865
f 865 1021 1004
f 865 1004 864
f 864 1004 987
f 864 987 863
f 863 987 970
f 863 970 862
f 862 970 953
f 862 953 861
f 861 953 936
f 861 936 860
f 860 936 910
f 860 910 859
f 905 906 924
f 905 924 925
f 905 925 904
f 897 898 911
f 897 911 896
f 896 911 919
f 896 919 884
f 919 911 918
f 919 918 933
f 919 933 934
f 919 934 935
f 935 934 951
f 935 951 952
f 952 951 968
f 952 968 969
f 969 968 985
f 969 985 986
f 986 985 1002
f 986 1002 1003
f 1003 1002 1019
f 1003 1019 1020
f 1020 1019 1036
f 1020 1036 1037
f 1037 1036 1053
f 1037 1053 1054
f 1054 1053 1065
f 1065 1053 1064
f 1065 1064 1069
f 1065 1069 1070
f 1069 1064 1068
f 1069 1068 880
f 1069 880 881
f 873 874 1056
f 873 1056 1055
f 873 1055 872
f 871 872 1042
f 871 1042 1041
f 871 1041 870
f 870 1041 1040
f 870 1040 869
f 869 1040 1039
f 869 1039 868
f 868 1039 1038
f 1038 1039 1022
f 1038 1022 1021
f 1021 1022 1005
f 1021 1005 1004
f 1004 1005 988
f 1004 988 987
f 987 988 971
f 987 971 970
f 970 971 954
f 970 954 953
f 953 954 937
f 953 937 936
f 936 937 920
f 936 920 910
f 910 920 909
f 909 920 921
f 909 921 908
f 908 921 922
f 908 922 907
f 907 922 923
f 907 923 906
f 906 923 924
f 924 923 940
f 924 940 941
f 924 941 925
f 925 941 942
f 925 942 926
f 925 926 904
f 904 926 912
f 904 912 903
f 902 903 912
f 902 912 913
f 902 913 901
f 899 900 916
f 899 916 917
f 899 917 898
f 898 917 911
f 911 917 918
f 918 917 932
f 918 932 933
f 933 932 949
f 933 949 950
f 933 950 934
f 934 950 951
f 951 950 967
f 951 967 968
f 968 967 984
f 968 984 985
f 985 984 1002
f 1002 984 1001
f 1002 1001 1019
f 1019 1001 1018
f 1019 1018 1035
f 1019 1035 1036
f 1036 1035 1052
f 1036 1052 1053
f 1053 1052 1064
f 1064 1052 1063
f 1064 1063 1068
f 1068 1063 1067
f 1068 1067 879
f 1068 879 880
f 879 1067 1066
f 879 1066 878
f 876 877 1059
f 876 1059 1058
f 876 1058 875
f 874 875 1057
f 874 1057 1056
f 1056 1057 1045
f 1056 1045 1044
f 1056 1044 1055
f 1055 1044 1043
f 1055 1043 1042
f 1055 1042 872
f 1042 1043 1026
f 1042 1026 1025
f 1042 1025 1041
f 1041 1025 1024
f 1041 1024 1040
f 1040 1024 1023
f 1040 1023 1039
f 1039 1023 1022
f 1022 1023 1006
f 1022 1006 1005
f 1005 1006 989
f 1005 989 988
f 988 989 972
f 988 972 971
f 971 972 955
f 971 955 954
f 954 955 938
f 954 938 937
f 937 938 921
f 937 921 920
f 921 938 922
f 922 938 939
f 922 939 923
f 923 939 940
f 940 939 956
f 940 956 957
f 940 957 941
f 941 957 958
f 941 958 942
f 942 958 959
f 942 959 943
f 942 943 926
f 926 943 927
f 926 927 912
f 912 927 913
f 913 927 928
f 913 928 914
f 913 914 901
f 901 914 900
f 900 914 915
f 900 915 916
f 916 915 930
f 916 930 931
f 916 931 917
f 917 931 932
f 932 931 948
f 932 948 949
f 949 948 965
f 949 965 966
f 949 966 950
f 950 966 967
f 967 966 983
f 967 983 984
f 984 983 1000
f 984 1000 1001
f 1001 1000 1017
f 1001 1017 1018
f 1018 1017 1034
f 1018 1034 1035
f 1035 1034 1051
f 1035 1051 1052
f 1052 1051 1063
f 1063 1051 1062
f 1063 1062 1067
f 1067 1062 1066
f 1066 1062 1061
f 1066 1061 1060
f 1066 1060 877
f 1066 877 878
f 877 1060 1059
f 1059 1060 1048
f 1059 1048 1047
f 1059 1047 1058
f 1058 1047 1046
f 1058 1046 1057
f 1058 1057 875
f 1057 1046 1045
f 1045 1046 1029
f 1045 1029 1028
f 1045 1028 1044
f 1044 1028 1027
f 1044 1027 1043
f 1043 1027 1026
f 1026 1027 1010
f 1026 1010 1009
f 1026 1009 1025
f 1025 1009 1008
f 1025 1008 1024
f 1024 1008 1007
f 1024 1007 1023
f 1023 1007 1006
f 1006 1007 990
f 1006 990 989
f 989 990 973
f 989 973 972
f 972 973 956
f 972 956 955
f 955 956 939
f 955 939 938
f 956 973 957
f 957 973 974
f 957 974 958
f 958 974 975
f 958 975 959
f 959 975 976
f 959 976 960
f 959 960 943
f 943 960 944
f 943 944 927
f 927 944 928
f 928 944 945
f 928 945 929
f 928 929 914
f 914 929 915
f 915 929 930
f 930 929 946
f 930 946 947
f 930 947 931
f 931 947 948
f 948 947 964
f 948 964 965
f 965 964 981
f 965 981 982
f 965 982 966
f 966 982 983
f 983 982 999
f 983 999 1000
f 1000 999 1016
f 1000 1016 1017
f 1017 1016 1033
f 1017 1033 1034
f 1034 1033 1050
f 1034 1050 1051
f 1051 1050 1062
f 1062 1050 1061
f 1061 1050 1049
f 1061 1049 1060
f 1060 1049 1048
f 1048 1049 1032
f 1048 1032 1031
f 1048 1031 1047
f 1047 1031 1030
f 1047 1030 1046
f 1046 1030 1029
f 1029 1030 1013
f 1029 1013 1012
f 1029 1012 1028
f 1028 1012 1011
f 1028 1011 1027
f 1027 1011 1010
f 1010 1011 994
f 1010 994 993
f 1010 993 1009
f 1009 993 992
f 1009 992 1008
f 1008 992 991
f 1008 991 1007
f 1007 991 990
f 990 991 974
f 990 974 973
f 974 991 975
f 975 991 992
f 975 992 976
f 976 992 993
f 976 993 977
f 976 977 960
f 960 977 961
f 960 961 944
f 944 961 945
f 945 961 962
f 945 962 946
f 945 946 929
f 946 962 963
f 946 963 947
f 947 963 964
f 964 963 980
f 964 980 981
f 981 980 997
f 981 997 998
f 981 998 982
f 982 998 999
f 999 998 1015
f 999 1015 1016
f 1016 1015 1032
f 1016 1032 1033
f 1033 1032 1049
f 1033 1049 1050
f 1032 1015 1031
f 1031 1015 1014
f 1031 1014 1030
f 1030 1014 1013
f 1013 1014 997
f 1013 997 996
f 1013 996 1012
f 1012 996 995
f 1012 995 1011
f 1011 995 994
f 994 995 978
f 994 978 977
f 994 977 993
f 977 978 961
f 961 978 962
f 962 978 979
f 962 979 963
f 963 979 980
f 980 979 996
f 980 996 997
f 996 979 995
f 995 979 978
f 997 1014 998
f 998 1014 1015
g right_sleeve
v -0.49281 0.82850 -0.16581
v -0.52786 0.84705 -0.13834
v -0.54075 0.85434 -0.08951
v -0.52137 0.84338 -0.04360
v -0.48291 0.82025 -0.02080
v -0.43775 0.79570 -0.04263
v -0.41925 0.78566 -0.08951
v -0.43214 0.79295 -0.13834
v -0.46470 0.81125 -0.16572
v -0.45832 0.83736 -0.16643
v -0.44518 0.86395 -0.16678
v -0.43153 0.89050 -0.16816
v -0.41783 0.91702 -0.16952
v -0.40409 0.94352 -0.17085
v -0.39033 0.97000 -0.17216
v -0.37654 0.99647 -0.17345
v -0.36273 1.02293 -0.17473
v -0.34891 1.04938 -0.17600
v -0.33533 1.07596 -0.17712
v -0.32065 1.10184 -0.17861
v -0.30610 1.12755 -0.18017
v -0.29175 1.15302 -0.18185
v -0.29612 1.18632 -0.17525
v -0.25939 1.20335 -0.18456
v -0.26001 1.20441 -0.18417
v -0.25252 1.22323 -0.18612
v -0.23948 1.24376 -0.16145
v -0.28709 1.28700 -0.14577
v -0.30448 1.31401 -0.09073
v -0.27743 1.30909 -0.02951
v -0.22001 1.28001 -0.00301
v -0.17815 1.23963 -0.00680
v -0.17078 1.16036 -0.08213
v -0.17888 1.20052 -0.19376
v -0.23842 1.24312 -0.16157
v -0.25249 1.22314 -0.18613
v -0.27122 1.20561 -0.18355
v -0.25934 1.20324 -0.18460
v -0.28849 1.18416 -0.17768
v -0.29165 1.15289 -0.18187
v -0.30607 1.12752 -0.18018
v -0.32064 1.10184 -0.17861
v -0.33534 1.07597 -0.17712
v -0.35110 1.05062 -0.17599
v -0.36663 1.02513 -0.17473
v -0.38217 0.99965 -0.17345
v -0.39773 0.97419 -0.17216
v -0.41333 0.94874 -0.17085
v -0.42895 0.92330 -0.16952
v -0.44460 0.89789 -0.16816
v -0.46030 0.87250 -0.16678
v -0.47603 0.84712 -0.16537
v -0.29663 1.18656 -0.17514
v -0.39163 1.05200 -0.16606
v -0.38274 1.07832 -0.16438
v -0.37379 1.10450 -0.16244
v -0.36455 1.13073 -0.16030
v -0.35514 1.15697 -0.15797
v -0.34372 1.18297 -0.15601
v -0.33204 1.20670 -0.15407
v -0.30692 1.25641 -0.14913
v -0.48776 0.88704 -0.15536
v -0.47896 0.91339 -0.15296
v -0.46982 0.93955 -0.15032
v -0.46035 0.96553 -0.14751
v -0.45058 0.99133 -0.14455
v -0.44053 1.01698 -0.14150
v -0.43022 1.04248 -0.13837
v -0.41966 1.06784 -0.13519
v -0.40889 1.09307 -0.13198
v -0.39793 1.11820 -0.12874
v -0.38677 1.14323 -0.12549
v -0.37522 1.16825 -0.12245
v -0.36346 1.19305 -0.11956
v -0.35150 1.21788 -0.11671
v -0.32794 1.26663 -0.11074
v -0.31561 1.29083 -0.10823
v -0.52451 0.87648 -0.12015
v -0.51326 0.90145 -0.11637
v -0.50177 0.92629 -0.11266
v -0.49006 0.95099 -0.10900
v -0.47816 0.97559 -0.10542
v -0.46608 1.00009 -0.10192
v -0.45386 1.02451 -0.09850
v -0.44149 1.04885 -0.09515
v -0.42901 1.07312 -0.09189
v -0.41642 1.09733 -0.08870
v -0.40373 1.12149 -0.08559
v -0.39095 1.14561 -0.08259
v -0.37808 1.16969 -0.07969
v -0.36515 1.19374 -0.07689
v -0.35218 1.21773 -0.07405
v -0.32607 1.26564 -0.06873
v -0.31297 1.28953 -0.06611
v -0.52477 0.87663 -0.07065
v -0.51140 0.90040 -0.06766
v -0.49798 0.92414 -0.06479
v -0.48452 0.94786 -0.06202
v -0.47102 0.97156 -0.05936
v -0.45749 0.99524 -0.05678
v -0.44394 1.01890 -0.05430
v -0.43036 1.04256 -0.05189
v -0.41677 1.06620 -0.04955
v -0.40317 1.08984 -0.04729
v -0.38956 1.11348 -0.04508
v -0.37594 1.13711 -0.04294
v -0.36231 1.16074 -0.04086
v -0.34868 1.18436 -0.03882
v -0.33505 1.20799 -0.03682
v -0.30778 1.25522 -0.03296
v -0.29414 1.27883 -0.03108
v -0.49686 0.86085 -0.03294
v -0.48303 0.88437 -0.03139
v -0.46922 0.90789 -0.02987
v -0.45544 0.93142 -0.02838
v -0.44167 0.95497 -0.02692
v -0.42791 0.97852 -0.02547
v -0.41418 1.00208 -0.02405
v -0.40045 1.02565 -0.02265
v -0.38674 1.04923 -0.02127
v -0.37305 1.07282 -0.01990
v -0.35936 1.09641 -0.01855
v -0.34569 1.12001 -0.01721
v -0.33203 1.14361 -0.01588
v -0.31837 1.16722 -0.01457
v -0.30473 1.19084 -0.01326
v -0.27747 1.23808 -0.01068
v -0.26386 1.26172 -0.00940
v -0.45429 0.83679 -0.02528
v -0.44106 0.86064 -0.02408
v -0.42782 0.88449 -0.02288
v -0.41457 0.90833 -0.02169
v -0.40132 0.93216 -0.02050
v -0.38805 0.95599 -0.01932
v -0.37478 0.97981 -0.01814
v -0.36149 1.00363 -0.01696
v -0.34820 1.02745 -0.01579
v -0.33491 1.05126 -0.01461
v -0.32161 1.07507 -0.01344
v -0.30830 1.09887 -0.01228
v -0.29499 1.12268 -0.01111
v -0.28167 1.14648 -0.00995
v -0.26835 1.17027 -0.00879
v -0.24169 1.21786 -0.00647
v -0.22837 1.24165 -0.00530
v -0.41767 0.81610 -0.05137
v -0.40460 0.84004 -0.04905
v -0.39153 0.86398 -0.04681
v -0.37847 0.88792 -0.04466
v -0.36540 0.91186 -0.04257
v -0.35232 0.93580 -0.04054
v -0.33925 0.95973 -0.03858
v -0.32616 0.98366 -0.03666
v -0.31307 1.00759 -0.03480
v -0.29998 1.03152 -0.03297
v -0.28687 1.05544 -0.03119
v -0.27376 1.07935 -0.02945
v -0.26064 1.10326 -0.02774
v -0.24752 1.12717 -0.02606
v -0.23438 1.15108 -0.02442
v -0.20809 1.19887 -0.02120
v -0.19496 1.22277 -0.01961
v -0.40473 0.80878 -0.09858
v -0.39024 0.83192 -0.09494
v -0.37591 0.85515 -0.09141
v -0.36172 0.87845 -0.08799
v -0.34764 0.90182 -0.08468
v -0.33366 0.92525 -0.08147
v -0.31977 0.94872 -0.07836
v -0.30596 0.97224 -0.07535
v -0.29221 0.99580 -0.07242
v -0.27853 1.01939 -0.06958
v -0.26489 1.04301 -0.06683
v -0.25025 1.06597 -0.06360
v -0.23775 1.09033 -0.06153
v -0.22424 1.11402 -0.05899
v -0.21075 1.13772 -0.05651
v -0.17941 1.18157 -0.04850
v -0.17875 1.19646 -0.03780
v -0.42174 0.81840 -0.14406
v -0.40453 0.84000 -0.14086
v -0.38766 0.86179 -0.13754
v -0.37110 0.88376 -0.13416
v -0.35483 0.90588 -0.13073
v -0.33881 0.92816 -0.12729
v -0.32302 0.95056 -0.12385
v -0.30745 0.97309 -0.12043
v -0.29083 0.99461 -0.11731
v -0.27089 1.01286 -0.11398
v -0.25428 1.03678 -0.11363
v -0.23823 1.05904 -0.10487
v -0.22477 1.08252 -0.10202
v -0.20630 1.10134 -0.10018
v -0.18691 1.11949 -0.09870
v -0.17206 1.16326 -0.09056
v -0.17015 1.16617 -0.09186
v -0.36591 0.94348 -0.16143
v -0.34789 0.96462 -0.15945
v -0.33016 0.98592 -0.15723
v -0.31270 1.00738 -0.15483
v -0.29466 1.02826 -0.15270
v -0.27859 1.05071 -0.14956
v -0.26177 1.07256 -0.14676
v -0.24386 1.09337 -0.14491
v -0.22279 1.11089 -0.14630
v -0.19476 1.12662 -0.14839
v -0.16901 1.17593 -0.14364
v -0.29179 1.08928 -0.17264
v -0.27338 1.11041 -0.17148
v -0.25511 1.13149 -0.17003
v -0.24035 1.15547 -0.16842
v -0.21090 1.20456 -0.16499
f 1097 1096 1131
f 1097 1131 1098
f 1098 1131 1147
f 1098 1147 1099
f 1099 1147 1164
f 1099 1164 1100
f 1100 1164 1181
f 1100 1181 1198
f 1100 1198 1101
f 1101 1198 1215
f 1101 1215 1232
f 1101 1232 1102
f 1102 1232 1249
f 1102 1249 1103
f 1103 1249 1266
f 1103 1266 1104
f 1104 1266 1277
f 1104 1277 1282
f 1104 1282 1105
f 1105 1282 1106
f 1106 1282 1107
f 1107 1282 1281
f 1107 1281 1093
f 1079 1080 1250
f 1079 1250 1078
f 1078 1250 1233
f 1078 1233 1077
f 1077 1233 1216
f 1077 1216 1076
f 1076 1216 1199
f 1076 1199 1075
f 1075 1199 1182
f 1075 1182 1074
f 1074 1182 1165
f 1074 1165 1073
f 1073 1165 1148
f 1073 1148 1072
f 1072 1148 1122
f 1072 1122 1071
f 1117 1118 1136
f 1117 1136 1137
f 1117 1137 1116
f 1109 1110 1123
f 1109 1123 1108
f 1108 1123 1131
f 1108 1131 1096
f 1131 1123 1130
f 1131 1130 1145
f 1131 1145 1146
f 1131 1146 1147
f 1147 1146 1163
f 1147 1163 1164
f 1164 1163 1180
f 1164 1180 1181
f 1181 1180 1197
f 1181 1197 1198
f 1198 1197 1214
f 1198 1214 1215
f 1215 1214 1231
f 1215 1231 1232
f 1232 1231 1248
f 1232 1248 1249
f 1249 1248 1265
f 1249 1265 1266
f 1266 1265 1277
f 1277 1265 1276
f 1277 1276 1281
f 1277 1281 1282
f 1281 1276 1280
f 1281 1280 1092
f 1281 1092 1093
f 1085 1086 1268
f 1085 1268 1267
f 1085 1267 1084
f 1083 1084 1254
f 1083 1254 1253
f 1083 1253 1082
f 1082 1253 1252
f 1082 1252 1081
f 1081 1252 1251
f 1081 1251 1080
f 1080 1251 1250
f 1250 1251 1234
f 1250 1234 1233
f 1233 1234 1217
f 1233 1217 1216
f 1216 1217 1200
f 1216 1200 1199
f 1199 1200 1183
f 1199 1183 1182
f 1182 1183 1166
f 1182 1166 1165
f 1165 1166 1149
f 1165 1149 1148
f 1148 1149 1132
f 1148 1132 1122
f 1122 1132 1121
f 1121 1132 1133
f 1121 1133 1120
f 1120 1133 1134
f 1120 1134 1119
f 1119 1134 1135
f 1119 1135 1118
f 1118 1135 1136
f 1136 1135 1152
f 1136 1152 1153
f 1136 1153 1137
f 1137 1153 1154
f 1137 1154 1138
f 1137 1138 1116
f 1116 1138 1124
f 1116 1124 1115
f 1114 1115 1124
f 1114 1124 1125
f 1114 1125 1113
f 1111 1112 1128
f 1111 1128 1129
f 1111 1129 1110
f 1110 1129 1123
f 1123 1129 1130
f 1130 1129 1144
f 1130 1144 1145
f 1145 1144 1161
f 1145 1161 1162
f 1145 1162 1146
f 1146 1162 1163
f 1163 1162 1179
f 1163 1179 1180
f 1180 1179 1196
f 1180 1196 1197
f 1197 1196 1214
f 1214 1196 1213
f 1214 1213 1231
f 1231 1213 1230
f 1231 1230 1247
f 1231 1247 1248
f 1248 1247 1264
f 1248 1264 1265
f 1265 1264 1276
f 1276 1264 1275
f 1276 1275 1280
f 1280 1275 1279
f 1280 1279 1091
f 1280 1091 1092
f 1091 1279 1278
f 1091 1278 1090
f 1088 1089 1271
f 1088 1271 1270
f 1088 1270 1087
f 1086 1087 1269
f 1086 1269 1268
f 1268 1269 1257
f 1268 1257 1256
f 1268 1256 1267
f 1267 1256 1255
f 1267 1255 1254
f 1267 1254 1084
f 1254 1255 1238
f 1254 1238 1237
f 1254 1237 1253
f 1253 1237 1236
f 1253 1236 1252
f 1252 1236 1235
f 1252 1235 1251
f 1251 1235 1234
f 1234 1235 1218
f 1234 1218 1217
f 1217 1218 1201
f 1217 1201 1200
f 1200 1201 1184
f 1200 1184 1183
f 1183 1184 1167
f 1183 1167 1166
f 1166 1167 1150
f 1166 1150 1149
f 1149 1150 1133
f 1149 1133 1132
f 1133 1150 1134
f 1134 1150 1151
f 1134 1151 1135
f 1135 1151 1152
f 1152 1151 1168
f 1152 1168 1169
f 1152 1169 1153
f 1153 1169 1170
f 1153 1170 1154
f 1154 1170 1171
f 1154 1171 1155
f 1154 1155 1138
f 1138 1155 1139
f 1138 1139 1124
f 1124 1139 1125
f 1125 1139 1140
f 1125 1140 1126
f 1125 1126 1113
f 1113 1126 1112
f 1112 1126 1127
f 1112 1127 1128
f 1128 1127 1142
f 1128 1142 1143
f 1128 1143 1129
f 1129 1143 1144
f 1144 1143 1160
f 1144 1160 1161
f 1161 1160 1177
f 1161 1177 1178
f 1161 1178 1162
f 1162 1178 1179
f 1179 1178 1195
f 1179 1195 1196
f 1196 1195 1212
f 1196 1212 1213
f 1213 1212 1229
f 1213 1229 1230
f 1230 1229 1246
f 1230 1246 1247
f 1247 1246 1263
f 1247 1263 1264
f 1264 1263 1275
f 1275 1263 1274
f 1275 1274 1279
f 1279 1274 1278
f 1278 1274 1273
f 1278 1273 1272
f 1278 1272 1089
f 1278 1089 1090
f 1089 1272 1271
f 1271 1272 1260
f 1271 1260 1259
f 1271 1259 1270
f 1270 1259 1258
f 1270 1258 1269
f 1270 1269 1087
f 1269 1258 1257
f 1257 1258 1241
f 1257 1241 1240
f 1257 1240 1256
f 1256 1240 1239
f 1256 1239 1255
f 1255 1239 1238
f 1238 1239 1222
f 1238 1222 1221
f 1238 1221 1237
f 1237 1221 1220
f 1237 1220 1236
f 1236 1220 1219
f 1236 1219 1235
f 1235 1219 1218
f 1218 1219 1202
f 1218 1202 1201
f 1201 1202 1185
f 1201 1185 1184
f 1184 1185 1168
f 1184 1168 1167
f 1167 1168 1151
f 1167 1151 1150
f 1168 1185 1169
f 1169 1185 1186
f 1169 1186 1170
f 1170 1186 1187
f 1170 1187 1171
f 1171 1187 1188
f 1171 1188 1172
f 1171 1172 1155
f 1155 1172 1156
f 1155 1156 1139
f 1139 1156 1140
f 1140 1156 1157
f 1140 1157 1141
f 1140 1141 1126
f 1126 1141 1127
f 1127 1141 1142
f 1142 1141 1158
f 1142 1158 1159
f 1142 1159 1143
f 1143 1159 1160
f 1160 1159 1176
f 1160 1176 1177
f 1177 1176 1193
f 1177 1193 1194
f 1177 1194 1178
f 1178 1194 1195
f 1195 1194 1211
f 1195 1211 1212
f 1212 1211 1228
f 1212 1228 1229
f 1229 1228 1245
f 1229 1245 1246
f 1246 1245 1262
f 1246 1262 1263
f 1263 1262 1274
f 1274 1262 1273
f 1273 1262 1261
f 1273 1261 1272
f 1272 1261 1260
f 1260 1261 1244
f 1260 1244 1243
f 1260 1243 1259
f 1259 1243 1242
f 1259 1242 1258
f 1258 1242 1241
f 1241 1242 1225
f 1241 1225 1224
f 1241 1224 1240
f 1240 1224 1223
f 1240 1223 1239
f 1239 1223 1222
f 1222 1223 1206
f 1222 1206 1205
f 1222 1205 1221
f 1221 1205 1204
f 1221 1204 1220
f 1220 1204 1203
f 1220 1203 1219
f 1219 1203 1202
f 1202 1203 1186
f 1202 1186 1185
f 1186 1203 1187
f 1187 1203 1204
f 1187 1204 1188
f 1188 1204 1205
f 1188 1205 1189
f 1188 1189 1172
f 1172 1189 1173
f 1172 1173 1156
f 1156 1173 1157
f 1157 1173 1174
f 1157 1174 1158
f 1157 1158 1141
f 1158 1174 1175
f 1158 1175 1159
f 1159 1175 1176
f 1176 1175 1192
f 1176 1192 1193
f 1193 1192 1209
f 1193 1209 1210
f 1193 1210 1194
f 1194 1210 1211
f 1211 1210 1227
f 1211 1227 1228
f 1228 1227 1244
f 1228 1244 1245
f 1245 1244 1261
f 1245 1261 1262
f 1244 1227 1243
f 1243 1227 1226
f 1243 1226 1242
f 1242 1226 1225
f 1225 1226 1209
f 1225 1209 1208
f 1225 1208 1224
f 1224 1208 1207
f 1224 1207 1223
f 1223 1207 1206
f 1206 1207 1190
f 1206 1190 1189
f 1206 1189 1205
f 1189 1190 1173
f 1173 1190 1174
f 1174 1190 1191
f 1174 1191 1175
f 1175 1191 1192
f 1192 1191 1208
f 1192 1208 1209
f 1208 1191 1207
f 1207 1191 1190
f 1209 1226 1210
f 1210 1226 1227
