# H&M Relaxed Fit Heavyweight Graphic T-shirt #1361995002
# 100% Cotton Jersey - Parametric CAD & PBD Physics Sim

g front_panel
v -0.01204 0.63221 0.13007
v 0.03852 0.62424 0.10776
v 0.08330 0.62345 0.09854
v 0.12141 0.62388 0.07417
v 0.15172 0.62431 0.04121
v 0.17586 0.62432 0.00430
v 0.18781 0.62072 -0.03869
v 0.18861 0.74652 -0.06659
v 0.17846 0.81944 -0.06550
v 0.17374 0.89148 -0.06526
v 0.17603 0.96463 -0.06536
v 0.18736 1.03990 -0.06885
v 0.18421 1.09487 -0.06500
v 0.21579 1.11589 -0.06959
v 0.21689 1.13548 -0.04651
v 0.22072 1.17144 -0.02760
v 0.20944 1.19628 -0.01544
v 0.21199 1.22325 -0.00302
v 0.19477 1.22719 -0.02615
v 0.22409 1.23325 -0.03923
v 0.21540 1.16195 -0.01649
v 0.23068 1.29177 -0.07048
v 0.21182 1.32501 -0.07315
v 0.15412 1.35546 -0.07849
v 0.09501 1.36211 -0.08203
v 0.08311 1.35623 -0.08050
v 0.08377 1.33579 -0.05013
v 0.06413 1.31178 -0.02246
v 0.04615 1.28788 -0.00550
v 0.02310 1.27658 0.01045
v -0.00022 1.27269 0.01662
v -0.02362 1.27711 0.00976
v -0.04760 1.28971 -0.00629
v -0.06779 1.31361 -0.02398
v -0.09447 1.33293 -0.05282
v -0.11370 1.35733 -0.08687
v -0.08651 1.35592 -0.14079
v -0.17093 1.35736 -0.07792
v -0.23129 1.29741 -0.06356
v -0.21319 1.32015 -0.08167
v -0.23191 1.22475 -0.04596
v -0.20944 1.22998 -0.00869
v -0.18508 1.22011 -0.02326
v -0.20252 1.21516 -0.00204
v -0.18214 1.19340 -0.01084
v -0.19073 1.16997 -0.01447
v -0.18755 1.14326 -0.01366
v -0.20110 1.12328 -0.02189
v -0.17976 1.05743 -0.06137
v -0.17429 0.97993 -0.06080
v -0.17308 0.90612 -0.05940
v -0.18241 0.83381 -0.05952
v -0.18648 0.76552 -0.06255
v -0.22255 0.69715 -0.02035
v -0.19336 0.70860 -0.02929
v -0.19216 0.73188 -0.03292
v -0.18889 0.75650 -0.02338
v -0.18606 0.78635 -0.01812
v -0.18238 0.80866 -0.02664
v -0.17538 0.83515 -0.02154
v -0.17033 0.86784 -0.02238
v -0.17097 0.89334 -0.02745
v -0.17215 0.92534 -0.02388
v -0.17045 0.95130 -0.03046
v -0.17332 0.97927 -0.02527
v -0.17527 1.01243 -0.02442
v -0.17383 1.03803 -0.02919
v -0.18233 1.06408 -0.01919
v -0.18742 1.09155 -0.01007
v -0.17466 1.11878 -0.01288
v -0.18969 0.68949 -0.00601
v -0.18510 0.71563 -0.00116
v -0.17903 0.74271 0.00478
v -0.17698 0.76983 0.00507
v -0.17391 0.79670 0.00232
v -0.16620 0.82523 0.00223
v -0.16524 0.85392 0.00090
v -0.16560 0.88324 -0.00034
v -0.16495 0.91239 -0.00059
v -0.16566 0.94134 -0.00121
v -0.16699 0.97136 0.00096
v -0.16647 1.00007 0.00003
v -0.16823 1.02786 0.00089
v -0.17120 1.05582 0.00703
v -0.16898 1.08464 0.00994
v -0.17017 1.11415 0.01395
v -0.16955 1.14485 0.01799
v -0.17379 1.17119 0.01380
v -0.17674 1.19936 0.01537
v -0.19454 1.22665 0.01178
v -0.17719 1.23564 -0.01636
v -0.20972 1.24937 -0.02543
v -0.17872 0.67574 0.01930
v -0.16984 0.70329 0.02496
v -0.16364 0.73125 0.02719
v -0.15938 0.75895 0.02645
v -0.15662 0.78713 0.02604
v -0.15518 0.81623 0.02706
v -0.15494 0.84558 0.02634
v -0.15491 0.87506 0.02573
v -0.15501 0.90470 0.02575
v -0.15538 0.93431 0.02591
v -0.15538 0.96383 0.02664
v -0.15561 0.99279 0.02683
v -0.15612 1.02142 0.02830
v -0.15586 1.05033 0.03119
v -0.15527 1.07946 0.03346
v -0.15493 1.10841 0.03559
v -0.15654 1.13746 0.03692
v -0.15953 1.16612 0.03571
v -0.16456 1.19535 0.03954
v -0.17317 1.22940 0.03144
v -0.16326 1.24947 -0.00712
v -0.19130 1.26856 -0.02665
v -0.16219 0.66667 0.04186
v -0.14869 0.69482 0.04609
v -0.14332 0.72330 0.04898
v -0.14114 0.75201 0.05017
v -0.14025 0.78105 0.05088
v -0.13978 0.81061 0.05133
v -0.13974 0.84027 0.05095
v -0.13981 0.87003 0.05073
v -0.13987 0.89985 0.05080
v -0.13989 0.92957 0.05100
v -0.13976 0.95916 0.05143
v -0.13968 0.98845 0.05184
v -0.13943 1.01760 0.05290
v -0.13887 1.04683 0.05446
v -0.13828 1.07602 0.05573
v -0.13771 1.10521 0.05689
v -0.13983 1.13465 0.05755
v -0.14245 1.16392 0.05759
v -0.14607 1.19360 0.06053
v -0.14765 1.22510 0.03986
v -0.15130 1.25953 0.00843
v -0.17195 1.29129 -0.01963
v -0.13790 0.66113 0.06497
v -0.12566 0.68920 0.06795
v -0.12218 0.71863 0.07143
v -0.12069 0.74810 0.07267
v -0.12019 0.77772 0.07317
v -0.12000 0.80753 0.07329
v -0.12005 0.83737 0.07311
v -0.12010 0.86726 0.07303
v -0.12009 0.89714 0.07310
v -0.12000 0.92696 0.07326
v -0.11981 0.95667 0.07352
v -0.11958 0.98622 0.07387
v -0.11918 1.01568 0.07452
v -0.11864 1.04515 0.07530
v -0.11815 1.07460 0.07593
v -0.11770 1.10415 0.07656
v -0.11945 1.13387 0.07711
v -0.12131 1.16373 0.07760
v -0.12278 1.19432 0.07801
v -0.12343 1.22574 0.05243
v -0.12764 1.25840 0.01483
v -0.14052 1.29354 -0.01856
v -0.10426 0.65696 0.08188
v -0.10084 0.68638 0.08823
v -0.09803 0.71631 0.09067
v -0.09692 0.74618 0.09139
v -0.09663 0.77603 0.09159
v -0.09658 0.80594 0.09159
v -0.09663 0.83585 0.09151
v -0.09665 0.86578 0.09149
v -0.09661 0.89572 0.09154
v -0.09651 0.92562 0.09163
v -0.09636 0.95545 0.09176
v -0.09613 0.98518 0.09196
v -0.09580 1.01486 0.09227
v -0.09541 1.04453 0.09262
v -0.09507 1.07421 0.09291
v -0.09475 1.10399 0.09325
v -0.09578 1.13394 0.09365
v -0.09683 1.16416 0.09405
v -0.09708 1.19482 0.09237
v -0.09805 1.22595 0.06474
v -0.10168 1.25774 0.02436
v -0.10952 1.28812 -0.01475
v -0.12648 1.32566 -0.04870
v -0.07830 0.65511 0.10237
v -0.07366 0.68508 0.10398
v -0.07137 0.71522 0.10515
v -0.07065 0.74520 0.10546
v -0.07052 0.77511 0.10551
v -0.07053 0.80503 0.10549
v -0.07057 0.83497 0.10547
v -0.07057 0.86493 0.10547
v -0.07054 0.89491 0.10549
v -0.07048 0.92487 0.10551
v -0.07039 0.95478 0.10555
v -0.07025 0.98465 0.10563
v -0.07006 1.01448 0.10574
v -0.06983 1.04431 0.10586
v -0.06963 1.07415 0.10599
v -0.06943 1.10407 0.10615
v -0.06989 1.13414 0.10637
v -0.07037 1.16443 0.10649
v -0.07038 1.19490 0.10412
v -0.07128 1.22559 0.07512
v -0.07353 1.25704 0.03232
v -0.07982 1.28979 -0.00880
v -0.04880 0.65418 0.11434
v -0.04501 0.68439 0.11416
v -0.04333 0.71460 0.11463
v -0.04290 0.74458 0.11474
v -0.04287 0.77451 0.11475
v -0.04289 0.80445 0.11474
v -0.04291 0.83442 0.11474
v -0.04290 0.86440 0.11474
v -0.04289 0.89440 0.11474
v -0.04288 0.92440 0.11474
v -0.04285 0.95437 0.11474
v -0.04279 0.98431 0.11475
v -0.04271 1.01424 0.11477
v -0.04261 1.04417 0.11481
v -0.04251 1.07412 0.11485
v -0.04240 1.10412 0.11491
v -0.04251 1.13423 0.11499
v -0.04269 1.16446 0.11494
v -0.04278 1.19473 0.11277
v -0.04342 1.22507 0.08300
v -0.04482 1.25593 0.03886
v -0.01868 0.65321 0.11757
v -0.01609 0.68382 0.11923
v -0.01479 0.71409 0.11931
v -0.01452 0.74414 0.11934
v -0.01450 0.77412 0.11935
v -0.01450 0.80410 0.11935
v -0.01450 0.83409 0.11935
v -0.01449 0.86409 0.11934
v -0.01448 0.89409 0.11934
v -0.01448 0.92410 0.11933
v -0.01448 0.95409 0.11933
v -0.01447 0.98407 0.11932
v -0.01445 1.01405 0.11932
v -0.01442 1.04403 0.11933
v -0.01438 1.07403 0.11934
v -0.01433 1.10408 0.11935
v -0.01430 1.13417 0.11934
v -0.01436 1.16432 0.11926
v -0.01451 1.19445 0.11773
v -0.01485 1.22458 0.08774
v -0.01474 1.25473 0.04308
v 0.01023 0.65320 0.11622
v 0.01280 0.68354 0.11943
v 0.01371 0.71383 0.11947
v 0.01390 0.74391 0.11945
v 0.01395 0.77393 0.11944
v 0.01399 0.80392 0.11943
v 0.01403 0.83391 0.11942
v 0.01407 0.86390 0.11941
v 0.01409 0.89389 0.11940
v 0.01410 0.92388 0.11939
v 0.01411 0.95387 0.11938
v 0.01411 0.98386 0.11938
v 0.01411 1.01386 0.11938
v 0.01412 1.04386 0.11938
v 0.01413 1.07389 0.11937
v 0.01415 1.10394 0.11936
v 0.01421 1.13401 0.11933
v 0.01422 1.16409 0.11927
v 0.01418 1.19417 0.11825
v 0.01409 1.22433 0.08841
v 0.01490 1.25463 0.04327
v 0.03957 0.65334 0.11527
v 0.04115 0.68366 0.11535
v 0.04174 0.71381 0.11521
v 0.04190 0.74385 0.11517
v 0.04200 0.77385 0.11512
v 0.04211 0.80382 0.11508
v 0.04221 0.83378 0.11504
v 0.04228 0.86374 0.11500
v 0.04234 0.89370 0.11497
v 0.04237 0.92367 0.11495
v 0.04240 0.95365 0.11494
v 0.04241 0.98363 0.11493
v 0.04241 1.01362 0.11493
v 0.04240 1.04363 0.11493
v 0.04241 1.07366 0.11492
v 0.04248 1.10371 0.11488
v 0.04282 1.13375 0.11482
v 0.04315 1.16381 0.11474
v 0.04344 1.19390 0.11370
v 0.04350 1.22429 0.08435
v 0.04511 1.25534 0.03965
v 0.06685 0.65313 0.10697
v 0.06826 0.68358 0.10693
v 0.06872 0.71377 0.10674
v 0.06895 0.74382 0.10661
v 0.06917 0.77379 0.10646
v 0.06938 0.80371 0.10632
v 0.06953 0.83360 0.10621
v 0.06964 0.86350 0.10613
v 0.06972 0.89343 0.10608
v 0.06978 0.92337 0.10603
v 0.06981 0.95333 0.10600
v 0.06983 0.98330 0.10599
v 0.06983 1.01328 0.10599
v 0.06982 1.04329 0.10599
v 0.06990 1.07333 0.10594
v 0.07010 1.10339 0.10579
v 0.07093 1.13342 0.10564
v 0.07175 1.16346 0.10554
v 0.07231 1.19357 0.10423
v 0.07250 1.22433 0.07639
v 0.07405 1.25570 0.03365
v 0.07800 1.28903 -0.00721
v 0.09292 0.65346 0.09483
v 0.09376 0.68375 0.09446
v 0.09419 0.71386 0.09415
v 0.09455 0.74384 0.09381
v 0.09492 0.77372 0.09344
v 0.09520 0.80353 0.09314
v 0.09537 0.83332 0.09295
v 0.09548 0.86315 0.09283
v 0.09557 0.89303 0.09273
v 0.09564 0.92295 0.09265
v 0.09568 0.95289 0.09260
v 0.09570 0.98285 0.09258
v 0.09569 1.01283 0.09259
v 0.09573 1.04287 0.09257
v 0.09595 1.07300 0.09237
v 0.09628 1.10316 0.09199
v 0.09777 1.13324 0.09168
v 0.09920 1.16326 0.09158
v 0.09990 1.19337 0.09017
v 0.10032 1.22466 0.06467
v 0.10245 1.25650 0.02467
v 0.10799 1.28877 -0.01596
v 0.11532 1.32463 -0.05049
v 0.11650 0.65384 0.07864
v 0.11710 0.68397 0.07814
v 0.11760 0.71398 0.07754
v 0.11813 0.74388 0.07678
v 0.11859 0.77364 0.07602
v 0.11885 0.80328 0.07554
v 0.11896 0.83293 0.07534
v 0.11903 0.86269 0.07519
v 0.11910 0.89255 0.07504
v 0.11917 0.92246 0.07491
v 0.11921 0.95240 0.07484
v 0.11923 0.98241 0.07481
v 0.11924 1.01251 0.07483
v 0.11942 1.04279 0.07469
v 0.11983 1.07327 0.07413
v 0.12033 1.10372 0.07341
v 0.12263 1.13394 0.07273
v 0.12476 1.16385 0.07268
v 0.12551 1.19382 0.07189
v 0.12621 1.22550 0.04951
v 0.12948 1.25784 0.01325
v 0.13927 1.29407 -0.02087
v 0.13707 0.65392 0.05920
v 0.13774 0.68412 0.05826
v 0.13840 0.71419 0.05710
v 0.13906 0.74406 0.05562
v 0.13946 0.77366 0.05433
v 0.13954 0.80308 0.05370
v 0.13949 0.83257 0.05356
v 0.13945 0.86230 0.05340
v 0.13946 0.89219 0.05318
v 0.13951 0.92218 0.05297
v 0.13957 0.95230 0.05288
v 0.13962 0.98263 0.05279
v 0.13977 1.01322 0.05271
v 0.14022 1.04412 0.05235
v 0.14105 1.07514 0.05138
v 0.14213 1.10586 0.05042
v 0.14535 1.13612 0.04937
v 0.14749 1.16576 0.04946
v 0.14806 1.19531 0.05059
v 0.14887 1.22696 0.03224
v 0.15422 1.25936 0.00182
v 0.17164 1.29625 -0.02213
v 0.15456 0.65416 0.03663
v 0.15554 0.68453 0.03536
v 0.15684 0.71466 0.03359
v 0.15742 0.74450 0.03104
v 0.15794 0.77409 0.02975
v 0.15661 0.80304 0.02809
v 0.15599 0.83248 0.02801
v 0.15566 0.86239 0.02768
v 0.15562 0.89243 0.02733
v 0.15569 0.92280 0.02705
v 0.15580 0.95351 0.02692
v 0.15596 0.98461 0.02665
v 0.15646 1.01588 0.02650
v 0.15775 1.04721 0.02623
v 0.16026 1.07853 0.02524
v 0.16290 1.10919 0.02435
v 0.16770 1.13941 0.02372
v 0.16837 1.16878 0.02444
v 0.16804 1.19773 0.02826
v 0.16842 1.22819 0.01422
v 0.17645 1.25707 -0.00916
v 0.19730 1.28170 -0.03328
v 0.17156 0.65422 0.01415
v 0.17473 0.68486 0.01236
v 0.17560 0.71550 0.00998
v 0.17452 0.74551 0.00506
v 0.17516 0.77486 0.00256
v 0.17176 0.80367 0.00100
v 0.16726 0.83309 -0.00061
v 0.16667 0.86317 -0.00149
v 0.16671 0.89368 -0.00170
v 0.16681 0.92493 -0.00209
v 0.16708 0.95645 -0.00219
v 0.16774 0.98845 -0.00275
v 0.16917 1.01992 -0.00276
v 0.17252 1.05123 -0.00235
v 0.17846 1.08265 -0.00372
v 0.18348 1.11314 -0.00372
v 0.19109 1.14394 -0.00326
v 0.19020 1.17319 0.00105
v 0.18502 1.20139 0.00371
v 0.19531 1.23262 0.00910
v 0.18981 1.24432 -0.02250
v 0.21788 1.26628 -0.04134
v 0.18457 0.65360 -0.01278
v 0.18668 0.68527 -0.01742
v 0.18622 0.71653 -0.02162
v 0.18795 0.74600 -0.02693
v 0.18635 0.77519 -0.02822
v 0.17962 0.80533 -0.02938
v 0.17411 0.83390 -0.03172
v 0.17288 0.86449 -0.03268
v 0.17247 0.89618 -0.03241
v 0.17288 0.92835 -0.03331
v 0.17360 0.96104 -0.03285
v 0.17584 0.99402 -0.03471
v 0.17869 1.02562 -0.03417
v 0.18422 1.05543 -0.03308
v 0.19489 1.08786 -0.03637
v 0.20163 1.11664 -0.03374
f 41 42 92
f 41 92 39
f 39 92 114
f 39 114 136
f 39 136 38
f 36 38 181
f 36 181 35
f 25 27 332
f 25 332 24
f 23 24 376
f 23 376 398
f 23 398 420
f 23 420 22
f 22 420 20
f 14 15 436
f 14 436 435
f 14 435 12
f 7 8 422
f 7 422 421
f 7 421 6
f 6 421 399
f 6 399 5
f 5 399 377
f 5 377 355
f 5 355 4
f 4 355 333
f 4 333 310
f 4 310 3
f 3 310 288
f 3 288 2
f 2 288 267
f 2 267 246
f 2 246 1
f 1 246 225
f 1 225 204
f 1 204 182
f 1 182 159
f 1 159 137
f 1 137 54
f 54 137 115
f 54 115 93
f 54 93 71
f 54 71 55
f 54 55 53
f 53 55 56
f 53 56 57
f 53 57 58
f 53 58 52
f 52 58 59
f 52 59 60
f 52 60 61
f 52 61 51
f 51 61 62
f 51 62 63
f 51 63 50
f 50 63 64
f 50 64 65
f 50 65 66
f 50 66 49
f 49 66 67
f 49 67 68
f 49 68 48
f 48 68 69
f 48 69 70
f 48 70 47
f 47 70 87
f 47 87 46
f 42 43 91
f 42 91 92
f 92 91 113
f 92 113 114
f 114 113 135
f 114 135 136
f 136 135 157
f 136 157 158
f 136 158 38
f 38 158 181
f 181 158 180
f 181 180 203
f 181 203 35
f 35 203 34
f 34 203 33
f 33 203 224
f 33 224 32
f 32 224 245
f 32 245 31
f 31 245 266
f 31 266 30
f 30 266 287
f 30 287 29
f 29 287 309
f 29 309 28
f 28 309 27
f 27 309 332
f 332 309 331
f 332 331 354
f 332 354 24
f 24 354 376
f 376 354 375
f 376 375 397
f 376 397 398
f 398 397 419
f 398 419 420
f 420 419 20
f 20 419 19
f 15 16 415
f 15 415 436
f 436 415 414
f 436 414 435
f 435 414 413
f 435 413 434
f 435 434 12
f 12 434 433
f 12 433 432
f 12 432 11
f 11 432 431
f 11 431 430
f 11 430 10
f 10 430 429
f 10 429 428
f 10 428 9
f 9 428 427
f 9 427 426
f 9 426 425
f 9 425 8
f 8 425 424
f 8 424 423
f 8 423 422
f 422 423 401
f 422 401 400
f 422 400 421
f 421 400 399
f 399 400 378
f 399 378 377
f 377 378 356
f 377 356 355
f 355 356 334
f 355 334 333
f 333 334 311
f 333 311 310
f 310 311 289
f 310 289 288
f 288 289 268
f 288 268 267
f 267 268 247
f 267 247 246
f 246 247 226
f 246 226 225
f 225 226 205
f 225 205 204
f 204 205 183
f 204 183 182
f 182 183 160
f 182 160 159
f 159 160 138
f 159 138 137
f 137 138 116
f 137 116 115
f 115 116 94
f 115 94 93
f 93 94 72
f 93 72 71
f 71 72 56
f 71 56 55
f 56 72 57
f 57 72 73
f 57 73 58
f 58 73 74
f 58 74 59
f 59 74 75
f 59 75 60
f 60 75 76
f 60 76 61
f 61 76 77
f 61 77 62
f 62 77 78
f 62 78 63
f 63 78 79
f 63 79 64
f 64 79 80
f 64 80 65
f 65 80 81
f 65 81 66
f 66 81 82
f 66 82 67
f 67 82 83
f 67 83 68
f 68 83 84
f 68 84 69
f 69 84 85
f 69 85 70
f 70 85 86
f 70 86 87
f 87 86 108
f 87 108 109
f 87 109 88
f 87 88 46
f 46 88 45
f 43 44 90
f 43 90 91
f 91 90 112
f 91 112 113
f 113 112 134
f 113 134 135
f 135 134 156
f 135 156 157
f 157 156 178
f 157 178 179
f 157 179 158
f 158 179 180
f 180 179 202
f 180 202 203
f 203 202 224
f 224 202 223
f 224 223 244
f 224 244 245
f 245 244 265
f 245 265 266
f 266 265 286
f 266 286 287
f 287 286 307
f 287 307 308
f 287 308 309
f 309 308 330
f 309 330 331
f 331 330 353
f 331 353 354
f 354 353 375
f 375 353 374
f 375 374 396
f 375 396 397
f 397 396 418
f 397 418 419
f 419 418 19
f 19 418 18
f 16 17 416
f 16 416 415
f 415 416 394
f 415 394 393
f 415 393 414
f 414 393 392
f 414 392 413
f 413 392 391
f 413 391 412
f 413 412 434
f 434 412 433
f 433 412 411
f 433 411 432
f 432 411 410
f 432 410 431
f 431 410 409
f 431 409 430
f 430 409 408
f 430 408 429
f 429 408 407
f 429 407 428
f 428 407 406
f 428 406 427
f 427 406 405
f 427 405 426
f 426 405 404
f 426 404 425
f 425 404 403
f 425 403 424
f 424 403 402
f 424 402 423
f 423 402 401
f 401 402 380
f 401 380 379
f 401 379 400
f 400 379 378
f 378 379 357
f 378 357 356
f 356 357 335
f 356 335 334
f 334 335 312
f 334 312 311
f 311 312 290
f 311 290 289
f 289 290 269
f 289 269 268
f 268 269 248
f 268 248 247
f 247 248 227
f 247 227 226
f 226 227 206
f 226 206 205
f 205 206 184
f 205 184 183
f 183 184 161
f 183 161 160
f 160 161 139
f 160 139 138
f 138 139 117
f 138 117 116
f 116 117 95
f 116 95 94
f 94 95 73
f 94 73 72
f 73 95 74
f 74 95 96
f 74 96 75
f 75 96 97
f 75 97 76
f 76 97 98
f 76 98 77
f 77 98 99
f 77 99 78
f 78 99 100
f 78 100 79
f 79 100 101
f 79 101 80
f 80 101 102
f 80 102 81
f 81 102 103
f 81 103 82
f 82 103 104
f 82 104 83
f 83 104 105
f 83 105 84
f 84 105 106
f 84 106 85
f 85 106 107
f 85 107 86
f 86 107 108
f 108 107 129
f 108 129 130
f 108 130 109
f 109 130 131
f 109 131 110
f 109 110 88
f 88 110 89
f 88 89 45
f 45 89 44
f 44 89 90
f 90 89 111
f 90 111 112
f 112 111 133
f 112 133 134
f 134 133 155
f 134 155 156
f 156 155 177
f 156 177 178
f 178 177 200
f 178 200 201
f 178 201 179
f 179 201 202
f 202 201 223
f 223 201 222
f 223 222 243
f 223 243 244
f 244 243 264
f 244 264 265
f 265 264 285
f 265 285 286
f 286 285 306
f 286 306 307
f 307 306 328
f 307 328 329
f 307 329 308
f 308 329 330
f 330 329 352
f 330 352 353
f 353 352 374
f 374 352 373
f 374 373 395
f 374 395 396
f 396 395 417
f 396 417 418
f 418 417 18
f 18 417 17
f 17 417 416
f 416 417 395
f 416 395 394
f 394 395 373
f 394 373 372
f 394 372 393
f 393 372 371
f 393 371 392
f 392 371 370
f 392 370 391
f 391 370 369
f 391 369 390
f 391 390 412
f 412 390 411
f 411 390 389
f 411 389 410
f 410 389 388
f 410 388 409
f 409 388 387
f 409 387 408
f 408 387 386
f 408 386 407
f 407 386 385
f 407 385 406
f 406 385 384
f 406 384 405
f 405 384 383
f 405 383 404
f 404 383 382
f 404 382 403
f 403 382 381
f 403 381 402
f 402 381 380
f 380 381 359
f 380 359 358
f 380 358 379
f 379 358 357
f 357 358 336
f 357 336 335
f 335 336 313
f 335 313 312
f 312 313 291
f 312 291 290
f 290 291 270
f 290 270 269
f 269 270 249
f 269 249 248
f 248 249 228
f 248 228 227
f 227 228 207
f 227 207 206
f 206 207 185
f 206 185 184
f 184 185 162
f 184 162 161
f 161 162 140
f 161 140 139
f 139 140 118
f 139 118 117
f 117 118 96
f 117 96 95
f 96 118 97
f 97 118 119
f 97 119 98
f 98 119 120
f 98 120 99
f 99 120 121
f 99 121 100
f 100 121 122
f 100 122 101
f 101 122 123
f 101 123 102
f 102 123 124
f 102 124 103
f 103 124 125
f 103 125 104
f 104 125 126
f 104 126 105
f 105 126 127
f 105 127 106
f 106 127 128
f 106 128 107
f 107 128 129
f 129 128 150
f 129 150 151
f 129 151 130
f 130 151 152
f 130 152 131
f 131 152 153
f 131 153 132
f 131 132 110
f 110 132 111
f 110 111 89
f 111 132 133
f 133 132 154
f 133 154 155
f 155 154 176
f 155 176 177
f 177 176 199
f 177 199 200
f 200 199 221
f 200 221 222
f 200 222 201
f 222 221 242
f 222 242 243
f 243 242 263
f 243 263 264
f 264 263 284
f 264 284 285
f 285 284 305
f 285 305 306
f 306 305 327
f 306 327 328
f 328 327 350
f 328 350 351
f 328 351 329
f 329 351 352
f 352 351 373
f 373 351 372
f 372 351 350
f 372 350 371
f 371 350 349
f 371 349 370
f 370 349 348
f 370 348 369
f 369 348 347
f 369 347 368
f 369 368 390
f 390 368 389
f 389 368 367
f 389 367 388
f 388 367 366
f 388 366 387
f 387 366 365
f 387 365 386
f 386 365 364
f 386 364 385
f 385 364 363
f 385 363 384
f 384 363 362
f 384 362 383
f 383 362 361
f 383 361 382
f 382 361 360
f 382 360 381
f 381 360 359
f 359 360 338
f 359 338 337
f 359 337 358
f 358 337 336
f 336 337 314
f 336 314 313
f 313 314 292
f 313 292 291
f 291 292 271
f 291 271 270
f 270 271 250
f 270 250 249
f 249 250 229
f 249 229 228
f 228 229 208
f 228 208 207
f 207 208 186
f 207 186 185
f 185 186 163
f 185 163 162
f 162 163 141
f 162 141 140
f 140 141 119
f 140 119 118
f 119 141 120
f 120 141 142
f 120 142 121
f 121 142 143
f 121 143 122
f 122 143 144
f 122 144 123
f 123 144 145
f 123 145 124
f 124 145 146
f 124 146 125
f 125 146 147
f 125 147 126
f 126 147 148
f 126 148 127
f 127 148 149
f 127 149 128
f 128 149 150
f 150 149 171
f 150 171 172
f 150 172 151
f 151 172 173
f 151 173 152
f 152 173 174
f 152 174 153
f 153 174 175
f 153 175 154
f 153 154 132
f 154 175 176
f 176 175 198
f 176 198 199
f 199 198 220
f 199 220 221
f 221 220 241
f 221 241 242
f 242 241 262
f 242 262 263
f 263 262 283
f 263 283 284
f 284 283 304
f 284 304 305
f 305 304 326
f 305 326 327
f 327 326 349
f 327 349 350
f 349 326 348
f 348 326 325
f 348 325 347
f 347 325 324
f 347 324 346
f 347 346 368
f 368 346 367
f 367 346 345
f 367 345 366
f 366 345 344
f 366 344 365
f 365 344 343
f 365 343 364
f 364 343 342
f 364 342 363
f 363 342 341
f 363 341 362
f 362 341 340
f 362 340 361
f 361 340 339
f 361 339 360
f 360 339 338
f 338 339 316
f 338 316 315
f 338 315 337
f 337 315 314
f 314 315 293
f 314 293 292
f 292 293 272
f 292 272 271
f 271 272 251
f 271 251 250
f 250 251 230
f 250 230 229
f 229 230 209
f 229 209 208
f 208 209 187
f 208 187 186
f 186 187 164
f 186 164 163
f 163 164 142
f 163 142 141
f 142 164 143
f 143 164 165
f 143 165 144
f 144 165 166
f 144 166 145
f 145 166 167
f 145 167 146
f 146 167 168
f 146 168 147
f 147 168 169
f 147 169 148
f 148 169 170
f 148 170 149
f 149 170 171
f 171 170 193
f 171 193 194
f 171 194 172
f 172 194 195
f 172 195 173
f 173 195 196
f 173 196 174
f 174 196 197
f 174 197 175
f 175 197 198
f 198 197 219
f 198 219 220
f 220 219 240
f 220 240 241
f 241 240 261
f 241 261 262
f 262 261 282
f 262 282 283
f 283 282 303
f 283 303 304
f 304 303 325
f 304 325 326
f 325 303 324
f 324 303 302
f 324 302 323
f 324 323 346
f 346 323 345
f 345 323 322
f 345 322 344
f 344 322 321
f 344 321 343
f 343 321 320
f 343 320 342
f 342 320 319
f 342 319 341
f 341 319 318
f 341 318 340
f 340 318 317
f 340 317 339
f 339 317 316
f 316 317 295
f 316 295 294
f 316 294 315
f 315 294 293
f 293 294 273
f 293 273 272
f 272 273 252
f 272 252 251
f 251 252 231
f 251 231 230
f 230 231 210
f 230 210 209
f 209 210 188
f 209 188 187
f 187 188 165
f 187 165 164
f 165 188 166
f 166 188 189
f 166 189 167
f 167 189 190
f 167 190 168
f 168 190 191
f 168 191 169
f 169 191 192
f 169 192 170
f 170 192 193
f 193 192 214
f 193 214 215
f 193 215 194
f 194 215 216
f 194 216 195
f 195 216 217
f 195 217 196
f 196 217 218
f 196 218 197
f 197 218 219
f 219 218 239
f 219 239 240
f 240 239 260
f 240 260 261
f 261 260 281
f 261 281 282
f 282 281 302
f 282 302 303
f 302 281 301
f 302 301 323
f 323 301 322
f 322 301 300
f 322 300 321
f 321 300 299
f 321 299 320
f 320 299 298
f 320 298 319
f 319 298 297
f 319 297 318
f 318 297 296
f 318 296 317
f 317 296 295
f 295 296 275
f 295 275 274
f 295 274 294
f 294 274 273
f 273 274 253
f 273 253 252
f 252 253 232
f 252 232 231
f 231 232 211
f 231 211 210
f 210 211 189
f 210 189 188
f 189 211 190
f 190 211 212
f 190 212 191
f 191 212 213
f 191 213 192
f 192 213 214
f 214 213 234
f 214 234 235
f 214 235 215
f 215 235 236
f 215 236 216
f 216 236 237
f 216 237 217
f 217 237 238
f 217 238 218
f 218 238 239
f 239 238 259
f 239 259 260
f 260 259 280
f 260 280 281
f 281 280 301
f 301 280 300
f 300 280 279
f 300 279 299
f 299 279 278
f 299 278 298
f 298 278 277
f 298 277 297
f 297 277 276
f 297 276 296
f 296 276 275
f 275 276 255
f 275 255 254
f 275 254 274
f 274 254 253
f 253 254 233
f 253 233 232
f 232 233 212
f 232 212 211
f 212 233 213
f 213 233 234
f 234 233 254
f 234 254 255
f 234 255 235
f 235 255 256
f 235 256 236
f 236 256 257
f 236 257 237
f 237 257 258
f 237 258 238
f 238 258 259
f 259 258 279
f 259 279 280
f 279 258 278
f 278 258 257
f 278 257 277
f 277 257 256
f 277 256 276
f 276 256 255
g back_left_panel
v 0.00000 0.60387 -0.25000
v 0.02822 0.75934 -0.26433
v 0.07501 0.69587 -0.22575
v 0.10987 0.64399 -0.18285
v 0.15206 0.61446 -0.14339
v 0.18213 0.61143 -0.09238
v 0.18706 0.74616 -0.06702
v 0.17781 0.81935 -0.06550
v 0.17374 0.89148 -0.06526
v 0.17603 0.96463 -0.06536
v 0.18736 1.03990 -0.06885
v 0.18421 1.09487 -0.06500
v 0.21991 1.09710 -0.12169
v 0.19922 1.11994 -0.11575
v 0.18768 1.13222 -0.12596
v 0.17577 1.16364 -0.13478
v 0.18390 1.20202 -0.15661
v 0.21469 1.24560 -0.15518
v 0.22772 1.29386 -0.11135
v 0.21605 1.12514 0.00171
v 0.22636 1.29001 -0.07360
v 0.20927 1.32437 -0.08238
v 0.15998 1.35916 -0.09057
v 0.09818 1.36948 -0.08636
v 0.08405 1.36321 -0.08866
v 0.09219 1.38315 -0.09537
v 0.06992 1.38251 -0.10856
v 0.03686 1.39457 -0.15832
v 0.01987 1.41123 -0.19890
v 0.06499 1.10737 -0.18002
v -0.02698 0.83933 -0.30455
v -0.00171 0.78177 -0.27623
v 0.02427 0.76989 -0.27920
v 0.02992 0.76641 -0.24735
v 0.05202 0.78485 -0.22265
v 0.07716 0.81631 -0.19992
v 0.08491 0.87046 -0.19307
v 0.07279 0.90774 -0.20104
v 0.06518 0.94044 -0.20487
v 0.06091 0.97096 -0.20517
v 0.06051 0.99956 -0.20200
v 0.06057 1.02656 -0.20046
v 0.06312 1.04700 -0.18560
v 0.05651 1.06161 -0.20337
v 0.04406 1.06805 -0.22886
v 0.03839 1.07955 -0.25930
v 0.04774 1.10171 -0.28656
v 0.05186 1.14023 -0.29825
v 0.04924 1.18577 -0.29146
v 0.04282 1.20739 -0.25969
v 0.03155 1.22854 -0.23584
v 0.03598 1.26723 -0.21488
v 0.03558 1.30251 -0.19155
v 0.03327 1.33736 -0.19135
v 0.01880 0.73914 -0.25522
v 0.04854 0.73471 -0.26508
v 0.05204 0.74187 -0.23466
v 0.07107 0.77160 -0.22398
v 0.07555 0.81004 -0.21881
v 0.07616 0.84530 -0.21074
v 0.06998 0.87819 -0.21271
v 0.06512 0.90926 -0.21413
v 0.06370 0.93885 -0.21248
v 0.06334 0.96676 -0.21095
v 0.06348 0.99147 -0.20443
v 0.06385 1.01366 -0.20012
v 0.05724 1.02975 -0.21901
v 0.05489 1.04303 -0.24405
v 0.06219 1.07077 -0.25510
v 0.06373 1.10220 -0.26413
v 0.06275 1.13504 -0.26790
v 0.05991 1.16439 -0.26013
v 0.05311 1.18704 -0.23904
v 0.05497 1.21605 -0.22904
v 0.05579 1.24929 -0.20278
v 0.05627 1.28311 -0.18959
v 0.06633 1.33114 -0.18808
v 0.04222 0.70765 -0.24042
v 0.06936 0.70365 -0.24666
v 0.07773 0.72489 -0.22789
v 0.08547 0.75502 -0.22206
v 0.08354 0.78749 -0.22060
v 0.07971 0.81999 -0.21999
v 0.07726 0.85155 -0.21912
v 0.07605 0.88203 -0.21761
v 0.07546 0.91099 -0.21629
v 0.07500 0.93805 -0.21419
v 0.07454 0.96320 -0.21170
v 0.07388 0.98666 -0.21621
v 0.07770 1.00888 -0.22756
v 0.08034 1.03574 -0.23226
v 0.08098 1.06475 -0.23641
v 0.07976 1.09410 -0.24108
v 0.07874 1.12304 -0.24115
v 0.07898 1.15094 -0.23520
v 0.08157 1.17988 -0.22926
v 0.08213 1.20951 -0.22198
v 0.08549 1.24301 -0.19835
v 0.09420 1.27731 -0.18891
v 0.11832 1.33702 -0.18064
v 0.06980 0.66914 -0.22706
v 0.09357 0.68522 -0.22502
v 0.10206 0.71092 -0.21670
v 0.10438 0.74047 -0.21477
v 0.10174 0.77123 -0.21379
v 0.09905 0.80233 -0.21308
v 0.09753 0.83298 -0.21233
v 0.09681 0.86260 -0.21169
v 0.09665 0.89105 -0.21114
v 0.09703 0.91846 -0.21084
v 0.09813 0.94526 -0.21176
v 0.10039 0.97211 -0.21368
v 0.10295 1.00016 -0.21508
v 0.10361 1.02927 -0.21600
v 0.10253 1.05856 -0.21758
v 0.10095 1.08753 -0.21913
v 0.10227 1.11633 -0.21874
v 0.10558 1.14564 -0.21731
v 0.10929 1.17593 -0.21577
v 0.11024 1.20679 -0.21099
v 0.11606 1.24062 -0.19007
v 0.12902 1.27498 -0.17988
v 0.14667 1.31775 -0.15580
v 0.10417 0.65210 -0.21313
v 0.12025 0.67436 -0.20378
v 0.12485 0.70290 -0.19916
v 0.12505 0.73277 -0.19755
v 0.12334 0.76302 -0.19707
v 0.12169 0.79317 -0.19672
v 0.12083 0.82294 -0.19635
v 0.12068 0.85216 -0.19606
v 0.12113 0.88088 -0.19586
v 0.12207 0.90933 -0.19576
v 0.12342 0.93781 -0.19590
v 0.12503 0.96673 -0.19605
v 0.12615 0.99630 -0.19585
v 0.12616 1.02607 -0.19595
v 0.12527 1.05548 -0.19681
v 0.12470 1.08454 -0.19807
v 0.12720 1.11374 -0.19867
v 0.13072 1.14369 -0.19872
v 0.13431 1.17439 -0.19785
v 0.13611 1.20555 -0.19420
v 0.14379 1.23856 -0.17646
v 0.15962 1.27226 -0.16369
v 0.18074 1.31454 -0.14003
v 0.13717 0.64169 -0.18935
v 0.14314 0.67063 -0.18008
v 0.14495 0.70030 -0.17610
v 0.14457 0.73027 -0.17451
v 0.14359 0.76010 -0.17400
v 0.14256 0.78975 -0.17344
v 0.14217 0.81918 -0.17315
v 0.14230 0.84853 -0.17284
v 0.14286 0.87776 -0.17260
v 0.14361 0.90704 -0.17222
v 0.14460 0.93644 -0.17207
v 0.14563 0.96613 -0.17198
v 0.14598 0.99615 -0.17130
v 0.14590 1.02586 -0.17127
v 0.14568 1.05501 -0.17268
v 0.14572 1.08390 -0.17508
v 0.14812 1.11314 -0.17708
v 0.15120 1.14314 -0.17780
v 0.15453 1.17355 -0.17688
v 0.15636 1.20436 -0.17334
v 0.16700 1.23539 -0.16563
v 0.18243 1.27089 -0.15472
v 0.19875 1.30650 -0.12637
v 0.15486 0.64046 -0.16017
v 0.16009 0.67090 -0.15235
v 0.16070 0.70136 -0.14850
v 0.16001 0.73116 -0.14631
v 0.15981 0.76047 -0.14586
v 0.15879 0.78997 -0.14467
v 0.15860 0.81943 -0.14459
v 0.15865 0.84930 -0.14413
v 0.15905 0.87905 -0.14394
v 0.15940 0.90903 -0.14333
v 0.16008 0.93881 -0.14330
v 0.16080 0.96870 -0.14344
v 0.16110 0.99876 -0.14236
v 0.16093 1.02798 -0.14265
v 0.16177 1.05630 -0.14583
v 0.16265 1.08440 -0.15079
v 0.16470 1.11322 -0.15405
v 0.16977 1.14217 -0.15648
v 0.17309 1.17102 -0.15520
v 0.16989 1.20004 -0.14908
v 0.17996 1.22853 -0.16280
v 0.20281 1.27235 -0.14622
v 0.21368 1.30558 -0.10908
v 0.17004 0.64089 -0.13198
v 0.17240 0.67485 -0.12233
v 0.17246 0.70522 -0.11754
v 0.17106 0.73416 -0.11444
v 0.17131 0.76229 -0.11462
v 0.16964 0.79247 -0.11248
v 0.16885 0.82241 -0.11311
v 0.16868 0.85314 -0.11205
v 0.16846 0.88342 -0.11228
v 0.16889 0.91404 -0.11121
v 0.16924 0.94384 -0.11176
v 0.16990 0.97277 -0.11226
v 0.17232 1.00351 -0.11104
v 0.17176 1.03184 -0.11227
v 0.17400 1.05900 -0.11826
v 0.17887 1.08510 -0.12802
v 0.17514 1.11390 -0.12909
v 0.19343 1.13587 -0.14388
f 465 466 485
f 465 485 486
f 465 486 487
f 465 487 488
f 465 488 489
f 465 489 490
f 465 490 464
f 460 462 536
f 460 536 459
f 458 459 582
f 458 582 605
f 458 605 628
f 458 628 457
f 457 628 455
f 449 450 645
f 449 645 644
f 449 644 643
f 449 643 447
f 442 443 630
f 442 630 629
f 442 629 441
f 441 629 606
f 441 606 440
f 440 606 583
f 440 583 560
f 440 560 439
f 439 560 537
f 439 537 514
f 439 514 438
f 438 514 491
f 438 491 468
f 438 468 467
f 467 468 469
f 467 469 470
f 467 470 471
f 467 471 472
f 467 472 473
f 467 473 466
f 466 473 474
f 466 474 475
f 466 475 476
f 466 476 477
f 466 477 478
f 466 478 479
f 466 479 480
f 466 480 481
f 466 481 482
f 466 482 483
f 466 483 484
f 466 484 485
f 485 484 507
f 485 507 508
f 485 508 486
f 486 508 509
f 486 509 487
f 487 509 510
f 487 510 488
f 488 510 511
f 488 511 489
f 489 511 512
f 489 512 490
f 490 512 513
f 490 513 463
f 490 463 464
f 463 513 462
f 462 513 536
f 536 513 535
f 536 535 558
f 536 558 559
f 536 559 459
f 459 559 582
f 582 559 581
f 582 581 604
f 582 604 605
f 605 604 627
f 605 627 628
f 628 627 455
f 455 627 454
f 450 451 646
f 450 646 645
f 645 646 623
f 645 623 622
f 645 622 644
f 644 622 621
f 644 621 643
f 643 621 620
f 643 620 642
f 643 642 447
f 447 642 641
f 447 641 446
f 446 641 640
f 446 640 639
f 446 639 638
f 446 638 445
f 445 638 637
f 445 637 636
f 445 636 444
f 444 636 635
f 444 635 634
f 444 634 443
f 443 634 633
f 443 633 632
f 443 632 631
f 443 631 630
f 630 631 608
f 630 608 607
f 630 607 629
f 629 607 606
f 606 607 584
f 606 584 583
f 583 584 561
f 583 561 560
f 560 561 538
f 560 538 537
f 537 538 515
f 537 515 514
f 514 515 492
f 514 492 491
f 491 492 469
f 491 469 468
f 469 492 470
f 470 492 493
f 470 493 471
f 471 493 494
f 471 494 472
f 472 494 495
f 472 495 473
f 473 495 496
f 473 496 474
f 474 496 497
f 474 497 475
f 475 497 498
f 475 498 476
f 476 498 499
f 476 499 477
f 477 499 500
f 477 500 478
f 478 500 501
f 478 501 479
f 479 501 502
f 479 502 480
f 480 502 503
f 480 503 481
f 481 503 504
f 481 504 482
f 482 504 505
f 482 505 483
f 483 505 506
f 483 506 484
f 484 506 507
f 507 506 529
f 507 529 530
f 507 530 508
f 508 530 531
f 508 531 509
f 509 531 532
f 509 532 510
f 510 532 533
f 510 533 511
f 511 533 534
f 511 534 512
f 512 534 535
f 512 535 513
f 535 534 557
f 535 557 558
f 558 557 580
f 558 580 581
f 558 581 559
f 581 580 603
f 581 603 604
f 604 603 626
f 604 626 627
f 627 626 454
f 454 626 453
f 451 452 646
f 646 452 624
f 646 624 623
f 623 624 601
f 623 601 600
f 623 600 622
f 622 600 599
f 622 599 621
f 621 599 598
f 621 598 620
f 620 598 597
f 620 597 619
f 620 619 642
f 642 619 641
f 641 619 618
f 641 618 640
f 640 618 617
f 640 617 639
f 639 617 616
f 639 616 638
f 638 616 615
f 638 615 637
f 637 615 614
f 637 614 636
f 636 614 613
f 636 613 635
f 635 613 612
f 635 612 634
f 634 612 611
f 634 611 633
f 633 611 610
f 633 610 632
f 632 610 609
f 632 609 631
f 631 609 608
f 608 609 586
f 608 586 585
f 608 585 607
f 607 585 584
f 584 585 562
f 584 562 561
f 561 562 539
f 561 539 538
f 538 539 516
f 538 516 515
f 515 516 493
f 515 493 492
f 493 516 494
f 494 516 517
f 494 517 495
f 495 517 518
f 495 518 496
f 496 518 519
f 496 519 497
f 497 519 520
f 497 520 498
f 498 520 521
f 498 521 499
f 499 521 522
f 499 522 500
f 500 522 523
f 500 523 501
f 501 523 524
f 501 524 502
f 502 524 525
f 502 525 503
f 503 525 526
f 503 526 504
f 504 526 527
f 504 527 505
f 505 527 528
f 505 528 506
f 506 528 529
f 529 528 551
f 529 551 552
f 529 552 530
f 530 552 553
f 530 553 531
f 531 553 554
f 531 554 532
f 532 554 555
f 532 555 533
f 533 555 556
f 533 556 534
f 534 556 557
f 557 556 579
f 557 579 580
f 580 579 602
f 580 602 603
f 603 602 625
f 603 625 626
f 626 625 453
f 453 625 452
f 452 625 624
f 624 625 602
f 624 602 601
f 601 602 579
f 601 579 578
f 601 578 600
f 600 578 577
f 600 577 599
f 599 577 576
f 599 576 598
f 598 576 575
f 598 575 597
f 597 575 574
f 597 574 596
f 597 596 619
f 619 596 618
f 618 596 595
f 618 595 617
f 617 595 594
f 617 594 616
f 616 594 593
f 616 593 615
f 615 593 592
f 615 592 614
f 614 592 591
f 614 591 613
f 613 591 590
f 613 590 612
f 612 590 589
f 612 589 611
f 611 589 588
f 611 588 610
f 610 588 587
f 610 587 609
f 609 587 586
f 586 587 564
f 586 564 563
f 586 563 585
f 585 563 562
f 562 563 540
f 562 540 539
f 539 540 517
f 539 517 516
f 517 540 518
f 518 540 541
f 518 541 519
f 519 541 542
f 519 542 520
f 520 542 543
f 520 543 521
f 521 543 544
f 521 544 522
f 522 544 545
f 522 545 523
f 523 545 546
f 523 546 524
f 524 546 547
f 524 547 525
f 525 547 548
f 525 548 526
f 526 548 549
f 526 549 527
f 527 549 550
f 527 550 528
f 528 550 551
f 551 550 573
f 551 573 574
f 551 574 552
f 552 574 575
f 552 575 553
f 553 575 576
f 553 576 554
f 554 576 577
f 554 577 555
f 555 577 578
f 555 578 556
f 556 578 579
f 574 573 596
f 596 573 595
f 595 573 572
f 595 572 594
f 594 572 571
f 594 571 593
f 593 571 570
f 593 570 592
f 592 570 569
f 592 569 591
f 591 569 568
f 591 568 590
f 590 568 567
f 590 567 589
f 589 567 566
f 589 566 588
f 588 566 565
f 588 565 587
f 587 565 564
f 564 565 542
f 564 542 541
f 564 541 563
f 563 541 540
f 542 565 543
f 543 565 566
f 543 566 544
f 544 566 567
f 544 567 545
f 545 567 568
f 545 568 546
f 546 568 569
f 546 569 547
f 547 569 570
f 547 570 548
f 548 570 571
f 548 571 549
f 549 571 572
f 549 572 550
f 550 572 573
g back_right_panel
v 0.00000 0.60387 -0.25000
v -0.02698 0.83933 -0.30455
v 0.06478 1.10700 -0.18212
v 0.04153 1.19214 -0.19420
v -0.00906 1.30238 -0.17508
v -0.05039 1.34232 -0.17048
v -0.08756 1.36180 -0.08710
v -0.08815 1.35975 -0.14469
v -0.17790 1.35652 -0.09968
v -0.23455 1.30038 -0.07120
v -0.21319 1.32015 -0.08167
v -0.24276 1.24029 -0.05885
v -0.24293 1.29175 -0.15269
v -0.21629 1.23411 -0.15614
v -0.18247 1.18686 -0.15450
v -0.17437 1.14792 -0.12508
v -0.18691 1.12012 -0.09961
v -0.18793 1.09919 -0.08377
v -0.21065 1.10676 -0.05709
v -0.17976 1.05743 -0.06137
v -0.17429 0.97993 -0.06080
v -0.17308 0.90612 -0.05940
v -0.18172 0.83363 -0.05973
v -0.18568 0.76545 -0.06256
v -0.19265 0.69913 -0.06928
v -0.17730 0.57630 -0.10581
v -0.17628 0.59946 -0.15220
v -0.14127 0.60446 -0.18858
v -0.10308 0.60421 -0.22097
v -0.06499 0.59577 -0.25422
v -0.06894 0.55366 -0.21298
v -0.17383 0.61632 -0.11843
v -0.17854 0.64458 -0.11725
v -0.17964 0.67507 -0.11196
v -0.17887 0.70117 -0.10171
v -0.18125 0.72645 -0.09635
v -0.18245 0.75353 -0.09760
v -0.17637 0.78158 -0.09332
v -0.17895 0.80906 -0.09542
v -0.17569 0.84032 -0.09337
v -0.17787 0.86821 -0.09382
v -0.17551 0.90183 -0.09555
v -0.17092 0.92961 -0.09144
v -0.17372 0.95826 -0.09342
v -0.17269 0.99134 -0.09362
v -0.17295 1.02145 -0.09444
v -0.17441 1.05582 -0.09743
v -0.17695 1.08664 -0.09827
v -0.16491 0.62558 -0.14606
v -0.16885 0.65573 -0.14294
v -0.16880 0.68462 -0.13754
v -0.16766 0.71116 -0.13064
v -0.16906 0.73807 -0.12840
v -0.17126 0.76629 -0.12855
v -0.16797 0.79440 -0.12703
v -0.17013 0.82369 -0.12710
v -0.16826 0.85347 -0.12643
v -0.16975 0.88339 -0.12660
v -0.16927 0.91455 -0.12716
v -0.16580 0.94393 -0.12602
v -0.16700 0.97387 -0.12686
v -0.16573 1.00410 -0.12804
v -0.16494 1.03404 -0.12901
v -0.16484 1.06417 -0.13115
v -0.16637 1.09345 -0.13149
v -0.17162 1.12124 -0.13123
v -0.17366 1.15194 -0.13409
v -0.17221 1.18103 -0.14356
v -0.19211 1.21744 -0.16084
v -0.21928 1.25749 -0.14793
v -0.24171 1.27604 -0.11059
v -0.15335 0.63265 -0.16987
v -0.15435 0.66196 -0.16706
v -0.15480 0.69044 -0.16328
v -0.15487 0.71810 -0.15959
v -0.15558 0.74628 -0.15838
v -0.15663 0.77499 -0.15843
v -0.15634 0.80435 -0.15756
v -0.15742 0.83412 -0.15723
v -0.15720 0.86454 -0.15685
v -0.15746 0.89495 -0.15696
v -0.15706 0.92542 -0.15782
v -0.15470 0.95516 -0.15791
v -0.15320 0.98424 -0.15920
v -0.15117 1.01288 -0.16063
v -0.14965 1.04128 -0.16182
v -0.14885 1.06994 -0.16300
v -0.15082 1.09904 -0.16280
v -0.15477 1.12833 -0.16335
v -0.15700 1.15940 -0.16359
v -0.16060 1.19151 -0.16196
v -0.17552 1.22601 -0.16536
v -0.19877 1.26394 -0.15318
v -0.21861 1.29138 -0.12384
v -0.13609 0.63465 -0.19091
v -0.13670 0.66436 -0.18907
v -0.13711 0.69327 -0.18708
v -0.13748 0.72188 -0.18542
v -0.13793 0.75090 -0.18493
v -0.13879 0.78031 -0.18458
v -0.13968 0.81026 -0.18407
v -0.14100 0.84049 -0.18331
v -0.14115 0.87133 -0.18335
v -0.14060 0.90178 -0.18377
v -0.13902 0.93162 -0.18484
v -0.13553 0.96030 -0.18602
v -0.13156 0.98757 -0.18748
v -0.12865 1.01432 -0.18866
v -0.12724 1.04147 -0.18935
v -0.12702 1.06940 -0.18982
v -0.12954 1.09846 -0.18949
v -0.13290 1.12886 -0.18961
v -0.13661 1.16101 -0.18903
v -0.14242 1.19430 -0.18662
v -0.15584 1.23059 -0.17632
v -0.17312 1.26487 -0.16034
v -0.19950 1.30208 -0.14073
v -0.11593 0.63548 -0.20931
v -0.11561 0.66474 -0.20841
v -0.11564 0.69363 -0.20749
v -0.11598 0.72262 -0.20674
v -0.11653 0.75205 -0.20648
v -0.11790 0.78172 -0.20611
v -0.11938 0.81181 -0.20554
v -0.12147 0.84177 -0.20395
v -0.12129 0.87263 -0.20477
v -0.12017 0.90240 -0.20593
v -0.11660 0.93099 -0.20702
v -0.10965 0.95731 -0.20830
v -0.10400 0.98169 -0.20979
v -0.10233 1.00649 -0.21056
v -0.10232 1.03246 -0.21069
v -0.10312 1.05987 -0.21077
v -0.10609 1.08932 -0.21070
v -0.11001 1.12075 -0.21126
v -0.11513 1.15375 -0.21043
v -0.12076 1.18708 -0.20593
v -0.13239 1.22665 -0.19263
v -0.14636 1.26080 -0.17726
v -0.16386 1.30144 -0.16052
v -0.09284 0.63350 -0.22449
v -0.09159 0.66226 -0.22413
v -0.09155 0.69096 -0.22350
v -0.09216 0.71999 -0.22319
v -0.09319 0.74977 -0.22287
v -0.09216 0.77967 -0.21920
v -0.09577 0.80780 -0.21928
v -0.10260 0.83718 -0.21985
v -0.10628 0.86687 -0.22694
v -0.10011 0.89595 -0.22425
v -0.09185 0.92319 -0.22361
v -0.07974 0.94554 -0.22567
v -0.07644 0.96707 -0.22983
v -0.07931 0.98947 -0.23013
v -0.08000 1.01430 -0.22853
v -0.08193 1.04176 -0.22851
v -0.08644 1.07186 -0.23032
v -0.09320 1.10394 -0.23319
v -0.09993 1.13777 -0.23186
v -0.10483 1.17181 -0.22513
v -0.10998 1.21534 -0.21100
v -0.11404 1.24474 -0.19395
v -0.13240 1.29270 -0.19426
v -0.06713 0.62762 -0.23539
v -0.06621 0.65495 -0.23397
v -0.06789 0.68257 -0.23465
v -0.06855 0.71151 -0.23406
v -0.07211 0.73908 -0.23259
v -0.09829 0.75876 -0.22974
v -0.10889 0.78812 -0.22783
v -0.10218 0.82029 -0.23320
v -0.08526 0.85259 -0.22719
v -0.07732 0.88483 -0.22863
v -0.06686 0.90757 -0.23712
v -0.05069 0.92596 -0.24490
v -0.06052 0.94276 -0.25387
v -0.06210 0.96337 -0.24720
v -0.06218 0.98910 -0.24598
v -0.06708 1.01733 -0.24725
v -0.07570 1.04799 -0.25184
v -0.08737 1.08075 -0.25666
v -0.09462 1.11771 -0.25342
v -0.09478 1.15803 -0.24573
v -0.08514 1.20526 -0.22960
v -0.08825 1.21454 -0.20101
v -0.06893 1.24068 -0.20288
v -0.04896 0.60769 -0.23078
v -0.05580 0.63302 -0.23611
v -0.05490 0.66136 -0.23598
v -0.06599 0.68924 -0.23541
v -0.08966 0.71554 -0.22700
v -0.11927 0.73958 -0.20995
v -0.12736 0.78448 -0.20780
v -0.12080 0.82598 -0.21483
v -0.10771 0.85699 -0.23327
v -0.07413 0.86604 -0.24326
v -0.04981 0.88349 -0.25530
v -0.03400 0.89848 -0.27235
v -0.05333 0.90846 -0.26981
v -0.04621 0.93239 -0.26593
v -0.05138 0.95853 -0.26347
v -0.05938 0.98757 -0.26619
v -0.07321 1.01900 -0.27241
v -0.09715 1.05448 -0.28267
v -0.10082 1.11563 -0.27933
v -0.08244 1.15840 -0.26835
v -0.05499 1.18779 -0.23231
v -0.04406 1.18553 -0.19428
v -0.01323 1.18520 -0.18927
f 658 659 717
f 658 717 656
f 656 717 740
f 656 740 763
f 656 763 655
f 654 655 809
f 654 809 652
f 649 650 855
f 649 855 854
f 649 854 853
f 649 853 852
f 649 852 851
f 649 851 850
f 649 850 648
f 677 648 838
f 677 838 837
f 677 837 836
f 677 836 835
f 677 835 834
f 677 834 833
f 677 833 676
f 676 833 810
f 676 810 675
f 675 810 787
f 675 787 764
f 675 764 674
f 674 764 741
f 674 741 718
f 674 718 673
f 673 718 695
f 673 695 678
f 673 678 672
f 672 678 679
f 672 679 671
f 671 679 680
f 671 680 681
f 671 681 682
f 671 682 683
f 671 683 670
f 670 683 684
f 670 684 685
f 670 685 669
f 669 685 686
f 669 686 687
f 669 687 668
f 668 687 688
f 668 688 689
f 668 689 690
f 668 690 667
f 667 690 691
f 667 691 692
f 667 692 666
f 666 692 693
f 666 693 694
f 666 694 664
f 664 694 663
f 659 660 716
f 659 716 717
f 717 716 739
f 717 739 740
f 740 739 762
f 740 762 763
f 763 762 785
f 763 785 786
f 763 786 655
f 655 786 809
f 809 786 808
f 809 808 831
f 809 831 832
f 809 832 652
f 652 832 651
f 651 832 855
f 651 855 650
f 855 832 854
f 854 832 831
f 854 831 853
f 853 831 830
f 853 830 852
f 852 830 829
f 852 829 851
f 851 829 828
f 851 828 850
f 850 828 827
f 850 827 849
f 850 849 648
f 648 849 848
f 648 848 847
f 648 847 846
f 648 846 845
f 648 845 844
f 648 844 843
f 648 843 842
f 648 842 841
f 648 841 840
f 648 840 839
f 648 839 838
f 838 839 816
f 838 816 815
f 838 815 837
f 837 815 814
f 837 814 836
f 836 814 813
f 836 813 835
f 835 813 812
f 835 812 834
f 834 812 811
f 834 811 833
f 833 811 810
f 810 811 788
f 810 788 787
f 787 788 765
f 787 765 764
f 764 765 742
f 764 742 741
f 741 742 719
f 741 719 718
f 718 719 696
f 718 696 695
f 695 696 679
f 695 679 678
f 679 696 680
f 680 696 697
f 680 697 681
f 681 697 698
f 681 698 682
f 682 698 699
f 682 699 683
f 683 699 700
f 683 700 684
f 684 700 701
f 684 701 685
f 685 701 702
f 685 702 686
f 686 702 703
f 686 703 687
f 687 703 704
f 687 704 688
f 688 704 705
f 688 705 689
f 689 705 706
f 689 706 690
f 690 706 707
f 690 707 691
f 691 707 708
f 691 708 692
f 692 708 709
f 692 709 693
f 693 709 710
f 693 710 694
f 694 710 711
f 694 711 712
f 694 712 663
f 663 712 713
f 663 713 662
f 660 661 715
f 660 715 716
f 716 715 738
f 716 738 739
f 739 738 761
f 739 761 762
f 762 761 784
f 762 784 785
f 785 784 807
f 785 807 808
f 785 808 786
f 808 807 830
f 808 830 831
f 830 807 829
f 829 807 806
f 829 806 828
f 828 806 805
f 828 805 827
f 827 805 804
f 827 804 826
f 827 826 849
f 849 826 848
f 848 826 825
f 848 825 847
f 847 825 824
f 847 824 846
f 846 824 823
f 846 823 845
f 845 823 822
f 845 822 844
f 844 822 821
f 844 821 843
f 843 821 820
f 843 820 842
f 842 820 819
f 842 819 841
f 841 819 818
f 841 818 840
f 840 818 817
f 840 817 839
f 839 817 816
f 816 817 794
f 816 794 793
f 816 793 815
f 815 793 792
f 815 792 814
f 814 792 791
f 814 791 813
f 813 791 790
f 813 790 812
f 812 790 789
f 812 789 811
f 811 789 788
f 788 789 766
f 788 766 765
f 765 766 743
f 765 743 742
f 742 743 720
f 742 720 719
f 719 720 697
f 719 697 696
f 697 720 698
f 698 720 721
f 698 721 699
f 699 721 722
f 699 722 700
f 700 722 723
f 700 723 701
f 701 723 724
f 701 724 702
f 702 724 725
f 702 725 703
f 703 725 726
f 703 726 704
f 704 726 727
f 704 727 705
f 705 727 728
f 705 728 706
f 706 728 729
f 706 729 707
f 707 729 730
f 707 730 708
f 708 730 731
f 708 731 709
f 709 731 732
f 709 732 710
f 710 732 733
f 710 733 711
f 711 733 734
f 711 734 712
f 712 734 735
f 712 735 713
f 713 735 736
f 713 736 714
f 713 714 662
f 662 714 661
f 661 714 715
f 715 714 737
f 715 737 738
f 738 737 760
f 738 760 761
f 761 760 783
f 761 783 784
f 784 783 806
f 784 806 807
f 806 783 805
f 805 783 782
f 805 782 804
f 804 782 781
f 804 781 803
f 804 803 826
f 826 803 825
f 825 803 802
f 825 802 824
f 824 802 801
f 824 801 823
f 823 801 800
f 823 800 822
f 822 800 799
f 822 799 821
f 821 799 798
f 821 798 820
f 820 798 797
f 820 797 819
f 819 797 796
f 819 796 818
f 818 796 795
f 818 795 817
f 817 795 794
f 794 795 772
f 794 772 771
f 794 771 793
f 793 771 770
f 793 770 792
f 792 770 769
f 792 769 791
f 791 769 768
f 791 768 790
f 790 768 767
f 790 767 789
f 789 767 766
f 766 767 744
f 766 744 743
f 743 744 721
f 743 721 720
f 721 744 722
f 722 744 745
f 722 745 723
f 723 745 746
f 723 746 724
f 724 746 747
f 724 747 725
f 725 747 748
f 725 748 726
f 726 748 749
f 726 749 727
f 727 749 750
f 727 750 728
f 728 750 751
f 728 751 729
f 729 751 752
f 729 752 730
f 730 752 753
f 730 753 731
f 731 753 754
f 731 754 732
f 732 754 755
f 732 755 733
f 733 755 756
f 733 756 734
f 734 756 757
f 734 757 735
f 735 757 758
f 735 758 736
f 736 758 759
f 736 759 737
f 736 737 714
f 737 759 760
f 760 759 782
f 760 782 783
f 782 759 781
f 781 759 758
f 781 758 780
f 781 780 803
f 803 780 802
f 802 780 779
f 802 779 801
f 801 779 778
f 801 778 800
f 800 778 777
f 800 777 799
f 799 777 776
f 799 776 798
f 798 776 775
f 798 775 797
f 797 775 774
f 797 774 796
f 796 774 773
f 796 773 795
f 795 773 772
f 772 773 750
f 772 750 749
f 772 749 771
f 771 749 748
f 771 748 770
f 770 748 747
f 770 747 769
f 769 747 746
f 769 746 768
f 768 746 745
f 768 745 767
f 767 745 744
f 750 773 751
f 751 773 774
f 751 774 752
f 752 774 775
f 752 775 753
f 753 775 776
f 753 776 754
f 754 776 777
f 754 777 755
f 755 777 778
f 755 778 756
f 756 778 779
f 756 779 757
f 757 779 780
f 757 780 758
g left_sleeve
v 0.30049 1.02574 -0.15265
v 0.35378 1.05620 -0.15216
v 0.37755 1.06156 -0.08343
v 0.34531 1.03673 -0.04477
v 0.30786 1.01459 -0.02564
v 0.26942 0.99387 -0.04051
v 0.25087 0.98568 -0.08159
v 0.27087 0.99433 -0.12223
v 0.30052 1.02538 -0.14839
v 0.28010 1.04365 -0.14752
v 0.27589 1.07079 -0.16090
v 0.26262 1.09458 -0.16519
v 0.27385 1.11779 -0.15481
v 0.25907 1.12985 -0.18008
v 0.22961 1.10440 -0.13444
v 0.17975 1.08263 -0.05446
v 0.21651 1.13470 -0.04216
v 0.22072 1.17144 -0.02760
v 0.20944 1.19628 -0.01544
v 0.21199 1.22325 -0.00302
v 0.19461 1.22728 -0.02653
v 0.22000 1.23135 -0.04165
v 0.21540 1.16195 -0.01649
v 0.22260 1.12627 0.01302
v 0.23251 1.29426 -0.10172
v 0.21469 1.24560 -0.15518
v 0.18390 1.20202 -0.15661
v 0.17569 1.16358 -0.13492
v 0.18768 1.13222 -0.12596
v 0.19899 1.11973 -0.11590
v 0.21991 1.09710 -0.12169
v 0.22917 1.10394 -0.13597
v 0.24495 1.13089 -0.15170
v 0.27491 1.11895 -0.14852
v 0.26262 1.09458 -0.16519
v 0.27589 1.07079 -0.16090
v 0.28010 1.04365 -0.14752
v 0.29767 1.05063 -0.15492
v 0.27498 1.06734 -0.15263
v 0.25689 1.08964 -0.14717
v 0.24235 1.11120 -0.14709
v 0.21820 1.11754 -0.13872
v 0.32641 1.06873 -0.14768
v 0.30482 1.08743 -0.14506
v 0.28138 1.09426 -0.15047
v 0.23445 1.10089 -0.14744
v 0.20757 1.12327 -0.13645
v 0.35409 1.08389 -0.11959
v 0.32558 1.10545 -0.13435
v 0.29965 1.11700 -0.14561
v 0.25691 1.12486 -0.15743
v 0.22342 1.14394 -0.15546
v 0.20111 1.17020 -0.15539
v 0.35657 1.08822 -0.08423
v 0.33853 1.11950 -0.08971
v 0.31287 1.13763 -0.12299
v 0.28636 1.15174 -0.13886
v 0.25836 1.17631 -0.14963
v 0.23328 1.20337 -0.15833
v 0.33348 1.07222 -0.06163
v 0.32142 1.10949 -0.06865
v 0.30671 1.13972 -0.08398
v 0.28960 1.17094 -0.09941
v 0.26794 1.19824 -0.11353
v 0.25674 1.22909 -0.12437
v 0.31658 1.06459 -0.04443
v 0.30025 1.10105 -0.05567
v 0.28879 1.13938 -0.06340
v 0.27515 1.17646 -0.07212
v 0.27277 1.21766 -0.07506
v 0.27479 1.26069 -0.09418
v 0.29014 1.02614 -0.02757
v 0.27179 1.03800 -0.02999
v 0.25320 1.05009 -0.03025
v 0.23914 1.06574 -0.02135
v 0.23254 1.08748 -0.01297
v 0.22387 1.10515 -0.01066
v 0.26955 1.01919 -0.03035
v 0.25498 1.03795 -0.03091
v 0.24090 1.05778 -0.03266
v 0.22845 1.07894 -0.03180
v 0.22093 1.10300 -0.02860
v 0.21691 1.12933 -0.02261
v 0.25259 1.01484 -0.04283
v 0.24078 1.03940 -0.03916
v 0.23035 1.06564 -0.03583
v 0.22286 1.09331 -0.03200
v 0.21743 1.12279 -0.02929
v 0.21595 1.15589 -0.03108
v 0.24280 1.01473 -0.06292
v 0.23261 1.04415 -0.05426
v 0.22297 1.07496 -0.04570
v 0.21675 1.10715 -0.03669
v 0.21459 1.14178 -0.03134
v 0.21458 1.17858 -0.03151
v 0.24403 1.01935 -0.08680
v 0.23309 1.05212 -0.07460
v 0.22523 1.08645 -0.06295
v 0.21805 1.12057 -0.05218
v 0.21535 1.15689 -0.04411
v 0.22255 1.19332 -0.03984
v 0.24974 1.02704 -0.11052
v 0.23349 1.05742 -0.09383
v 0.22292 1.09267 -0.07930
v 0.24463 1.14683 -0.02380
v 0.24789 1.16761 -0.03091
v 0.26109 1.03533 -0.13055
v 0.23968 1.06500 -0.12571
v 0.17465 1.05052 -0.15674
v 0.30189 1.16167 -0.11017
v 0.30833 1.18360 -0.04459
f 886 887 897
f 886 897 885
f 885 897 884
f 884 897 902
f 884 902 883
f 883 902 908
f 883 908 882
f 882 908 914
f 882 914 881
f 881 914 920
f 881 920 880
f 880 920 926
f 880 926 879
f 879 926 932
f 879 932 938
f 879 938 878
f 878 938 944
f 878 944 877
f 877 944 950
f 877 950 876
f 876 950 956
f 876 956 875
f 875 956 961
f 875 961 874
f 874 961 966
f 874 966 873
f 873 966 872
f 872 966 871
f 871 966 869
f 864 865 962
f 864 962 863
f 863 962 957
f 863 957 951
f 863 951 862
f 862 951 945
f 862 945 861
f 861 945 939
f 861 939 933
f 861 933 860
f 860 933 927
f 860 927 921
f 860 921 859
f 859 921 915
f 859 915 858
f 858 915 909
f 858 909 903
f 858 903 857
f 857 903 898
f 857 898 893
f 857 893 856
f 856 893 892
f 891 892 893
f 891 893 894
f 891 894 890
f 888 889 896
f 888 896 897
f 888 897 887
f 897 896 901
f 897 901 902
f 902 901 906
f 902 906 907
f 902 907 908
f 908 907 913
f 908 913 914
f 914 913 919
f 914 919 920
f 920 919 925
f 920 925 926
f 926 925 931
f 926 931 932
f 932 931 937
f 932 937 938
f 938 937 943
f 938 943 944
f 944 943 949
f 944 949 950
f 950 949 955
f 950 955 956
f 956 955 961
f 961 955 960
f 961 960 965
f 961 965 966
f 966 965 869
f 869 965 868
f 868 965 964
f 868 964 867
f 867 964 963
f 867 963 866
f 866 963 962
f 866 962 865
f 962 963 958
f 962 958 957
f 957 958 952
f 957 952 951
f 951 952 946
f 951 946 945
f 945 946 940
f 945 940 939
f 939 940 934
f 939 934 933
f 933 934 928
f 933 928 927
f 927 928 922
f 927 922 921
f 921 922 916
f 921 916 915
f 915 916 910
f 915 910 909
f 909 910 904
f 909 904 903
f 903 904 899
f 903 899 898
f 898 899 894
f 898 894 893
f 894 899 895
f 894 895 890
f 890 895 889
f 889 895 896
f 896 895 900
f 896 900 901
f 901 900 905
f 901 905 906
f 906 905 911
f 906 911 912
f 906 912 907
f 907 912 913
f 913 912 918
f 913 918 919
f 919 918 924
f 919 924 925
f 925 924 930
f 925 930 931
f 931 930 936
f 931 936 937
f 937 936 942
f 937 942 943
f 943 942 948
f 943 948 949
f 949 948 954
f 949 954 955
f 955 954 960
f 960 954 959
f 960 959 964
f 960 964 965
f 964 959 963
f 963 959 958
f 958 959 953
f 958 953 952
f 952 953 947
f 952 947 946
f 946 947 941
f 946 941 940
f 940 941 935
f 940 935 934
f 934 935 929
f 934 929 928
f 928 929 923
f 928 923 922
f 922 923 917
f 922 917 916
f 916 917 911
f 916 911 910
f 910 911 905
f 910 905 904
f 904 905 900
f 904 900 899
f 899 900 895
f 911 917 912
f 912 917 918
f 918 917 923
f 918 923 924
f 924 923 929
f 924 929 930
f 930 929 935
f 930 935 936
f 936 935 941
f 936 941 942
f 942 941 947
f 942 947 948
f 948 947 953
f 948 953 954
f 954 953 959
g right_sleeve
v -0.30275 1.01887 -0.03506
v -0.33904 1.04092 -0.05025
v -0.37919 1.06663 -0.08884
v -0.35320 1.05232 -0.14824
v -0.30355 1.02242 -0.15530
v -0.26570 1.00028 -0.13211
v -0.24747 0.98979 -0.09247
v -0.26831 0.99320 -0.05377
v -0.30275 1.01887 -0.03506
v -0.28386 1.03916 -0.02970
v -0.27972 1.06911 -0.02664
v -0.27428 1.09757 -0.03557
v -0.25702 1.11762 -0.04932
v -0.22704 1.12227 -0.05003
v -0.21991 1.10400 -0.05406
v -0.20110 1.12328 -0.02189
v -0.18755 1.14326 -0.01366
v -0.19073 1.16997 -0.01447
v -0.18214 1.19340 -0.01084
v -0.20252 1.21516 -0.00204
v -0.18508 1.22011 -0.02326
v -0.20944 1.22998 -0.00869
v -0.23052 1.22383 -0.04563
v -0.24048 1.23912 -0.05716
v -0.24293 1.29175 -0.15269
v -0.21590 1.23397 -0.15556
v -0.18250 1.18682 -0.15503
v -0.17229 1.14636 -0.12572
v -0.18691 1.12012 -0.09961
v -0.18793 1.09919 -0.08377
v -0.21065 1.10676 -0.05709
v -0.21991 1.10400 -0.05406
v -0.22704 1.12227 -0.05003
v -0.25706 1.11734 -0.04790
v -0.27428 1.09757 -0.03557
v -0.27972 1.06911 -0.02664
v -0.28386 1.03916 -0.02970
v -0.29966 1.04855 -0.04011
v -0.28153 1.06907 -0.04820
v -0.26129 1.08629 -0.05564
v -0.23903 1.09892 -0.05504
v -0.21508 1.10611 -0.07516
v -0.31555 1.05908 -0.05759
v -0.29366 1.07801 -0.06256
v -0.27107 1.09056 -0.05191
v -0.19503 1.07082 -0.05757
v -0.18706 1.10406 -0.11073
v -0.33799 1.07581 -0.06142
v -0.32192 1.09880 -0.05555
v -0.33022 1.13405 -0.05332
v -0.26378 1.11407 -0.18969
v -0.20934 1.12862 -0.15639
v -0.18723 1.15447 -0.15190
v -0.35886 1.09355 -0.10686
v -0.33447 1.11604 -0.11682
v -0.30305 1.12695 -0.13162
v -0.27097 1.14354 -0.14521
v -0.25180 1.17216 -0.15536
v -0.22951 1.19851 -0.15850
v -0.33549 1.08121 -0.13374
v -0.31057 1.10477 -0.13108
v -0.29094 1.13460 -0.13386
v -0.27454 1.16739 -0.13410
v -0.26519 1.20314 -0.14229
v -0.26468 1.23000 -0.16970
v -0.31397 1.07169 -0.15137
v -0.29609 1.10643 -0.15192
v -0.27615 1.13826 -0.15958
v -0.28305 1.18659 -0.17803
v -0.29746 1.23163 -0.20042
v -0.27867 1.25280 -0.20985
v -0.28003 1.03045 -0.14901
v -0.25210 1.03669 -0.14118
v -0.23327 1.05115 -0.12986
v -0.22167 1.07413 -0.11951
v -0.22148 1.10857 -0.06977
v -0.23266 1.15955 -0.03523
v -0.26457 1.02616 -0.12647
v -0.24474 1.04366 -0.10885
v -0.23333 1.06755 -0.08899
v -0.22330 1.09563 -0.06727
v -0.22506 1.13272 -0.04747
v -0.23738 1.18007 -0.04102
v -0.24932 1.02210 -0.11017
v -0.23809 1.04894 -0.09252
v -0.23004 1.07961 -0.07559
v -0.22632 1.11306 -0.05811
v -0.23047 1.15013 -0.04318
v -0.21869 1.18095 -0.03797
v -0.24138 1.02131 -0.08848
v -0.23260 1.05369 -0.07404
v -0.22670 1.08883 -0.06062
v -0.22529 1.12518 -0.04782
v -0.21432 1.15673 -0.03698
v -0.21603 1.17948 -0.01346
v -0.24354 1.02399 -0.06629
v -0.23372 1.05949 -0.05616
v -0.22771 1.09595 -0.04586
v -0.21974 1.12966 -0.03341
v -0.22324 1.15966 -0.01815
v -0.21531 1.18707 -0.03669
v -0.25271 1.02894 -0.04665
v -0.24354 1.06477 -0.03971
v -0.23628 1.10025 -0.02963
v -0.23644 1.13471 -0.02056
v -0.23949 1.16775 -0.03650
v -0.26566 1.03254 -0.02507
v -0.25759 1.06935 -0.02231
v -0.25796 1.10753 -0.01842
v -0.25462 1.14110 -0.03988
v -0.21665 1.14985 -0.04430
f 997 998 1008
f 997 1008 996
f 996 1008 995
f 995 1008 1013
f 995 1013 994
f 994 1013 1019
f 994 1019 993
f 993 1019 1025
f 993 1025 992
f 992 1025 1031
f 992 1031 991
f 991 1031 1037
f 991 1037 990
f 990 1037 1043
f 990 1043 1049
f 990 1049 989
f 989 1049 1055
f 989 1055 988
f 988 1055 1061
f 988 1061 987
f 987 1061 1067
f 987 1067 986
f 986 1067 1072
f 986 1072 985
f 985 1072 1077
f 985 1077 984
f 984 1077 983
f 983 1077 982
f 982 1077 980
f 975 976 1073
f 975 1073 974
f 974 1073 1068
f 974 1068 1062
f 974 1062 973
f 973 1062 1056
f 973 1056 972
f 972 1056 1050
f 972 1050 1044
f 972 1044 971
f 971 1044 1038
f 971 1038 1032
f 971 1032 970
f 970 1032 1026
f 970 1026 969
f 969 1026 1020
f 969 1020 1014
f 969 1014 968
f 968 1014 1009
f 968 1009 1004
f 968 1004 967
f 967 1004 1003
f 1002 1003 1004
f 1002 1004 1005
f 1002 1005 1001
f 999 1000 1007
f 999 1007 1008
f 999 1008 998
f 1008 1007 1012
f 1008 1012 1013
f 1013 1012 1017
f 1013 1017 1018
f 1013 1018 1019
f 1019 1018 1024
f 1019 1024 1025
f 1025 1024 1030
f 1025 1030 1031
f 1031 1030 1036
f 1031 1036 1037
f 1037 1036 1042
f 1037 1042 1043
f 1043 1042 1048
f 1043 1048 1049
f 1049 1048 1054
f 1049 1054 1055
f 1055 1054 1060
f 1055 1060 1061
f 1061 1060 1066
f 1061 1066 1067
f 1067 1066 1072
f 1072 1066 1071
f 1072 1071 1076
f 1072 1076 1077
f 1077 1076 980
f 980 1076 979
f 979 1076 1075
f 979 1075 978
f 978 1075 1074
f 978 1074 977
f 977 1074 1073
f 977 1073 976
f 1073 1074 1069
f 1073 1069 1068
f 1068 1069 1063
f 1068 1063 1062
f 1062 1063 1057
f 1062 1057 1056
f 1056 1057 1051
f 1056 1051 1050
f 1050 1051 1045
f 1050 1045 1044
f 1044 1045 1039
f 1044 1039 1038
f 1038 1039 1033
f 1038 1033 1032
f 1032 1033 1027
f 1032 1027 1026
f 1026 1027 1021
f 1026 1021 1020
f 1020 1021 1015
f 1020 1015 1014
f 1014 1015 1010
f 1014 1010 1009
f 1009 1010 1005
f 1009 1005 1004
f 1005 1010 1006
f 1005 1006 1001
f 1001 1006 1000
f 1000 1006 1007
f 1007 1006 1011
f 1007 1011 1012
f 1012 1011 1016
f 1012 1016 1017
f 1017 1016 1022
f 1017 1022 1023
f 1017 1023 1018
f 1018 1023 1024
f 1024 1023 1029
f 1024 1029 1030
f 1030 1029 1035
f 1030 1035 1036
f 1036 1035 1041
f 1036 1041 1042
f 1042 1041 1047
f 1042 1047 1048
f 1048 1047 1053
f 1048 1053 1054
f 1054 1053 1059
f 1054 1059 1060
f 1060 1059 1065
f 1060 1065 1066
f 1066 1065 1071
f 1071 1065 1070
f 1071 1070 1075
f 1071 1075 1076
f 1075 1070 1074
f 1074 1070 1069
f 1069 1070 1064
f 1069 1064 1063
f 1063 1064 1058
f 1063 1058 1057
f 1057 1058 1052
f 1057 1052 1051
f 1051 1052 1046
f 1051 1046 1045
f 1045 1046 1040
f 1045 1040 1039
f 1039 1040 1034
f 1039 1034 1033
f 1033 1034 1028
f 1033 1028 1027
f 1027 1028 1022
f 1027 1022 1021
f 1021 1022 1016
f 1021 1016 1015
f 1015 1016 1011
f 1015 1011 1010
f 1010 1011 1006
f 1022 1028 1023
f 1023 1028 1029
f 1029 1028 1034
f 1029 1034 1035
f 1035 1034 1040
f 1035 1040 1041
f 1041 1040 1046
f 1041 1046 1047
f 1047 1046 1052
f 1047 1052 1053
f 1053 1052 1058
f 1053 1058 1059
f 1059 1058 1064
f 1059 1064 1065
f 1065 1064 1070
