# H&M Regular Fit Buffalo Check Flannel Long-Sleeve Shirt
# Parametric CAD & PBD Physics Sim

g front_panel
v 0.00000 0.56500 0.12000
v 0.04413 0.56569 0.11466
v 0.08571 0.56778 0.09895
v 0.12235 0.57125 0.07377
v 0.15194 0.57612 0.04053
v 0.17282 0.58260 0.00077
v 0.18698 0.59869 -0.04433
v 0.18081 0.91083 -0.07842
v 0.18215 1.08245 -0.06929
v 0.18196 1.08947 -0.07285
v 0.18374 1.09368 -0.06730
v 0.17656 1.14494 -0.02488
v 0.17305 1.20952 -0.00166
v 0.17376 1.26878 -0.01172
v 0.20315 1.38131 -0.08705
v 0.07097 1.34035 0.09682
v 0.00000 1.21502 0.11999
v -0.07125 1.34019 0.09662
v -0.21533 1.38070 -0.08568
v -0.17539 1.27148 -0.01545
v -0.17268 1.21341 -0.00040
v -0.17268 1.15094 -0.01504
v -0.16458 1.09523 -0.03428
v -0.16059 1.08822 -0.03961
v -0.17776 0.88614 -0.02813
v -0.19922 0.58961 -0.04192
v -0.17351 0.58226 0.00191
v -0.15191 0.57612 0.04059
v -0.12234 0.57126 0.07377
v -0.08571 0.56779 0.09895
v -0.04413 0.56569 0.11466
v -0.00000 0.56500 0.12000
v -0.18333 0.62839 -0.00997
v -0.18528 0.66126 -0.00956
v -0.18876 0.69591 -0.01868
v -0.19049 0.72394 -0.05404
v -0.19102 0.76091 -0.05835
v -0.18254 0.80164 -0.06274
v -0.16740 0.86496 -0.03272
v -0.16488 0.87641 -0.03387
v -0.16489 0.88107 -0.03429
v -0.16315 0.88987 -0.03415
v -0.17098 0.93990 -0.06756
v -0.16682 0.98583 -0.06022
v -0.16261 1.06797 -0.03612
v -0.16369 1.08929 -0.03061
v -0.16460 1.07701 -0.04001
v -0.16835 0.62913 0.02031
v -0.17101 0.66387 0.02007
v -0.18198 0.70096 0.00836
v -0.19717 0.72356 -0.04165
v -0.19395 0.76074 -0.04495
v -0.19124 0.80447 -0.04648
v -0.16289 0.86826 -0.02239
v -0.16107 0.87879 -0.02364
v -0.16523 0.87356 -0.03300
v -0.16167 0.88254 -0.02670
v -0.16225 0.89587 -0.03125
v -0.16464 0.98919 -0.04997
v -0.15995 1.07275 -0.02914
v -0.15946 1.08445 -0.02749
v -0.16481 1.08882 -0.03941
v -0.15899 1.08086 -0.02930
v -0.16143 1.09605 -0.02567
v -0.16500 1.15806 0.00652
v -0.16729 1.27693 0.00462
v -0.14846 0.59711 0.04539
v -0.14866 0.62977 0.04516
v -0.15059 0.66445 0.04311
v -0.16324 0.69857 0.03503
v -0.17133 0.72985 0.02300
v -0.17209 0.76556 0.02208
v -0.16198 0.80304 0.02048
v -0.15291 0.83826 0.01631
v -0.16059 0.87126 -0.01701
v -0.17941 0.88227 -0.01730
v -0.15245 0.90478 0.01841
v -0.15333 0.93878 0.01228
v -0.15125 0.98241 0.02006
v -0.15395 1.02892 0.00842
v -0.15747 1.07531 -0.02125
v -0.15907 1.08284 -0.02647
v -0.15675 1.08716 -0.02113
v -0.15267 1.12396 0.01846
v -0.15067 1.15881 0.03166
v -0.14956 1.20059 0.04268
v -0.14947 1.23923 0.04309
v -0.15135 1.27379 0.03278
v -0.12748 0.59710 0.06906
v -0.12773 0.62963 0.06877
v -0.12897 0.66298 0.06734
v -0.13167 0.69592 0.06388
v -0.13328 0.72811 0.06109
v -0.13259 0.76084 0.06060
v -0.13192 0.79469 0.05995
v -0.13321 0.82877 0.05023
v -0.13558 0.85757 0.03986
v -0.13261 0.88414 0.04969
v -0.13125 0.91683 0.06116
v -0.13112 0.94998 0.06130
v -0.13145 0.98640 0.06019
v -0.13357 1.02311 0.04867
v -0.13594 1.05325 0.03841
v -0.13587 1.07893 0.03888
v -0.13271 1.10506 0.04957
v -0.13014 1.13853 0.06375
v -0.12877 1.17192 0.06697
v -0.12786 1.20531 0.06860
v -0.12843 1.23840 0.06758
v -0.12904 1.26983 0.06661
v -0.13151 1.30199 0.05635
v -0.10277 0.59706 0.08882
v -0.10294 0.62928 0.08868
v -0.10336 0.66161 0.08830
v -0.10393 0.69379 0.08778
v -0.10421 0.72585 0.08749
v -0.10428 0.75818 0.08738
v -0.10500 0.79128 0.08617
v -0.10664 0.82367 0.08334
v -0.10678 0.85434 0.08294
v -0.10512 0.88531 0.08586
v -0.10388 0.91753 0.08777
v -0.10407 0.95009 0.08758
v -0.10505 0.98357 0.08606
v -0.10688 1.01627 0.08301
v -0.10766 1.04755 0.08146
v -0.10671 1.07794 0.08313
v -0.10493 1.10883 0.08607
v -0.10332 1.14100 0.08832
v -0.10298 1.17303 0.08865
v -0.10290 1.20520 0.08871
v -0.10305 1.23732 0.08859
v -0.10381 1.26983 0.08764
v -0.10556 1.29983 0.08652
v -0.07503 0.59702 0.10410
v -0.07507 0.62906 0.10407
v -0.07515 0.66110 0.10403
v -0.07521 0.69311 0.10399
v -0.07526 0.72515 0.10397
v -0.07541 0.75733 0.10387
v -0.07577 0.78956 0.10363
v -0.07607 0.82148 0.10342
v -0.07589 0.85320 0.10355
v -0.07544 0.88507 0.10385
v -0.07521 0.91714 0.10399
v -0.07540 0.94935 0.10388
v -0.07580 0.98161 0.10361
v -0.07623 1.01366 0.10331
v -0.07623 1.04544 0.10330
v -0.07583 1.07716 0.10359
v -0.07537 1.10902 0.10389
v -0.07507 1.14101 0.10407
v -0.07504 1.17302 0.10409
v -0.07505 1.20504 0.10409
v -0.07516 1.23714 0.10402
v -0.07540 1.26910 0.10390
v -0.07582 1.30064 0.10376
v -0.04509 0.59700 0.11442
v -0.04510 0.62901 0.11442
v -0.04510 0.66101 0.11442
v -0.04511 0.69301 0.11441
v -0.04513 0.72503 0.11441
v -0.04517 0.75706 0.11439
v -0.04522 0.78907 0.11437
v -0.04523 0.82105 0.11437
v -0.04518 0.85302 0.11439
v -0.04513 0.88501 0.11441
v -0.04512 0.91703 0.11441
v -0.04517 0.94906 0.11439
v -0.04523 0.98108 0.11437
v -0.04526 1.01307 0.11436
v -0.04524 1.04504 0.11437
v -0.04517 1.07701 0.11439
v -0.04512 1.10900 0.11441
v -0.04509 1.14100 0.11442
v -0.04509 1.17300 0.11442
v -0.04510 1.20505 0.11442
v -0.04516 1.23741 0.11436
v -0.01385 0.59700 0.11948
v -0.01385 0.62900 0.11948
v -0.01385 0.66100 0.11948
v -0.01385 0.69300 0.11948
v -0.01385 0.72500 0.11948
v -0.01386 0.75700 0.11948
v -0.01386 0.78900 0.11948
v -0.01386 0.82100 0.11948
v -0.01386 0.85300 0.11948
v -0.01385 0.88500 0.11948
v -0.01385 0.91700 0.11948
v -0.01386 0.94901 0.11948
v -0.01386 0.98101 0.11948
v -0.01386 1.01300 0.11948
v -0.01386 1.04500 0.11948
v -0.01385 1.07700 0.11948
v -0.01385 1.10900 0.11948
v -0.01385 1.14100 0.11948
v -0.01385 1.17300 0.11948
v 0.01780 0.59700 0.11914
v 0.01780 0.62900 0.11914
v 0.01780 0.66100 0.11914
v 0.01780 0.69300 0.11914
v 0.01780 0.72500 0.11914
v 0.01780 0.75700 0.11914
v 0.01780 0.78900 0.11914
v 0.01780 0.82100 0.11914
v 0.01780 0.85300 0.11914
v 0.01780 0.88500 0.11914
v 0.01781 0.91700 0.11914
v 0.01781 0.94900 0.11914
v 0.01781 0.98099 0.11914
v 0.01781 1.01299 0.11914
v 0.01780 1.04500 0.11914
v 0.01780 1.07700 0.11914
v 0.01781 1.10900 0.11914
v 0.01781 1.14100 0.11914
v 0.01782 1.17300 0.11914
v 0.04892 0.59700 0.11341
v 0.04892 0.62900 0.11341
v 0.04892 0.66100 0.11341
v 0.04892 0.69300 0.11341
v 0.04892 0.72500 0.11341
v 0.04893 0.75700 0.11341
v 0.04893 0.78900 0.11341
v 0.04894 0.82099 0.11341
v 0.04896 0.85299 0.11340
v 0.04902 0.88498 0.11338
v 0.04909 0.91695 0.11335
v 0.04911 0.94892 0.11334
v 0.04907 0.98091 0.11336
v 0.04901 1.01294 0.11338
v 0.04898 1.04497 0.11339
v 0.04902 1.07698 0.11338
v 0.04908 1.10895 0.11335
v 0.04913 1.14092 0.11333
v 0.04918 1.17288 0.11331
v 0.04909 1.20492 0.11335
v 0.04904 1.23723 0.11334
v 0.07861 0.59700 0.10247
v 0.07861 0.62900 0.10247
v 0.07861 0.66100 0.10247
v 0.07861 0.69300 0.10247
v 0.07864 0.72500 0.10245
v 0.07871 0.75698 0.10241
v 0.07878 0.78895 0.10237
v 0.07882 0.82091 0.10234
v 0.07912 0.85292 0.10214
v 0.07960 0.88479 0.10179
v 0.08003 0.91650 0.10146
v 0.07998 0.94827 0.10150
v 0.07947 0.98034 0.10189
v 0.07904 1.01263 0.10220
v 0.07913 1.04486 0.10214
v 0.07957 1.07679 0.10182
v 0.07999 1.10851 0.10149
v 0.08023 1.14025 0.10130
v 0.08008 1.17214 0.10142
v 0.07949 1.20426 0.10187
v 0.07902 1.23653 0.10222
v 0.07887 1.26897 0.10232
v 0.07950 1.30042 0.10211
v 0.10601 0.59700 0.08662
v 0.10601 0.62900 0.08662
v 0.10601 0.66100 0.08662
v 0.10603 0.69300 0.08660
v 0.10636 0.72501 0.08630
v 0.10689 0.75682 0.08578
v 0.10728 0.78852 0.08537
v 0.10748 0.82052 0.08512
v 0.10898 0.85319 0.08256
v 0.11086 0.88448 0.07885
v 0.11187 0.91492 0.07686
v 0.11072 0.94595 0.07933
v 0.10855 0.97846 0.08333
v 0.10764 1.01193 0.08496
v 0.10893 1.04499 0.08274
v 0.11080 1.07621 0.07922
v 0.11189 1.10642 0.07713
v 0.11211 1.13701 0.07670
v 0.11087 1.16852 0.07918
v 0.10816 1.20182 0.08373
v 0.10654 1.23596 0.08611
v 0.10641 1.26870 0.08627
v 0.10866 1.30008 0.08422
v 0.13030 0.59700 0.06633
v 0.13030 0.62900 0.06633
v 0.13030 0.66100 0.06633
v 0.13055 0.69307 0.06602
v 0.13259 0.72537 0.06287
v 0.13495 0.75653 0.05923
v 0.13553 0.78907 0.05690
v 0.13564 0.82443 0.05440
v 0.13867 0.86222 0.03873
v 0.14272 0.89092 0.02456
v 0.14252 0.91641 0.02487
v 0.13818 0.94265 0.04072
v 0.13531 0.97668 0.05509
v 0.13548 1.01453 0.05499
v 0.13879 1.05146 0.04003
v 0.14302 1.07862 0.02633
v 0.14327 1.10237 0.02524
v 0.14289 1.12703 0.02612
v 0.13754 1.15861 0.04274
v 0.13258 1.19811 0.06114
v 0.13093 1.23568 0.06550
v 0.13200 1.27001 0.06357
v 0.13480 1.30377 0.05133
v 0.15079 0.59700 0.04217
v 0.15077 0.62901 0.04220
v 0.15083 0.66118 0.04212
v 0.15292 0.69476 0.03919
v 0.17068 0.73003 0.02576
v 0.17775 0.76457 0.01451
v 0.16869 0.80984 0.00580
v 0.16115 0.85312 -0.00518
v 0.17338 0.90443 -0.05437
v 0.17446 0.91203 -0.06057
v 0.17324 0.91737 -0.05461
v 0.15950 0.93737 -0.00028
v 0.15885 0.98789 0.00494
v 0.16121 1.03726 -0.00198
v 0.17613 1.07688 -0.05287
v 0.17682 1.08211 -0.05762
v 0.17689 1.08709 -0.05728
v 0.17529 1.09447 -0.05156
v 0.15671 1.14857 0.01217
v 0.15225 1.19779 0.03749
v 0.15202 1.23865 0.03920
v 0.15378 1.27615 0.02782
v 0.16716 0.62916 0.01517
v 0.16915 0.66265 0.01551
v 0.18114 0.70131 0.00164
v 0.19598 0.73847 -0.07213
v 0.18579 0.78361 -0.07736
v 0.17731 0.88827 -0.06675
v 0.17803 0.90305 -0.06865
v 0.18016 0.90498 -0.07235
v 0.18181 0.91175 -0.07219
v 0.17724 0.90946 -0.06408
v 0.17679 0.92724 -0.06157
v 0.17977 1.05752 -0.06399
v 0.18108 1.07746 -0.06684
v 0.18401 1.08644 -0.07407
v 0.18445 1.08895 -0.06862
v 0.18068 1.07897 -0.07076
v 0.18041 1.09194 -0.05955
v 0.17093 1.15592 -0.00517
v 0.18029 0.62978 -0.01372
v 0.18268 0.66358 -0.01474
v 0.18844 0.70335 -0.03237
v 0.17879 0.73619 -0.08878
v 0.17910 0.78022 -0.08969
v 0.17428 0.82199 -0.08724
v 0.17914 0.93106 -0.07323
v 0.17296 1.00214 -0.08965
v 0.18125 1.06652 -0.07161
v 0.18230 1.07480 -0.06625
v 0.18397 1.07494 -0.07426
f 19 20 66
f 19 66 88
f 19 88 111
f 19 111 18
f 18 111 134
f 18 134 157
f 18 157 178
f 16 237 260
f 16 260 283
f 16 283 306
f 16 306 15
f 15 306 328
f 15 328 14
f 10 11 357
f 10 357 356
f 10 356 355
f 10 355 354
f 10 354 8
f 7 8 351
f 7 351 350
f 7 350 349
f 7 349 348
f 7 348 347
f 7 347 6
f 6 347 329
f 6 329 307
f 6 307 5
f 5 307 284
f 5 284 4
f 4 284 261
f 4 261 3
f 3 261 238
f 3 238 2
f 2 238 217
f 2 217 198
f 2 198 32
f 32 198 179
f 32 179 31
f 31 179 158
f 31 158 135
f 31 135 30
f 30 135 112
f 30 112 29
f 29 112 89
f 29 89 28
f 28 89 67
f 28 67 27
f 27 67 48
f 27 48 33
f 27 33 26
f 26 33 34
f 26 34 35
f 26 35 36
f 26 36 37
f 26 37 25
f 24 25 44
f 24 44 45
f 24 45 46
f 24 46 47
f 24 47 23
f 23 47 63
f 23 63 64
f 23 64 22
f 20 21 66
f 66 21 87
f 66 87 88
f 88 87 109
f 88 109 110
f 88 110 111
f 111 110 133
f 111 133 134
f 134 133 156
f 134 156 157
f 157 156 178
f 178 156 155
f 178 155 177
f 178 177 17
f 237 17 236
f 237 236 257
f 237 257 258
f 237 258 259
f 237 259 260
f 260 259 283
f 283 259 282
f 283 282 305
f 283 305 306
f 306 305 328
f 328 305 327
f 328 327 14
f 14 327 13
f 11 12 345
f 11 345 344
f 11 344 357
f 357 344 343
f 357 343 356
f 356 343 342
f 356 342 355
f 355 342 341
f 355 341 354
f 354 341 340
f 354 340 353
f 354 353 8
f 8 353 338
f 8 338 337
f 8 337 336
f 8 336 352
f 8 352 351
f 351 352 334
f 351 334 333
f 351 333 350
f 350 333 332
f 350 332 349
f 349 332 331
f 349 331 348
f 348 331 330
f 348 330 347
f 347 330 329
f 329 330 309
f 329 309 308
f 329 308 307
f 307 308 285
f 307 285 284
f 284 285 262
f 284 262 261
f 261 262 239
f 261 239 238
f 238 239 218
f 238 218 217
f 217 218 199
f 217 199 198
f 198 199 180
f 198 180 179
f 179 180 159
f 179 159 158
f 158 159 136
f 158 136 135
f 135 136 113
f 135 113 112
f 112 113 90
f 112 90 89
f 89 90 68
f 89 68 67
f 67 68 48
f 48 68 49
f 48 49 34
f 48 34 33
f 34 49 35
f 35 49 50
f 35 50 36
f 36 50 51
f 36 51 37
f 37 51 52
f 37 52 38
f 37 38 25
f 25 38 39
f 25 39 40
f 25 40 41
f 25 41 42
f 25 42 43
f 25 43 44
f 44 43 58
f 44 58 59
f 44 59 45
f 45 59 60
f 45 60 46
f 46 60 61
f 46 61 47
f 47 61 62
f 47 62 63
f 63 62 83
f 63 83 64
f 64 83 84
f 64 84 85
f 64 85 65
f 64 65 22
f 22 65 21
f 21 65 86
f 21 86 87
f 87 86 108
f 87 108 109
f 109 108 131
f 109 131 132
f 109 132 110
f 110 132 133
f 133 132 155
f 133 155 156
f 155 132 154
f 155 154 177
f 177 154 176
f 177 176 197
f 177 197 17
f 17 197 216
f 17 216 236
f 236 216 235
f 236 235 256
f 236 256 257
f 257 256 279
f 257 279 280
f 257 280 258
f 258 280 281
f 258 281 259
f 259 281 282
f 282 281 304
f 282 304 305
f 305 304 327
f 327 304 326
f 327 326 13
f 13 326 346
f 13 346 12
f 12 346 345
f 345 346 325
f 345 325 324
f 345 324 344
f 344 324 323
f 344 323 343
f 343 323 322
f 343 322 342
f 342 322 321
f 342 321 341
f 341 321 320
f 341 320 340
f 340 320 319
f 340 319 339
f 340 339 353
f 353 339 338
f 338 339 318
f 338 318 317
f 338 317 337
f 337 317 316
f 337 316 336
f 336 316 315
f 336 315 335
f 336 335 352
f 352 335 334
f 334 335 314
f 334 314 313
f 334 313 333
f 333 313 312
f 333 312 332
f 332 312 311
f 332 311 331
f 331 311 310
f 331 310 330
f 330 310 309
f 309 310 287
f 309 287 286
f 309 286 308
f 308 286 285
f 285 286 263
f 285 263 262
f 262 263 240
f 262 240 239
f 239 240 219
f 239 219 218
f 218 219 200
f 218 200 199
f 199 200 181
f 199 181 180
f 180 181 160
f 180 160 159
f 159 160 137
f 159 137 136
f 136 137 114
f 136 114 113
f 113 114 91
f 113 91 90
f 90 91 69
f 90 69 68
f 68 69 49
f 49 69 50
f 50 69 70
f 50 70 51
f 51 70 71
f 51 71 52
f 52 71 72
f 52 72 53
f 52 53 38
f 38 53 39
f 39 53 54
f 39 54 40
f 40 54 55
f 40 55 41
f 41 55 56
f 41 56 42
f 42 56 57
f 42 57 43
f 43 57 58
f 58 57 78
f 58 78 59
f 59 78 79
f 59 79 80
f 59 80 60
f 60 80 61
f 61 80 81
f 61 81 62
f 62 81 82
f 62 82 83
f 83 82 104
f 83 104 105
f 83 105 84
f 84 105 106
f 84 106 85
f 85 106 107
f 85 107 86
f 85 86 65
f 86 107 108
f 108 107 130
f 108 130 131
f 131 130 153
f 131 153 154
f 131 154 132
f 154 153 176
f 176 153 175
f 176 175 196
f 176 196 197
f 197 196 215
f 197 215 216
f 216 215 234
f 216 234 235
f 235 234 255
f 235 255 256
f 256 255 278
f 256 278 279
f 279 278 301
f 279 301 302
f 279 302 280
f 280 302 303
f 280 303 281
f 281 303 304
f 304 303 326
f 326 303 325
f 326 325 346
f 325 303 302
f 325 302 324
f 324 302 301
f 324 301 323
f 323 301 300
f 323 300 322
f 322 300 299
f 322 299 321
f 321 299 298
f 321 298 320
f 320 298 297
f 320 297 319
f 319 297 296
f 319 296 318
f 319 318 339
f 318 296 295
f 318 295 317
f 317 295 294
f 317 294 316
f 316 294 293
f 316 293 315
f 315 293 292
f 315 292 314
f 315 314 335
f 314 292 291
f 314 291 313
f 313 291 290
f 313 290 312
f 312 290 289
f 312 289 311
f 311 289 288
f 311 288 310
f 310 288 287
f 287 288 265
f 287 265 264
f 287 264 286
f 286 264 263
f 263 264 241
f 263 241 240
f 240 241 220
f 240 220 219
f 219 220 201
f 219 201 200
f 200 201 182
f 200 182 181
f 181 182 161
f 181 161 160
f 160 161 138
f 160 138 137
f 137 138 115
f 137 115 114
f 114 115 92
f 114 92 91
f 91 92 70
f 91 70 69
f 70 92 71
f 71 92 93
f 71 93 72
f 72 93 94
f 72 94 73
f 72 73 53
f 53 73 54
f 54 73 74
f 54 74 55
f 55 74 75
f 55 75 56
f 56 75 76
f 56 76 57
f 57 76 77
f 57 77 78
f 78 77 99
f 78 99 100
f 78 100 79
f 79 100 101
f 79 101 80
f 80 101 102
f 80 102 81
f 81 102 103
f 81 103 82
f 82 103 104
f 104 103 126
f 104 126 127
f 104 127 105
f 105 127 128
f 105 128 106
f 106 128 129
f 106 129 107
f 107 129 130
f 130 129 152
f 130 152 153
f 153 152 175
f 175 152 174
f 175 174 195
f 175 195 196
f 196 195 214
f 196 214 215
f 215 214 233
f 215 233 234
f 234 233 254
f 234 254 255
f 255 254 277
f 255 277 278
f 278 277 300
f 278 300 301
f 300 277 299
f 299 277 276
f 299 276 298
f 298 276 275
f 298 275 297
f 297 275 274
f 297 274 296
f 296 274 273
f 296 273 295
f 295 273 272
f 295 272 294
f 294 272 271
f 294 271 293
f 293 271 270
f 293 270 292
f 292 270 269
f 292 269 291
f 291 269 268
f 291 268 290
f 290 268 267
f 290 267 289
f 289 267 266
f 289 266 288
f 288 266 265
f 265 266 243
f 265 243 242
f 265 242 264
f 264 242 241
f 241 242 221
f 241 221 220
f 220 221 202
f 220 202 201
f 201 202 183
f 201 183 182
f 182 183 162
f 182 162 161
f 161 162 139
f 161 139 138
f 138 139 116
f 138 116 115
f 115 116 93
f 115 93 92
f 93 116 94
f 94 116 117
f 94 117 95
f 94 95 73
f 73 95 74
f 74 95 96
f 74 96 75
f 75 96 97
f 75 97 76
f 76 97 98
f 76 98 77
f 77 98 99
f 99 98 121
f 99 121 122
f 99 122 100
f 100 122 123
f 100 123 101
f 101 123 124
f 101 124 102
f 102 124 125
f 102 125 103
f 103 125 126
f 126 125 148
f 126 148 149
f 126 149 127
f 127 149 150
f 127 150 128
f 128 150 151
f 128 151 129
f 129 151 152
f 152 151 174
f 174 151 173
f 174 173 194
f 174 194 195
f 195 194 213
f 195 213 214
f 214 213 232
f 214 232 233
f 233 232 253
f 233 253 254
f 254 253 276
f 254 276 277
f 276 253 275
f 275 253 252
f 275 252 274
f 274 252 251
f 274 251 273
f 273 251 250
f 273 250 272
f 272 250 249
f 272 249 271
f 271 249 248
f 271 248 270
f 270 248 247
f 270 247 269
f 269 247 246
f 269 246 268
f 268 246 245
f 268 245 267
f 267 245 244
f 267 244 266
f 266 244 243
f 243 244 223
f 243 223 222
f 243 222 242
f 242 222 221
f 221 222 203
f 221 203 202
f 202 203 184
f 202 184 183
f 183 184 163
f 183 163 162
f 162 163 140
f 162 140 139
f 139 140 117
f 139 117 116
f 117 140 118
f 117 118 95
f 95 118 96
f 96 118 119
f 96 119 97
f 97 119 120
f 97 120 98
f 98 120 121
f 121 120 143
f 121 143 144
f 121 144 122
f 122 144 145
f 122 145 123
f 123 145 146
f 123 146 124
f 124 146 147
f 124 147 125
f 125 147 148
f 148 147 170
f 148 170 171
f 148 171 149
f 149 171 172
f 149 172 150
f 150 172 173
f 150 173 151
f 173 172 193
f 173 193 194
f 194 193 212
f 194 212 213
f 213 212 231
f 213 231 232
f 232 231 252
f 232 252 253
f 252 231 251
f 251 231 230
f 251 230 250
f 250 230 229
f 250 229 249
f 249 229 228
f 249 228 248
f 248 228 227
f 248 227 247
f 247 227 226
f 247 226 246
f 246 226 225
f 246 225 245
f 245 225 224
f 245 224 244
f 244 224 223
f 223 224 205
f 223 205 204
f 223 204 222
f 222 204 203
f 203 204 185
f 203 185 184
f 184 185 164
f 184 164 163
f 163 164 141
f 163 141 140
f 140 141 118
f 118 141 119
f 119 141 142
f 119 142 120
f 120 142 143
f 143 142 165
f 143 165 166
f 143 166 144
f 144 166 167
f 144 167 145
f 145 167 168
f 145 168 146
f 146 168 169
f 146 169 147
f 147 169 170
f 170 169 190
f 170 190 191
f 170 191 171
f 171 191 192
f 171 192 172
f 172 192 193
f 193 192 211
f 193 211 212
f 212 211 230
f 212 230 231
f 230 211 229
f 229 211 210
f 229 210 228
f 228 210 209
f 228 209 227
f 227 209 208
f 227 208 226
f 226 208 207
f 226 207 225
f 225 207 206
f 225 206 224
f 224 206 205
f 205 206 187
f 205 187 186
f 205 186 204
f 204 186 185
f 185 186 165
f 185 165 164
f 164 165 142
f 164 142 141
f 165 186 166
f 166 186 187
f 166 187 167
f 167 187 188
f 167 188 168
f 168 188 189
f 168 189 169
f 169 189 190
f 190 189 208
f 190 208 209
f 190 209 191
f 191 209 210
f 191 210 192
f 192 210 211
f 208 189 207
f 207 189 188
f 207 188 206
f 206 188 187
g back_left_panel
v 0.02401 0.63555 -0.24751
v 0.04648 0.55433 -0.24325
v 0.09994 0.54501 -0.22039
v 0.14098 0.55081 -0.18472
v 0.16944 0.55947 -0.13891
v 0.18373 0.57818 -0.08612
v 0.17914 0.92802 -0.07323
v 0.18377 1.07631 -0.07381
v 0.17937 1.12242 -0.10386
v 0.17079 1.16707 -0.12627
v 0.17631 1.20656 -0.15788
v 0.19981 1.30221 -0.15354
v 0.20350 1.38258 -0.08859
v 0.07885 1.34139 -0.21825
v 0.01846 1.31756 -0.24742
v 0.02088 0.61069 -0.24781
v 0.02938 0.62977 -0.24659
v 0.02659 0.63826 -0.24703
v 0.02615 0.64362 -0.24726
v 0.02659 0.65184 -0.24728
v 0.03262 0.70726 -0.24717
v 0.03493 0.74837 -0.24687
v 0.03488 0.78271 -0.24680
v 0.03462 0.81507 -0.24681
v 0.03442 0.84706 -0.24682
v 0.03426 0.87895 -0.24682
v 0.03414 0.91014 -0.24683
v 0.03350 0.93635 -0.24700
v 0.03147 0.95628 -0.24732
v 0.03148 0.98646 -0.24733
v 0.03148 1.01824 -0.24733
v 0.03149 1.05024 -0.24733
v 0.03151 1.08278 -0.24733
v 0.03147 1.11882 -0.24731
v 0.03110 1.17054 -0.24692
v 0.02836 1.27423 -0.24579
v 0.02784 1.28837 -0.24577
v 0.02666 1.29485 -0.24605
v 0.02496 1.30180 -0.24640
v 0.05393 0.58047 -0.24063
v 0.05820 0.60425 -0.23986
v 0.05980 0.63218 -0.23948
v 0.05681 0.66303 -0.24010
v 0.06100 0.69966 -0.23953
v 0.06141 0.73317 -0.23943
v 0.06129 0.76544 -0.23945
v 0.06124 0.79749 -0.23946
v 0.06121 0.82949 -0.23947
v 0.06121 0.86141 -0.23947
v 0.06146 0.89289 -0.23941
v 0.06220 0.92402 -0.23924
v 0.06226 0.95586 -0.23922
v 0.06227 0.98784 -0.23922
v 0.06227 1.01984 -0.23922
v 0.06226 1.05194 -0.23923
v 0.06201 1.08490 -0.23928
v 0.06037 1.12257 -0.23954
v 0.05727 1.17215 -0.23940
v 0.05191 1.21033 -0.24023
v 0.05235 1.23466 -0.24028
v 0.05411 1.25636 -0.24014
v 0.05797 1.28050 -0.23962
v 0.06902 1.30940 -0.23628
v 0.08959 0.57230 -0.22663
v 0.09027 0.60386 -0.22636
v 0.09015 0.63575 -0.22641
v 0.08974 0.66767 -0.22656
v 0.09073 0.70003 -0.22620
v 0.09082 0.73209 -0.22615
v 0.09085 0.76408 -0.22613
v 0.09089 0.79606 -0.22609
v 0.09091 0.82803 -0.22609
v 0.09090 0.85999 -0.22610
v 0.09093 0.89195 -0.22610
v 0.09097 0.92397 -0.22609
v 0.09096 0.95598 -0.22610
v 0.09098 0.98798 -0.22608
v 0.09100 1.01998 -0.22607
v 0.09096 1.05208 -0.22609
v 0.09053 1.08484 -0.22627
v 0.08881 1.11935 -0.22685
v 0.08659 1.15312 -0.22755
v 0.08579 1.18477 -0.22780
v 0.08701 1.21494 -0.22744
v 0.08900 1.24536 -0.22674
v 0.09093 1.27683 -0.22552
v 0.10461 1.31745 -0.21521
v 0.11687 0.57201 -0.20838
v 0.11694 0.60404 -0.20833
v 0.11690 0.63605 -0.20836
v 0.11692 0.66800 -0.20835
v 0.11705 0.70001 -0.20826
v 0.11728 0.73201 -0.20803
v 0.11762 0.76387 -0.20765
v 0.11788 0.79562 -0.20734
v 0.11780 0.82747 -0.20744
v 0.11747 0.85957 -0.20782
v 0.11721 0.89179 -0.20809
v 0.11711 0.92394 -0.20820
v 0.11710 0.95598 -0.20822
v 0.11728 0.98799 -0.20802
v 0.11742 1.01987 -0.20787
v 0.11731 1.05183 -0.20797
v 0.11692 1.08417 -0.20829
v 0.11641 1.11655 -0.20864
v 0.11609 1.14861 -0.20884
v 0.11615 1.18043 -0.20882
v 0.11646 1.21219 -0.20863
v 0.11688 1.24393 -0.20834
v 0.11940 1.27532 -0.20548
v 0.13977 0.57200 -0.18618
v 0.13974 0.60401 -0.18623
v 0.13974 0.63601 -0.18623
v 0.13974 0.66801 -0.18623
v 0.13989 0.70003 -0.18603
v 0.14100 0.73210 -0.18382
v 0.14214 0.76311 -0.18111
v 0.14250 0.79426 -0.18000
v 0.14173 0.82611 -0.18198
v 0.14062 0.85864 -0.18460
v 0.14010 0.89156 -0.18571
v 0.13995 0.92381 -0.18592
v 0.13997 0.95589 -0.18590
v 0.14088 0.98807 -0.18392
v 0.14117 1.01914 -0.18339
v 0.14047 1.05087 -0.18482
v 0.13999 1.08364 -0.18583
v 0.13981 1.11589 -0.18609
v 0.13971 1.14796 -0.18623
v 0.13969 1.18003 -0.18627
v 0.13971 1.21219 -0.18625
v 0.14048 1.24569 -0.18497
v 0.15470 1.29714 -0.18087
v 0.15835 0.60400 -0.16067
v 0.15832 0.63606 -0.16072
v 0.15834 0.66816 -0.16069
v 0.15907 0.70080 -0.15882
v 0.16104 0.73321 -0.14669
v 0.16231 0.76319 -0.13876
v 0.16148 0.79653 -0.13900
v 0.16019 0.82675 -0.14818
v 0.15958 0.85947 -0.15682
v 0.15921 0.89194 -0.15814
v 0.15884 0.92364 -0.15931
v 0.15902 0.95647 -0.15881
v 0.15929 0.99012 -0.14710
v 0.15934 1.01831 -0.14969
v 0.15926 1.05059 -0.15798
v 0.15902 1.08348 -0.15883
v 0.15865 1.11535 -0.15983
v 0.15840 1.14786 -0.16056
v 0.15853 1.18022 -0.16045
v 0.15980 1.21242 -0.16297
v 0.16448 1.24942 -0.16436
v 0.17705 1.31027 -0.15308
v 0.17227 0.60443 -0.13272
v 0.17226 0.63706 -0.13281
v 0.17239 0.67016 -0.13228
v 0.17374 0.70499 -0.12325
v 0.19213 0.73760 -0.08614
v 0.18782 0.78105 -0.08919
v 0.17416 0.82140 -0.08787
v 0.17308 0.84272 -0.11459
v 0.17284 0.87280 -0.11851
v 0.17252 0.89885 -0.12105
v 0.17227 0.92650 -0.12924
v 0.17220 0.96395 -0.12620
v 0.17272 1.00184 -0.09062
v 0.17238 1.02068 -0.12111
v 0.17250 1.05402 -0.12529
v 0.17240 1.08398 -0.12524
v 0.17261 1.11591 -0.13117
f 372 373 385
f 372 385 386
f 372 386 387
f 372 387 388
f 372 388 389
f 372 389 390
f 372 390 391
f 372 391 392
f 372 392 393
f 372 393 394
f 372 394 395
f 372 395 396
f 372 396 420
f 372 420 371
f 371 420 444
f 371 444 370
f 370 444 490
f 370 490 512
f 370 512 369
f 365 366 528
f 365 528 527
f 365 527 526
f 365 526 525
f 365 525 364
f 363 364 517
f 363 517 516
f 363 516 515
f 363 515 514
f 363 514 513
f 363 513 362
f 362 513 491
f 362 491 468
f 362 468 361
f 361 468 445
f 361 445 360
f 360 445 421
f 360 421 359
f 359 421 397
f 359 397 374
f 359 374 373
f 373 374 375
f 373 375 376
f 373 376 377
f 373 377 378
f 373 378 379
f 373 379 380
f 373 380 381
f 373 381 382
f 373 382 383
f 373 383 384
f 373 384 385
f 385 384 407
f 385 407 408
f 385 408 386
f 386 408 409
f 386 409 387
f 387 409 410
f 387 410 388
f 388 410 411
f 388 411 389
f 389 411 412
f 389 412 390
f 390 412 413
f 390 413 391
f 391 413 414
f 391 414 392
f 392 414 415
f 392 415 393
f 393 415 416
f 393 416 394
f 394 416 417
f 394 417 395
f 395 417 418
f 395 418 396
f 396 418 419
f 396 419 420
f 420 419 443
f 420 443 444
f 444 443 467
f 444 467 490
f 490 467 489
f 490 489 511
f 490 511 512
f 512 511 369
f 369 511 368
f 366 367 529
f 366 529 528
f 528 529 507
f 528 507 506
f 528 506 527
f 527 506 505
f 527 505 526
f 526 505 504
f 526 504 525
f 525 504 503
f 525 503 524
f 525 524 364
f 364 524 523
f 364 523 522
f 364 522 521
f 364 521 520
f 364 520 519
f 364 519 518
f 364 518 517
f 517 518 496
f 517 496 495
f 517 495 516
f 516 495 494
f 516 494 515
f 515 494 493
f 515 493 514
f 514 493 492
f 514 492 513
f 513 492 491
f 491 492 470
f 491 470 469
f 491 469 468
f 468 469 446
f 468 446 445
f 445 446 422
f 445 422 421
f 421 422 398
f 421 398 397
f 397 398 375
f 397 375 374
f 375 398 376
f 376 398 399
f 376 399 377
f 377 399 400
f 377 400 378
f 378 400 401
f 378 401 379
f 379 401 402
f 379 402 380
f 380 402 403
f 380 403 381
f 381 403 404
f 381 404 382
f 382 404 405
f 382 405 383
f 383 405 406
f 383 406 384
f 384 406 407
f 407 406 430
f 407 430 431
f 407 431 408
f 408 431 432
f 408 432 409
f 409 432 433
f 409 433 410
f 410 433 434
f 410 434 411
f 411 434 435
f 411 435 412
f 412 435 436
f 412 436 413
f 413 436 437
f 413 437 414
f 414 437 438
f 414 438 415
f 415 438 439
f 415 439 416
f 416 439 440
f 416 440 417
f 417 440 441
f 417 441 418
f 418 441 442
f 418 442 419
f 419 442 443
f 443 442 467
f 467 442 466
f 467 466 489
f 489 466 488
f 489 488 510
f 489 510 511
f 511 510 368
f 368 510 509
f 368 509 367
f 367 509 508
f 367 508 529
f 529 508 507
f 507 508 486
f 507 486 485
f 507 485 506
f 506 485 484
f 506 484 505
f 505 484 483
f 505 483 504
f 504 483 482
f 504 482 503
f 503 482 481
f 503 481 502
f 503 502 524
f 524 502 523
f 523 502 501
f 523 501 522
f 522 501 500
f 522 500 521
f 521 500 499
f 521 499 520
f 520 499 498
f 520 498 519
f 519 498 497
f 519 497 518
f 518 497 496
f 496 497 475
f 496 475 474
f 496 474 495
f 495 474 473
f 495 473 494
f 494 473 472
f 494 472 493
f 493 472 471
f 493 471 492
f 492 471 470
f 470 471 448
f 470 448 447
f 470 447 469
f 469 447 446
f 446 447 423
f 446 423 422
f 422 423 399
f 422 399 398
f 399 423 400
f 400 423 424
f 400 424 401
f 401 424 425
f 401 425 402
f 402 425 426
f 402 426 403
f 403 426 427
f 403 427 404
f 404 427 428
f 404 428 405
f 405 428 429
f 405 429 406
f 406 429 430
f 430 429 453
f 430 453 454
f 430 454 431
f 431 454 455
f 431 455 432
f 432 455 456
f 432 456 433
f 433 456 457
f 433 457 434
f 434 457 458
f 434 458 435
f 435 458 459
f 435 459 436
f 436 459 460
f 436 460 437
f 437 460 461
f 437 461 438
f 438 461 462
f 438 462 439
f 439 462 463
f 439 463 440
f 440 463 464
f 440 464 441
f 441 464 465
f 441 465 442
f 442 465 466
f 466 465 488
f 488 465 487
f 488 487 509
f 488 509 510
f 509 487 508
f 508 487 486
f 486 487 464
f 486 464 463
f 486 463 485
f 485 463 462
f 485 462 484
f 484 462 461
f 484 461 483
f 483 461 460
f 483 460 482
f 482 460 459
f 482 459 481
f 481 459 458
f 481 458 480
f 481 480 502
f 502 480 501
f 501 480 479
f 501 479 500
f 500 479 478
f 500 478 499
f 499 478 477
f 499 477 498
f 498 477 476
f 498 476 497
f 497 476 475
f 475 476 453
f 475 453 452
f 475 452 474
f 474 452 451
f 474 451 473
f 473 451 450
f 473 450 472
f 472 450 449
f 472 449 471
f 471 449 448
f 448 449 425
f 448 425 424
f 448 424 447
f 447 424 423
f 425 449 426
f 426 449 450
f 426 450 427
f 427 450 451
f 427 451 428
f 428 451 452
f 428 452 429
f 429 452 453
f 453 476 454
f 454 476 477
f 454 477 455
f 455 477 478
f 455 478 456
f 456 478 479
f 456 479 457
f 457 479 480
f 457 480 458
f 464 487 465
g back_right_panel
v 0.02643 0.65047 -0.24729
v 0.02463 1.30227 -0.24642
v -0.06644 1.33953 -0.22475
v -0.21568 1.38212 -0.08732
v -0.20478 1.30240 -0.15108
v -0.17830 1.20707 -0.15795
v -0.17251 1.16431 -0.12736
v -0.17437 1.12232 -0.09626
v -0.15736 1.08663 -0.02314
v -0.19651 0.88368 -0.01903
v -0.19759 0.57227 -0.08805
v -0.16934 0.55925 -0.13942
v -0.14106 0.55081 -0.18469
v -0.10109 0.54480 -0.21994
v -0.05282 0.54118 -0.24232
v -0.00059 0.53789 -0.24995
v -0.17688 0.60422 -0.11927
v -0.17688 0.63643 -0.11924
v -0.17706 0.66949 -0.11848
v -0.17980 0.70320 -0.10261
v -0.19713 0.72380 -0.04352
v -0.19922 0.76106 -0.04658
v -0.19265 0.80444 -0.04810
v -0.17745 0.83202 -0.09248
v -0.17043 0.86211 -0.09520
v -0.17030 0.88789 -0.09426
v -0.17228 0.91666 -0.09571
v -0.17103 0.94075 -0.06837
v -0.16486 0.98896 -0.05188
v -0.17119 1.02415 -0.09350
v -0.17134 1.05736 -0.09979
v -0.17125 1.08514 -0.10066
v -0.16509 0.60406 -0.14849
v -0.16513 0.63644 -0.14839
v -0.16571 0.67057 -0.14627
v -0.16836 0.70310 -0.13071
v -0.17130 0.73279 -0.11587
v -0.16988 0.76618 -0.11708
v -0.16745 0.79683 -0.12783
v -0.16616 0.82930 -0.14108
v -0.16577 0.86138 -0.14250
v -0.16575 0.89346 -0.14304
v -0.16619 0.92703 -0.13289
v -0.16431 0.95845 -0.12522
v -0.16428 0.98982 -0.12353
v -0.16598 1.02131 -0.14134
v -0.16570 1.05345 -0.14413
v -0.16578 1.08419 -0.14391
v -0.16558 1.11505 -0.14540
v -0.16528 1.14596 -0.14706
v -0.16701 1.17937 -0.14974
v -0.18796 1.31218 -0.14602
v -0.14846 0.60405 -0.17539
v -0.14858 0.63649 -0.17516
v -0.14932 0.66984 -0.17334
v -0.15096 0.70247 -0.16896
v -0.15172 0.73413 -0.16632
v -0.15107 0.76527 -0.16816
v -0.14996 0.79632 -0.17169
v -0.14904 0.82839 -0.17429
v -0.14894 0.86039 -0.17448
v -0.14881 0.89229 -0.17473
v -0.15002 0.92543 -0.17114
v -0.14990 0.95597 -0.17071
v -0.15033 0.98699 -0.16986
v -0.14901 1.02012 -0.17436
v -0.14873 1.05200 -0.17488
v -0.14879 1.08394 -0.17479
v -0.14865 1.11595 -0.17504
v -0.14859 1.14779 -0.17515
v -0.14843 1.18005 -0.17542
v -0.14845 1.21273 -0.17542
v -0.15257 1.24957 -0.17317
v -0.16766 1.29775 -0.17654
v -0.12746 0.57200 -0.19909
v -0.12747 0.60405 -0.19907
v -0.12761 0.63626 -0.19891
v -0.12795 0.66857 -0.19847
v -0.12837 0.70068 -0.19789
v -0.12845 0.73249 -0.19778
v -0.12814 0.76421 -0.19822
v -0.12777 0.79605 -0.19871
v -0.12755 0.82806 -0.19898
v -0.12753 0.86007 -0.19900
v -0.12770 0.89234 -0.19878
v -0.12795 0.92427 -0.19847
v -0.12796 0.95621 -0.19845
v -0.12788 0.98801 -0.19855
v -0.12752 1.02002 -0.19901
v -0.12749 1.05202 -0.19904
v -0.12749 1.08401 -0.19904
v -0.12747 1.11600 -0.19907
v -0.12746 1.14800 -0.19908
v -0.12747 1.18009 -0.19908
v -0.12783 1.21279 -0.19868
v -0.12900 1.24571 -0.19698
v -0.13025 1.27540 -0.19592
v -0.10274 0.57200 -0.21885
v -0.10275 0.60402 -0.21884
v -0.10278 0.63605 -0.21881
v -0.10284 0.66808 -0.21876
v -0.10288 0.70008 -0.21873
v -0.10287 0.73204 -0.21874
v -0.10281 0.76401 -0.21879
v -0.10276 0.79600 -0.21883
v -0.10274 0.82800 -0.21885
v -0.10276 0.86003 -0.21883
v -0.10278 0.89204 -0.21881
v -0.10282 0.92403 -0.21879
v -0.10279 0.95602 -0.21881
v -0.10273 0.98797 -0.21884
v -0.10268 1.01996 -0.21888
v -0.10269 1.05196 -0.21888
v -0.10270 1.08396 -0.21887
v -0.10270 1.11596 -0.21887
v -0.10272 1.14797 -0.21886
v -0.10277 1.18005 -0.21882
v -0.10295 1.21224 -0.21867
v -0.10312 1.24428 -0.21853
v -0.10340 1.27682 -0.21809
v -0.11425 1.31792 -0.21097
v -0.07499 0.57200 -0.23412
v -0.07497 0.60398 -0.23412
v -0.07497 0.63597 -0.23412
v -0.07498 0.66797 -0.23412
v -0.07498 0.69997 -0.23412
v -0.07498 0.73196 -0.23412
v -0.07498 0.76396 -0.23412
v -0.07497 0.79596 -0.23412
v -0.07498 0.82796 -0.23412
v -0.07498 0.85996 -0.23412
v -0.07498 0.89195 -0.23412
v -0.07510 0.92387 -0.23408
v -0.07492 0.95560 -0.23413
v -0.07485 0.98746 -0.23415
v -0.07486 1.01944 -0.23415
v -0.07490 1.05147 -0.23414
v -0.07494 1.08350 -0.23413
v -0.07499 1.11554 -0.23411
v -0.07505 1.14760 -0.23409
v -0.07512 1.17968 -0.23407
v -0.07518 1.21179 -0.23405
v -0.07516 1.24408 -0.23404
v -0.07580 1.27696 -0.23313
v -0.07608 1.30709 -0.23268
v -0.04493 0.57185 -0.24443
v -0.04491 0.60370 -0.24443
v -0.04495 0.63560 -0.24442
v -0.04498 0.66755 -0.24442
v -0.04500 0.69952 -0.24442
v -0.04502 0.73150 -0.24442
v -0.04503 0.76349 -0.24442
v -0.04504 0.79548 -0.24442
v -0.04505 0.82747 -0.24441
v -0.04507 0.85935 -0.24441
v -0.04513 0.89064 -0.24439
v -0.04651 0.91944 -0.24428
v -0.04674 0.95006 -0.24424
v -0.04678 0.98194 -0.24425
v -0.04684 1.01411 -0.24426
v -0.04689 1.04636 -0.24427
v -0.04694 1.07870 -0.24429
v -0.04698 1.11115 -0.24432
v -0.04698 1.14378 -0.24435
v -0.04686 1.17668 -0.24439
v -0.04644 1.21000 -0.24443
v -0.04539 1.24378 -0.24439
v -0.04262 1.27693 -0.24427
v -0.03778 1.30829 -0.24332
f 533 534 581
f 533 581 603
f 533 603 650
f 533 650 532
f 532 650 674
f 532 674 698
f 532 698 531
f 531 698 697
f 531 697 696
f 531 696 695
f 531 695 694
f 531 694 693
f 531 693 692
f 531 692 691
f 531 691 690
f 531 690 689
f 531 689 688
f 531 688 687
f 531 687 686
f 531 686 545
f 545 686 685
f 545 685 684
f 545 684 683
f 545 683 682
f 545 682 681
f 545 681 680
f 545 680 679
f 545 679 678
f 545 678 677
f 545 677 676
f 545 676 675
f 545 675 544
f 544 675 651
f 544 651 543
f 543 651 627
f 543 627 604
f 543 604 542
f 542 604 582
f 542 582 541
f 541 582 562
f 541 562 546
f 541 546 540
f 540 546 547
f 540 547 548
f 540 548 549
f 540 549 550
f 540 550 539
f 538 539 557
f 538 557 558
f 538 558 559
f 538 559 560
f 538 560 561
f 538 561 537
f 537 561 578
f 537 578 579
f 537 579 536
f 534 535 602
f 534 602 581
f 581 602 603
f 603 602 625
f 603 625 626
f 603 626 650
f 650 626 649
f 650 649 673
f 650 673 674
f 674 673 697
f 674 697 698
f 697 673 696
f 696 673 672
f 696 672 695
f 695 672 671
f 695 671 694
f 694 671 670
f 694 670 693
f 693 670 669
f 693 669 692
f 692 669 668
f 692 668 691
f 691 668 667
f 691 667 690
f 690 667 666
f 690 666 689
f 689 666 665
f 689 665 688
f 688 665 664
f 688 664 687
f 687 664 663
f 687 663 686
f 686 663 662
f 686 662 685
f 685 662 661
f 685 661 684
f 684 661 660
f 684 660 683
f 683 660 659
f 683 659 682
f 682 659 658
f 682 658 681
f 681 658 657
f 681 657 680
f 680 657 656
f 680 656 679
f 679 656 655
f 679 655 678
f 678 655 654
f 678 654 677
f 677 654 653
f 677 653 676
f 676 653 652
f 676 652 675
f 675 652 651
f 651 652 628
f 651 628 627
f 627 628 605
f 627 605 604
f 604 605 582
f 582 605 583
f 582 583 563
f 582 563 562
f 562 563 547
f 562 547 546
f 547 563 548
f 548 563 564
f 548 564 549
f 549 564 565
f 549 565 550
f 550 565 566
f 550 566 551
f 550 551 539
f 539 551 552
f 539 552 553
f 539 553 554
f 539 554 555
f 539 555 556
f 539 556 557
f 557 556 572
f 557 572 573
f 557 573 558
f 558 573 574
f 558 574 559
f 559 574 575
f 559 575 560
f 560 575 576
f 560 576 561
f 561 576 577
f 561 577 578
f 578 577 597
f 578 597 598
f 578 598 599
f 578 599 579
f 579 599 580
f 579 580 536
f 536 580 535
f 535 580 601
f 535 601 602
f 602 601 624
f 602 624 625
f 625 624 647
f 625 647 648
f 625 648 626
f 626 648 649
f 649 648 672
f 649 672 673
f 672 648 671
f 671 648 647
f 671 647 670
f 670 647 646
f 670 646 669
f 669 646 645
f 669 645 668
f 668 645 644
f 668 644 667
f 667 644 643
f 667 643 666
f 666 643 642
f 666 642 665
f 665 642 641
f 665 641 664
f 664 641 640
f 664 640 663
f 663 640 639
f 663 639 662
f 662 639 638
f 662 638 661
f 661 638 637
f 661 637 660
f 660 637 636
f 660 636 659
f 659 636 635
f 659 635 658
f 658 635 634
f 658 634 657
f 657 634 633
f 657 633 656
f 656 633 632
f 656 632 655
f 655 632 631
f 655 631 654
f 654 631 630
f 654 630 653
f 653 630 629
f 653 629 652
f 652 629 628
f 628 629 606
f 628 606 605
f 605 606 583
f 583 606 584
f 583 584 564
f 583 564 563
f 564 584 565
f 565 584 585
f 565 585 566
f 566 585 586
f 566 586 567
f 566 567 551
f 551 567 552
f 552 567 568
f 552 568 553
f 553 568 569
f 553 569 554
f 554 569 570
f 554 570 555
f 555 570 571
f 555 571 556
f 556 571 572
f 572 571 592
f 572 592 573
f 573 592 593
f 573 593 594
f 573 594 574
f 574 594 575
f 575 594 595
f 575 595 576
f 576 595 596
f 576 596 597
f 576 597 577
f 597 596 619
f 597 619 620
f 597 620 598
f 598 620 621
f 598 621 599
f 599 621 622
f 599 622 600
f 599 600 580
f 580 600 601
f 601 600 623
f 601 623 624
f 624 623 646
f 624 646 647
f 646 623 645
f 645 623 622
f 645 622 644
f 644 622 621
f 644 621 643
f 643 621 620
f 643 620 642
f 642 620 619
f 642 619 641
f 641 619 618
f 641 618 640
f 640 618 617
f 640 617 639
f 639 617 616
f 639 616 638
f 638 616 615
f 638 615 637
f 637 615 614
f 637 614 636
f 636 614 613
f 636 613 635
f 635 613 612
f 635 612 634
f 634 612 611
f 634 611 633
f 633 611 610
f 633 610 632
f 632 610 609
f 632 609 631
f 631 609 608
f 631 608 630
f 630 608 607
f 630 607 629
f 629 607 606
f 606 607 584
f 584 607 585
f 585 607 608
f 585 608 586
f 586 608 609
f 586 609 587
f 586 587 567
f 567 587 568
f 568 587 588
f 568 588 569
f 569 588 589
f 569 589 570
f 570 589 590
f 570 590 571
f 571 590 591
f 571 591 592
f 592 591 614
f 592 614 615
f 592 615 593
f 593 615 616
f 593 616 594
f 594 616 617
f 594 617 595
f 595 617 618
f 595 618 596
f 596 618 619
f 614 591 613
f 613 591 590
f 613 590 612
f 612 590 589
f 612 589 611
f 611 589 588
f 611 588 610
f 610 588 587
f 610 587 609
f 622 623 600
g left_sleeve
v 0.49512 0.82732 -0.16282
v 0.52786 0.84705 -0.13834
v 0.54075 0.85434 -0.08951
v 0.52137 0.84338 -0.04360
v 0.48455 0.82140 -0.02132
v 0.43863 0.79662 -0.04360
v 0.41925 0.78566 -0.08951
v 0.43214 0.79295 -0.13834
v 0.46826 0.81169 -0.16268
v 0.45725 0.83789 -0.16663
v 0.44477 0.86439 -0.16679
v 0.43116 0.89066 -0.16815
v 0.41752 0.91691 -0.16949
v 0.40386 0.94316 -0.17081
v 0.39017 0.96938 -0.17211
v 0.37647 0.99560 -0.17340
v 0.36283 1.02186 -0.17470
v 0.35057 1.04891 -0.17534
v 0.33603 1.07467 -0.17689
v 0.32151 1.10040 -0.17840
v 0.30700 1.12611 -0.17992
v 0.29270 1.15189 -0.18127
v 0.27811 1.17731 -0.18254
v 0.26226 1.20114 -0.18432
v 0.26262 1.20190 -0.18395
v 0.25248 1.22268 -0.18462
v 0.23753 1.24570 -0.15937
v 0.28727 1.28570 -0.14603
v 0.30456 1.31367 -0.09082
v 0.27748 1.30900 -0.02956
v 0.22002 1.28001 -0.00301
v 0.17641 1.23795 -0.00625
v 0.16825 1.16249 -0.07889
v 0.17456 1.20360 -0.17535
v 0.23651 1.24508 -0.15946
v 0.25246 1.22263 -0.18463
v 0.27008 1.20368 -0.18409
v 0.26222 1.20106 -0.18436
v 0.27807 1.17731 -0.18253
v 0.29268 1.15188 -0.18126
v 0.30699 1.12610 -0.17992
v 0.32151 1.10040 -0.17840
v 0.33605 1.07468 -0.17689
v 0.35061 1.04893 -0.17534
v 0.36748 1.02449 -0.17471
v 0.38295 0.99927 -0.17340
v 0.39835 0.97400 -0.17211
v 0.41376 0.94875 -0.17081
v 0.42920 0.92351 -0.16949
v 0.44465 0.89829 -0.16815
v 0.46014 0.87308 -0.16679
v 0.47566 0.84818 -0.16583
v 0.31676 1.18046 -0.17433
v 0.41958 1.01244 -0.16092
v 0.40990 1.03935 -0.15904
v 0.39960 1.06596 -0.15704
v 0.38942 1.09240 -0.15485
v 0.37944 1.11914 -0.15241
v 0.36924 1.14577 -0.14983
v 0.35869 1.17212 -0.14715
v 0.34812 1.19838 -0.14447
v 0.30523 1.27256 -0.13881
v 0.51366 0.87140 -0.14066
v 0.50315 0.89783 -0.13763
v 0.49237 0.92411 -0.13452
v 0.48134 0.95024 -0.13136
v 0.47007 0.97624 -0.12816
v 0.45859 1.00213 -0.12495
v 0.44692 1.02790 -0.12175
v 0.43502 1.05358 -0.11859
v 0.42298 1.07914 -0.11546
v 0.41084 1.10462 -0.11230
v 0.39859 1.13005 -0.10912
v 0.38620 1.15541 -0.10598
v 0.37367 1.18073 -0.10287
v 0.36069 1.20630 -0.10010
v 0.32162 1.28105 -0.09310
v 0.52792 0.87946 -0.08964
v 0.51480 0.90441 -0.08640
v 0.50158 0.92931 -0.08326
v 0.48827 0.95416 -0.08020
v 0.47488 0.97896 -0.07723
v 0.46141 1.00372 -0.07435
v 0.44789 1.02845 -0.07155
v 0.43431 1.05315 -0.06883
v 0.42068 1.07782 -0.06618
v 0.40702 1.10246 -0.06358
v 0.39331 1.12708 -0.06104
v 0.37957 1.15169 -0.05857
v 0.36580 1.17631 -0.05619
v 0.35198 1.20095 -0.05388
v 0.31054 1.27459 -0.04729
v 0.50716 0.86772 -0.04166
v 0.49296 0.89207 -0.03978
v 0.47877 0.91642 -0.03795
v 0.46458 0.94077 -0.03616
v 0.45041 0.96513 -0.03441
v 0.43625 0.98950 -0.03269
v 0.42209 1.01387 -0.03101
v 0.40794 1.03824 -0.02937
v 0.39381 1.06262 -0.02774
v 0.37968 1.08700 -0.02615
v 0.36555 1.11139 -0.02458
v 0.35144 1.13579 -0.02303
v 0.33734 1.16019 -0.02150
v 0.32324 1.18460 -0.01999
v 0.28100 1.25783 -0.01557
v 0.26692 1.28225 -0.01412
v 0.46315 0.84284 -0.02391
v 0.44932 0.86740 -0.02273
v 0.43549 0.89195 -0.02156
v 0.42166 0.91651 -0.02038
v 0.40782 0.94106 -0.01920
v 0.39399 0.96561 -0.01803
v 0.38015 0.99016 -0.01685
v 0.36631 1.01471 -0.01568
v 0.35248 1.03926 -0.01450
v 0.33863 1.06381 -0.01333
v 0.32479 1.08836 -0.01215
v 0.31095 1.11290 -0.01098
v 0.29711 1.13745 -0.00980
v 0.28326 1.16199 -0.00863
v 0.24172 1.23563 -0.00510
v 0.22787 1.26017 -0.00393
v 0.42083 0.81893 -0.04645
v 0.40726 0.84363 -0.04439
v 0.39369 0.86833 -0.04239
v 0.38011 0.89303 -0.04045
v 0.36653 0.91772 -0.03856
v 0.35295 0.94242 -0.03671
v 0.33936 0.96711 -0.03490
v 0.32577 0.99179 -0.03313
v 0.31217 1.01648 -0.03139
v 0.29856 1.04116 -0.02969
v 0.28494 1.06583 -0.02801
v 0.27132 1.09050 -0.02636
v 0.25770 1.11517 -0.02474
v 0.24406 1.13984 -0.02314
v 0.20313 1.21381 -0.01846
v 0.18948 1.23846 -0.01695
v 0.40419 0.80952 -0.09651
v 0.38930 0.83348 -0.09316
v 0.37455 0.85751 -0.08990
v 0.35991 0.88161 -0.08673
v 0.34536 0.90576 -0.08364
v 0.33091 0.92996 -0.08064
v 0.31653 0.95420 -0.07771
v 0.30222 0.97848 -0.07486
v 0.28796 1.00280 -0.07210
v 0.27377 1.02714 -0.06940
v 0.25625 1.04897 -0.06535
v 0.24200 1.07376 -0.06266
v 0.23030 1.09957 -0.06119
v 0.21632 1.12404 -0.05874
v 0.17392 1.19007 -0.04491
v 0.42266 0.81996 -0.14571
v 0.40507 0.84239 -0.14291
v 0.38778 0.86499 -0.13999
v 0.37075 0.88773 -0.13698
v 0.35397 0.91062 -0.13390
v 0.33741 0.93363 -0.13079
v 0.32106 0.95676 -0.12765
v 0.30491 0.98000 -0.12451
v 0.28785 1.00234 -0.12170
v 0.26738 1.02179 -0.11903
v 0.24742 1.04445 -0.11790
v 0.23460 1.06981 -0.11340
v 0.22080 1.09285 -0.10993
v 0.20370 1.11298 -0.10825
v 0.16946 1.15368 -0.11138
v 0.35109 0.97374 -0.16414
v 0.33279 0.99577 -0.16257
v 0.31504 1.01824 -0.16084
v 0.29737 1.04045 -0.15887
v 0.27941 1.06262 -0.15667
v 0.26165 1.08491 -0.15431
v 0.24421 1.10727 -0.15189
v 0.21954 1.12311 -0.15737
v 0.17645 1.19800 -0.15573
f 725 724 760
f 725 760 726
f 726 760 775
f 726 775 727
f 727 775 790
f 727 790 728
f 728 790 806
f 728 806 729
f 729 806 822
f 729 822 838
f 729 838 730
f 730 838 853
f 730 853 731
f 731 853 868
f 731 868 732
f 732 868 877
f 732 877 733
f 733 877 734
f 734 877 735
f 735 877 876
f 735 876 721
f 707 708 854
f 707 854 706
f 706 854 839
f 706 839 705
f 705 839 823
f 705 823 704
f 704 823 807
f 704 807 703
f 703 807 791
f 703 791 702
f 702 791 701
f 701 791 776
f 701 776 700
f 700 776 761
f 700 761 699
f 699 761 750
f 740 741 756
f 740 756 757
f 740 757 739
f 737 738 751
f 737 751 736
f 736 751 759
f 736 759 760
f 736 760 724
f 760 759 774
f 760 774 775
f 775 774 789
f 775 789 790
f 790 789 804
f 790 804 805
f 790 805 806
f 806 805 821
f 806 821 822
f 822 821 837
f 822 837 838
f 838 837 853
f 853 837 852
f 853 852 867
f 853 867 868
f 868 867 876
f 868 876 877
f 876 867 875
f 876 875 720
f 876 720 721
f 718 719 874
f 718 874 873
f 718 873 717
f 709 710 856
f 709 856 855
f 709 855 708
f 708 855 854
f 854 855 840
f 854 840 839
f 839 840 824
f 839 824 823
f 823 824 808
f 823 808 807
f 807 808 792
f 807 792 791
f 791 792 777
f 791 777 776
f 776 777 762
f 776 762 761
f 761 762 750
f 750 762 749
f 747 748 764
f 747 764 765
f 747 765 746
f 743 744 753
f 743 753 754
f 743 754 742
f 742 754 755
f 742 755 741
f 741 755 756
f 756 755 770
f 756 770 771
f 756 771 757
f 757 771 772
f 757 772 758
f 757 758 739
f 739 758 751
f 739 751 738
f 751 758 759
f 759 758 773
f 759 773 774
f 774 773 788
f 774 788 789
f 789 788 803
f 789 803 804
f 804 803 819
f 804 819 820
f 804 820 805
f 805 820 821
f 821 820 836
f 821 836 837
f 837 836 852
f 852 836 851
f 852 851 866
f 852 866 867
f 867 866 875
f 875 866 874
f 875 874 719
f 875 719 720
f 874 866 865
f 874 865 873
f 873 865 864
f 873 864 872
f 873 872 717
f 717 872 716
f 716 872 871
f 716 871 715
f 715 871 870
f 715 870 714
f 712 713 859
f 712 859 858
f 712 858 711
f 711 858 857
f 711 857 710
f 710 857 856
f 856 857 842
f 856 842 841
f 856 841 855
f 855 841 840
f 840 841 825
f 840 825 824
f 824 825 809
f 824 809 808
f 808 809 793
f 808 793 792
f 792 793 778
f 792 778 777
f 777 778 763
f 777 763 762
f 762 763 749
f 749 763 748
f 748 763 764
f 764 763 778
f 764 778 779
f 764 779 765
f 765 779 780
f 765 780 766
f 765 766 746
f 746 766 745
f 744 745 752
f 744 752 753
f 753 752 767
f 753 767 768
f 753 768 754
f 754 768 769
f 754 769 755
f 755 769 770
f 770 769 784
f 770 784 785
f 770 785 771
f 771 785 786
f 771 786 772
f 772 786 787
f 772 787 773
f 772 773 758
f 773 787 788
f 788 787 802
f 788 802 803
f 803 802 818
f 803 818 819
f 819 818 834
f 819 834 835
f 819 835 820
f 820 835 836
f 836 835 851
f 851 835 850
f 851 850 865
f 851 865 866
f 865 850 864
f 864 850 849
f 864 849 863
f 864 863 872
f 872 863 871
f 871 863 862
f 871 862 870
f 870 862 861
f 870 861 869
f 870 869 714
f 714 869 713
f 713 869 859
f 859 869 860
f 859 860 845
f 859 845 844
f 859 844 858
f 858 844 843
f 858 843 857
f 857 843 842
f 842 843 827
f 842 827 826
f 842 826 841
f 841 826 825
f 825 826 810
f 825 810 809
f 809 810 794
f 809 794 793
f 793 794 779
f 793 779 778
f 779 794 780
f 780 794 795
f 780 795 781
f 780 781 766
f 766 781 767
f 766 767 752
f 766 752 745
f 767 781 782
f 767 782 768
f 768 782 783
f 768 783 769
f 769 783 784
f 784 783 798
f 784 798 799
f 784 799 785
f 785 799 800
f 785 800 786
f 786 800 801
f 786 801 787
f 787 801 802
f 802 801 817
f 802 817 818
f 818 817 833
f 818 833 834
f 834 833 849
f 834 849 850
f 834 850 835
f 849 833 848
f 849 848 863
f 863 848 862
f 862 848 847
f 862 847 861
f 861 847 846
f 861 846 860
f 861 860 869
f 860 846 845
f 845 846 830
f 845 830 829
f 845 829 844
f 844 829 828
f 844 828 843
f 843 828 827
f 827 828 812
f 827 812 811
f 827 811 826
f 826 811 810
f 810 811 795
f 810 795 794
f 795 811 796
f 795 796 781
f 781 796 782
f 782 796 797
f 782 797 783
f 783 797 798
f 798 797 813
f 798 813 814
f 798 814 799
f 799 814 815
f 799 815 800
f 800 815 816
f 800 816 801
f 801 816 817
f 817 816 832
f 817 832 833
f 833 832 848
f 848 832 847
f 847 832 831
f 847 831 846
f 846 831 830
f 830 831 815
f 830 815 814
f 830 814 829
f 829 814 813
f 829 813 828
f 828 813 812
f 812 813 797
f 812 797 796
f 812 796 811
f 815 831 816
f 816 831 832
g right_sleeve
v -0.49281 0.82850 -0.16581
v -0.52786 0.84705 -0.13834
v -0.54075 0.85434 -0.08951
v -0.52137 0.84338 -0.04360
v -0.48291 0.82025 -0.02080
v -0.43775 0.79570 -0.04263
v -0.41925 0.78566 -0.08951
v -0.43214 0.79295 -0.13834
v -0.46470 0.81125 -0.16572
v -0.45794 0.83809 -0.16627
v -0.44477 0.86439 -0.16679
v -0.43116 0.89066 -0.16815
v -0.41752 0.91691 -0.16949
v -0.40386 0.94316 -0.17081
v -0.39017 0.96938 -0.17211
v -0.37647 0.99560 -0.17340
v -0.36283 1.02186 -0.17470
v -0.35057 1.04891 -0.17534
v -0.33603 1.07467 -0.17689
v -0.32151 1.10040 -0.17840
v -0.30699 1.12611 -0.17992
v -0.29265 1.15187 -0.18124
v -0.27807 1.17729 -0.18252
v -0.26226 1.20113 -0.18432
v -0.26262 1.20190 -0.18395
v -0.25248 1.22264 -0.18465
v -0.23741 1.24552 -0.15948
v -0.28721 1.28564 -0.14604
v -0.30456 1.31367 -0.09082
v -0.27748 1.30900 -0.02956
v -0.22002 1.28002 -0.00301
v -0.17806 1.23953 -0.00819
v -0.17027 1.16026 -0.07796
v -0.17570 1.20178 -0.18214
v -0.23638 1.24489 -0.15958
v -0.25246 1.22259 -0.18466
v -0.27006 1.20366 -0.18407
v -0.26223 1.20106 -0.18436
v -0.27804 1.17729 -0.18252
v -0.29263 1.15186 -0.18123
v -0.30698 1.12610 -0.17992
v -0.32151 1.10040 -0.17840
v -0.33604 1.07468 -0.17689
v -0.35061 1.04893 -0.17534
v -0.36748 1.02449 -0.17471
v -0.38295 0.99927 -0.17340
v -0.39835 0.97400 -0.17211
v -0.41376 0.94875 -0.17081
v -0.42920 0.92351 -0.16949
v -0.44465 0.89829 -0.16815
v -0.46014 0.87308 -0.16679
v -0.47565 0.84789 -0.16540
v -0.31676 1.18046 -0.17433
v -0.41958 1.01244 -0.16092
v -0.40990 1.03935 -0.15904
v -0.39960 1.06596 -0.15704
v -0.38942 1.09240 -0.15485
v -0.37944 1.11914 -0.15241
v -0.36924 1.14577 -0.14983
v -0.35869 1.17212 -0.14715
v -0.34812 1.19838 -0.14447
v -0.30519 1.27254 -0.13882
v -0.51366 0.87140 -0.14066
v -0.50315 0.89783 -0.13763
v -0.49237 0.92411 -0.13452
v -0.48134 0.95024 -0.13136
v -0.47007 0.97624 -0.12816
v -0.45859 1.00213 -0.12495
v -0.44692 1.02790 -0.12175
v -0.43502 1.05358 -0.11859
v -0.42298 1.07914 -0.11546
v -0.41084 1.10462 -0.11230
v -0.39859 1.13005 -0.10912
v -0.38620 1.15541 -0.10598
v -0.37367 1.18073 -0.10287
v -0.36069 1.20630 -0.10010
v -0.32161 1.28105 -0.09311
v -0.52792 0.87946 -0.08964
v -0.51480 0.90441 -0.08640
v -0.50158 0.92931 -0.08326
v -0.48827 0.95416 -0.08020
v -0.47488 0.97896 -0.07723
v -0.46141 1.00372 -0.07435
v -0.44789 1.02845 -0.07155
v -0.43431 1.05315 -0.06883
v -0.42068 1.07782 -0.06618
v -0.40702 1.10246 -0.06358
v -0.39331 1.12708 -0.06104
v -0.37957 1.15169 -0.05857
v -0.36580 1.17631 -0.05619
v -0.35198 1.20095 -0.05388
v -0.31054 1.27459 -0.04729
v -0.50716 0.86772 -0.04166
v -0.49296 0.89207 -0.03978
v -0.47877 0.91642 -0.03795
v -0.46458 0.94077 -0.03616
v -0.45041 0.96513 -0.03441
v -0.43625 0.98950 -0.03269
v -0.42209 1.01387 -0.03101
v -0.40794 1.03824 -0.02937
v -0.39381 1.06262 -0.02774
v -0.37968 1.08700 -0.02615
v -0.36555 1.11139 -0.02458
v -0.35144 1.13579 -0.02303
v -0.33734 1.16019 -0.02150
v -0.32324 1.18460 -0.01999
v -0.28100 1.25783 -0.01557
v -0.26693 1.28225 -0.01412
v -0.46315 0.84284 -0.02391
v -0.44932 0.86740 -0.02273
v -0.43549 0.89195 -0.02156
v -0.42166 0.91651 -0.02038
v -0.40782 0.94106 -0.01920
v -0.39399 0.96561 -0.01803
v -0.38015 0.99016 -0.01685
v -0.36631 1.01471 -0.01568
v -0.35248 1.03926 -0.01450
v -0.33863 1.06381 -0.01333
v -0.32479 1.08836 -0.01215
v -0.31095 1.11290 -0.01098
v -0.29711 1.13745 -0.00980
v -0.28326 1.16199 -0.00863
v -0.24173 1.23563 -0.00510
v -0.22788 1.26018 -0.00392
v -0.42083 0.81893 -0.04645
v -0.40726 0.84363 -0.04439
v -0.39369 0.86833 -0.04239
v -0.38011 0.89303 -0.04045
v -0.36653 0.91772 -0.03856
v -0.35295 0.94242 -0.03671
v -0.33936 0.96711 -0.03490
v -0.32577 0.99179 -0.03313
v -0.31217 1.01648 -0.03139
v -0.29856 1.04116 -0.02969
v -0.28494 1.06583 -0.02801
v -0.27132 1.09050 -0.02636
v -0.25770 1.11517 -0.02474
v -0.24407 1.13984 -0.02314
v -0.20317 1.21384 -0.01842
v -0.18950 1.23852 -0.01690
v -0.40419 0.80952 -0.09651
v -0.38930 0.83348 -0.09316
v -0.37455 0.85751 -0.08990
v -0.35991 0.88161 -0.08673
v -0.34536 0.90576 -0.08364
v -0.33091 0.92996 -0.08064
v -0.31653 0.95420 -0.07771
v -0.30222 0.97848 -0.07486
v -0.28796 1.00280 -0.07210
v -0.27271 1.02618 -0.06914
v -0.25498 1.04786 -0.06463
v -0.24090 1.07291 -0.06185
v -0.22845 1.09830 -0.06026
v -0.21586 1.12375 -0.05846
v -0.17421 1.19010 -0.04368
v -0.42266 0.81996 -0.14571
v -0.40507 0.84239 -0.14291
v -0.38778 0.86499 -0.13999
v -0.37075 0.88773 -0.13698
v -0.35397 0.91062 -0.13390
v -0.33741 0.93363 -0.13079
v -0.32106 0.95676 -0.12765
v -0.30491 0.98000 -0.12451
v -0.28625 1.00094 -0.12203
v -0.26482 1.02083 -0.12091
v -0.24678 1.04345 -0.11664
v -0.23276 1.06838 -0.11309
v -0.21756 1.09073 -0.10930
v -0.20053 1.11112 -0.10925
v -0.16531 1.14233 -0.11975
v -0.35109 0.97374 -0.16414
v -0.33279 0.99577 -0.16257
v -0.31504 1.01824 -0.16084
v -0.29737 1.04045 -0.15887
v -0.27940 1.06262 -0.15666
v -0.26164 1.08493 -0.15430
v -0.24412 1.10735 -0.15182
v -0.21587 1.12079 -0.15999
v -0.17439 1.19725 -0.15728
f 904 903 939
f 904 939 905
f 905 939 954
f 905 954 906
f 906 954 969
f 906 969 907
f 907 969 985
f 907 985 908
f 908 985 1001
f 908 1001 1017
f 908 1017 909
f 909 1017 1032
f 909 1032 910
f 910 1032 1047
f 910 1047 911
f 911 1047 1056
f 911 1056 912
f 912 1056 913
f 913 1056 914
f 914 1056 1055
f 914 1055 900
f 886 887 1033
f 886 1033 885
f 885 1033 1018
f 885 1018 884
f 884 1018 1002
f 884 1002 883
f 883 1002 986
f 883 986 882
f 882 986 970
f 882 970 881
f 881 970 880
f 880 970 955
f 880 955 879
f 879 955 940
f 879 940 878
f 878 940 929
f 919 920 935
f 919 935 936
f 919 936 918
f 916 917 930
f 916 930 915
f 915 930 938
f 915 938 939
f 915 939 903
f 939 938 953
f 939 953 954
f 954 953 968
f 954 968 969
f 969 968 983
f 969 983 984
f 969 984 985
f 985 984 1000
f 985 1000 1001
f 1001 1000 1016
f 1001 1016 1017
f 1017 1016 1032
f 1032 1016 1031
f 1032 1031 1046
f 1032 1046 1047
f 1047 1046 1055
f 1047 1055 1056
f 1055 1046 1054
f 1055 1054 899
f 1055 899 900
f 897 898 1053
f 897 1053 1052
f 897 1052 896
f 888 889 1035
f 888 1035 1034
f 888 1034 887
f 887 1034 1033
f 1033 1034 1019
f 1033 1019 1018
f 1018 1019 1003
f 1018 1003 1002
f 1002 1003 987
f 1002 987 986
f 986 987 971
f 986 971 970
f 970 971 956
f 970 956 955
f 955 956 941
f 955 941 940
f 940 941 929
f 929 941 928
f 926 927 943
f 926 943 944
f 926 944 925
f 922 923 932
f 922 932 933
f 922 933 921
f 921 933 934
f 921 934 920
f 920 934 935
f 935 934 949
f 935 949 950
f 935 950 936
f 936 950 951
f 936 951 937
f 936 937 918
f 918 937 930
f 918 930 917
f 930 937 938
f 938 937 952
f 938 952 953
f 953 952 967
f 953 967 968
f 968 967 982
f 968 982 983
f 983 982 998
f 983 998 999
f 983 999 984
f 984 999 1000
f 1000 999 1015
f 1000 1015 1016
f 1016 1015 1031
f 1031 1015 1030
f 1031 1030 1045
f 1031 1045 1046
f 1046 1045 1054
f 1054 1045 1053
f 1054 1053 898
f 1054 898 899
f 1053 1045 1044
f 1053 1044 1052
f 1052 1044 1043
f 1052 1043 1051
f 1052 1051 896
f 896 1051 895
f 895 1051 1050
f 895 1050 894
f 894 1050 1049
f 894 1049 893
f 891 892 1038
f 891 1038 1037
f 891 1037 890
f 890 1037 1036
f 890 1036 889
f 889 1036 1035
f 1035 1036 1021
f 1035 1021 1020
f 1035 1020 1034
f 1034 1020 1019
f 1019 1020 1004
f 1019 1004 1003
f 1003 1004 988
f 1003 988 987
f 987 988 972
f 987 972 971
f 971 972 957
f 971 957 956
f 956 957 942
f 956 942 941
f 941 942 928
f 928 942 927
f 927 942 943
f 943 942 957
f 943 957 958
f 943 958 944
f 944 958 959
f 944 959 945
f 944 945 925
f 925 945 924
f 923 924 931
f 923 931 932
f 932 931 946
f 932 946 947
f 932 947 933
f 933 947 948
f 933 948 934
f 934 948 949
f 949 948 963
f 949 963 964
f 949 964 950
f 950 964 965
f 950 965 951
f 951 965 966
f 951 966 952
f 951 952 937
f 952 966 967
f 967 966 981
f 967 981 982
f 982 981 997
f 982 997 998
f 998 997 1013
f 998 1013 1014
f 998 1014 999
f 999 1014 1015
f 1015 1014 1030
f 1030 1014 1029
f 1030 1029 1044
f 1030 1044 1045
f 1044 1029 1043
f 1043 1029 1028
f 1043 1028 1042
f 1043 1042 1051
f 1051 1042 1050
f 1050 1042 1041
f 1050 1041 1049
f 1049 1041 1040
f 1049 1040 1048
f 1049 1048 893
f 893 1048 892
f 892 1048 1038
f 1038 1048 1039
f 1038 1039 1024
f 1038 1024 1023
f 1038 1023 1037
f 1037 1023 1022
f 1037 1022 1036
f 1036 1022 1021
f 1021 1022 1006
f 1021 1006 1005
f 1021 1005 1020
f 1020 1005 1004
f 1004 1005 989
f 1004 989 988
f 988 989 973
f 988 973 972
f 972 973 958
f 972 958 957
f 958 973 959
f 959 973 974
f 959 974 960
f 959 960 945
f 945 960 946
f 945 946 931
f 945 931 924
f 946 960 961
f 946 961 947
f 947 961 962
f 947 962 948
f 948 962 963
f 963 962 977
f 963 977 978
f 963 978 964
f 964 978 979
f 964 979 965
f 965 979 980
f 965 980 966
f 966 980 981
f 981 980 996
f 981 996 997
f 997 996 1012
f 997 1012 1013
f 1013 1012 1028
f 1013 1028 1029
f 1013 1029 1014
f 1028 1012 1027
f 1028 1027 1042
f 1042 1027 1041
f 1041 1027 1026
f 1041 1026 1040
f 1040 1026 1025
f 1040 1025 1039
f 1040 1039 1048
f 1039 1025 1024
f 1024 1025 1009
f 1024 1009 1008
f 1024 1008 1023
f 1023 1008 1007
f 1023 1007 1022
f 1022 1007 1006
f 1006 1007 991
f 1006 991 990
f 1006 990 1005
f 1005 990 989
f 989 990 974
f 989 974 973
f 974 990 975
f 974 975 960
f 960 975 961
f 961 975 976
f 961 976 962
f 962 976 977
f 977 976 992
f 977 992 993
f 977 993 978
f 978 993 994
f 978 994 979
f 979 994 995
f 979 995 980
f 980 995 996
f 996 995 1011
f 996 1011 1012
f 1012 1011 1027
f 1027 1011 1026
f 1026 1011 1010
f 1026 1010 1025
f 1025 1010 1009
f 1009 1010 994
f 1009 994 993
f 1009 993 1008
f 1008 993 992
f 1008 992 1007
f 1007 992 991
f 991 992 976
f 991 976 975
f 991 975 990
f 994 1010 995
f 995 1010 1011
